STARTFONT 2.1
FONT -FontForge-Lobster-Book-R-Normal--28-280-72-72-P-164-ISO10646-1
SIZE 28 72 72
FONTBOUNDINGBOX 56 42 -13 -14
COMMENT "Generated by fontforge, http://fontforge.sourceforge.net"
COMMENT "Copyright 2010 The Lobster Project Authors (https://github.com/impallari/The-Lobster-Font), with Reserved Font Name "Lobster"."
STARTPROPERTIES 40
FOUNDRY "FontForge"
FAMILY_NAME "Lobster"
WEIGHT_NAME "Book"
SLANT "R"
SETWIDTH_NAME "Normal"
ADD_STYLE_NAME ""
PIXEL_SIZE 28
POINT_SIZE 280
RESOLUTION_X 72
RESOLUTION_Y 72
SPACING "P"
AVERAGE_WIDTH 164
CHARSET_REGISTRY "ISO10646"
CHARSET_ENCODING "1"
FONTNAME_REGISTRY ""
CHARSET_COLLECTIONS "ISO8859-2 ISO8859-5 ISO8859-9 ISO8859-4 ISO10646-1"
FONT_NAME "Lobster-Regular"
FACE_NAME "Lobster Regular"
COPYRIGHT "Copyright 2010 The Lobster Project Authors (https://github.com/impallari/The-Lobster-Font), with Reserved Font Name "Lobster"."
FONT_VERSION "2.100"
FONT_ASCENT 22
FONT_DESCENT 6
UNDERLINE_POSITION -3
UNDERLINE_THICKNESS 2
X_HEIGHT 14
CAP_HEIGHT 20
DEFAULT_CHAR 1
RAW_ASCENT 800
RAW_DESCENT 200
NORM_SPACE 6
RELATIVE_WEIGHT 40
RELATIVE_SETWIDTH 50
SUPERSCRIPT_X 0
SUPERSCRIPT_Y 9
SUPERSCRIPT_SIZE 16
SUBSCRIPT_X 0
SUBSCRIPT_Y 2
SUBSCRIPT_SIZE 16
AVG_LOWERCASE_WIDTH 131
AVG_UPPERCASE_WIDTH 174
ENDPROPERTIES
CHARS 1148
STARTCHAR NULL.dup1
ENCODING 0
SWIDTH 600 0
DWIDTH 17 0
BBX 1 1 0 0
BITMAP
00
ENDCHAR
STARTCHAR nonmarkingreturn
ENCODING 13
SWIDTH 600 0
DWIDTH 17 0
BBX 1 1 0 0
BITMAP
00
ENDCHAR
STARTCHAR space
ENCODING 32
SWIDTH 217 0
DWIDTH 6 0
BBX 1 1 0 0
BITMAP
00
ENDCHAR
STARTCHAR exclam
ENCODING 33
SWIDTH 257 0
DWIDTH 7 0
BBX 8 21 1 0
BITMAP
03
0F
0F
1E
1E
1E
1C
1C
1C
1C
38
38
38
30
30
00
00
70
F0
F0
70
ENDCHAR
STARTCHAR quotedbl
ENCODING 34
SWIDTH 353 0
DWIDTH 10 0
BBX 10 6 2 15
BITMAP
39C0
3B80
7300
7700
6600
C600
ENDCHAR
STARTCHAR numbersign
ENCODING 35
SWIDTH 659 0
DWIDTH 18 0
BBX 15 17 2 2
BITMAP
0618
0638
0630
0E30
0C30
7FFE
7FFC
0C60
1860
1860
FFF8
FFF8
18C0
30C0
30C0
30C0
3180
ENDCHAR
STARTCHAR dollar
ENCODING 36
SWIDTH 548 0
DWIDTH 15 0
BBX 15 27 0 -3
BITMAP
0010
0030
0030
01F0
07BC
0F6E
0E6E
0E4E
0F5C
0FC0
07C0
07C0
03E0
01F0
01F8
3978
7D78
733C
E338
E238
6278
72F0
3FE0
0F80
0400
0400
0C00
ENDCHAR
STARTCHAR percent
ENCODING 37
SWIDTH 796 0
DWIDTH 22 0
BBX 21 21 1 0
BITMAP
0F0180
198180
318300
718600
618600
618C00
E38C00
E39800
631800
663000
3C30F0
0063B8
00C738
00C638
018E38
018E38
030E38
030E30
060E70
060660
0C0780
ENDCHAR
STARTCHAR ampersand
ENCODING 38
SWIDTH 682 0
DWIDTH 19 0
BBX 18 21 0 0
BITMAP
00F000
03FC00
078C00
0F0C00
0F1C00
0E1C00
0F0000
0F0000
078040
07C0C0
1F1FC0
3E3FC0
7C7F80
7C7600
784400
F80400
F80C00
7C3800
7FF000
3FE000
1F8000
ENDCHAR
STARTCHAR quotesingle
ENCODING 39
SWIDTH 196 0
DWIDTH 5 0
BBX 5 6 2 15
BITMAP
38
38
30
70
60
E0
ENDCHAR
STARTCHAR parenleft
ENCODING 40
SWIDTH 437 0
DWIDTH 12 0
BBX 11 28 4 -7
BITMAP
0060
01C0
0380
0700
0E00
0C00
1C00
3800
3800
7800
7000
7000
7000
F000
F000
E000
E000
E000
E000
E000
7000
7000
7000
3000
3000
1800
0800
0800
ENDCHAR
STARTCHAR parenright
ENCODING 41
SWIDTH 413 0
DWIDTH 12 0
BBX 11 28 -2 -7
BITMAP
0600
0300
0380
0180
01C0
01C0
01C0
01C0
00E0
00E0
00E0
00E0
01E0
01E0
01C0
01C0
01C0
03C0
0380
0380
0700
0600
0E00
1C00
1800
7000
C000
8000
ENDCHAR
STARTCHAR asterisk
ENCODING 42
SWIDTH 515 0
DWIDTH 14 0
BBX 10 11 2 10
BITMAP
0E00
0C00
4C80
7DC0
7FC0
0C00
7F80
FDC0
4CC0
0C00
0C00
ENDCHAR
STARTCHAR plus
ENCODING 43
SWIDTH 442 0
DWIDTH 12 0
BBX 11 10 0 4
BITMAP
0300
0700
0700
0600
7FE0
FFE0
0E00
0C00
0C00
0C00
ENDCHAR
STARTCHAR comma
ENCODING 44
SWIDTH 216 0
DWIDTH 6 0
BBX 4 8 1 -4
BITMAP
E0
F0
F0
F0
60
60
C0
80
ENDCHAR
STARTCHAR hyphen
ENCODING 45
SWIDTH 290 0
DWIDTH 8 0
BBX 6 2 1 6
BITMAP
FC
F8
ENDCHAR
STARTCHAR period
ENCODING 46
SWIDTH 263 0
DWIDTH 7 0
BBX 4 4 1 0
BITMAP
70
F0
F0
70
ENDCHAR
STARTCHAR slash
ENCODING 47
SWIDTH 311 0
DWIDTH 9 0
BBX 8 28 0 -7
BITMAP
03
03
03
07
06
06
06
06
0C
0C
0C
0C
0C
18
18
18
18
18
30
30
30
30
70
60
60
60
60
C0
ENDCHAR
STARTCHAR zero
ENCODING 48
SWIDTH 546 0
DWIDTH 15 0
BBX 15 21 1 0
BITMAP
03F0
07F8
0F3C
1E3C
3C1C
7C1C
781E
781E
F81C
F03C
F03C
F03C
F03C
F038
F078
F078
F070
F0E0
F1E0
7FC0
3F00
ENDCHAR
STARTCHAR one
ENCODING 49
SWIDTH 317 0
DWIDTH 9 0
BBX 8 21 1 0
BITMAP
01
07
7F
7E
1E
1E
1E
1E
3C
3C
3C
3C
78
78
78
78
78
F0
F0
F0
F0
ENDCHAR
STARTCHAR two
ENCODING 50
SWIDTH 492 0
DWIDTH 14 0
BBX 13 21 0 0
BITMAP
07C0
1FF0
18F8
3878
3878
3878
3C78
10F8
00F0
01E0
03C0
0780
0E00
1C00
3800
7000
7C10
FFF8
FFF0
FFF0
83E0
ENDCHAR
STARTCHAR three
ENCODING 51
SWIDTH 514 0
DWIDTH 14 0
BBX 14 21 0 0
BITMAP
03E0
0FF8
1C3C
1C3C
1C3C
1E3C
0C78
0078
01E0
03E0
00F0
00F8
1078
7C7C
F07C
F078
E078
E070
70F0
7FE0
1F80
ENDCHAR
STARTCHAR four
ENCODING 52
SWIDTH 476 0
DWIDTH 13 0
BBX 13 21 0 0
BITMAP
0380
03C0
03C0
03C0
0380
0780
0730
0F30
0E30
1C70
3860
3068
7FF8
FFF8
FFF0
01C0
01C0
01C0
03C0
0380
0780
ENDCHAR
STARTCHAR five
ENCODING 53
SWIDTH 517 0
DWIDTH 14 0
BBX 14 20 0 0
BITMAP
0004
0FFC
0FFC
0DF8
0C00
1C00
1800
1FE0
1FF0
30F8
0078
0078
3878
7C78
7078
F078
F0F0
70F0
7FE0
1F80
ENDCHAR
STARTCHAR six
ENCODING 54
SWIDTH 500 0
DWIDTH 14 0
BBX 14 21 0 0
BITMAP
00F8
03FC
070C
0F0C
1E1C
3C18
3C00
7C00
78C0
7BF0
7C78
7838
F838
F83C
F838
7838
7878
7870
78E0
3FC0
1F80
ENDCHAR
STARTCHAR seven
ENCODING 55
SWIDTH 464 0
DWIDTH 13 0
BBX 13 21 2 0
BITMAP
7800
FE18
FFF0
82E0
80E0
01C0
0380
0780
0700
0E00
1E00
3C00
3C00
7800
7800
F800
F000
F000
F000
F800
7800
ENDCHAR
STARTCHAR eight
ENCODING 56
SWIDTH 499 0
DWIDTH 14 0
BBX 14 21 0 0
BITMAP
03F0
07F8
0E1C
1E1C
1E1C
1E1C
1E38
1F70
0FE0
07C0
0FE0
3DF0
78F8
7078
F07C
F07C
F078
F078
70F0
3FE0
1F80
ENDCHAR
STARTCHAR nine
ENCODING 57
SWIDTH 489 0
DWIDTH 14 0
BBX 14 21 0 0
BITMAP
03E0
0FF0
1C78
3838
383C
783C
703C
703C
707C
707C
78FC
3FF8
0E78
0078
00F0
20F0
70E0
E1E0
E3C0
7F80
3E00
ENDCHAR
STARTCHAR colon
ENCODING 58
SWIDTH 267 0
DWIDTH 7 0
BBX 6 11 1 2
BITMAP
38
3C
3C
38
00
00
00
70
F8
F8
70
ENDCHAR
STARTCHAR semicolon
ENCODING 59
SWIDTH 276 0
DWIDTH 8 0
BBX 6 14 1 -3
BITMAP
38
3C
3C
38
00
00
70
F0
F0
70
30
20
40
80
ENDCHAR
STARTCHAR less
ENCODING 60
SWIDTH 358 0
DWIDTH 10 0
BBX 10 11 0 2
BITMAP
0040
00C0
03C0
0F00
3C00
F000
7800
3E00
0F80
0300
0100
ENDCHAR
STARTCHAR equal
ENCODING 61
SWIDTH 515 0
DWIDTH 14 0
BBX 12 9 1 3
BITMAP
3FF0
7FF0
7FF0
0000
0000
0000
FFE0
FFE0
FFC0
ENDCHAR
STARTCHAR greater
ENCODING 62
SWIDTH 362 0
DWIDTH 10 0
BBX 10 11 0 2
BITMAP
2000
3000
3C00
1F00
0780
03C0
0F80
3E00
F800
E000
8000
ENDCHAR
STARTCHAR question
ENCODING 63
SWIDTH 441 0
DWIDTH 12 0
BBX 11 21 1 0
BITMAP
0F80
3FC0
71E0
61E0
E1E0
F1E0
79C0
0380
0700
0E00
1C00
1800
3000
3000
3000
0000
0000
7000
F800
F800
7000
ENDCHAR
STARTCHAR at
ENCODING 64
SWIDTH 688 0
DWIDTH 19 0
BBX 18 20 0 -3
BITMAP
003800
03FF00
078380
0E01C0
1C01C0
38FCC0
71F8C0
7398C0
E739C0
E739C0
E63180
C63380
C67700
C7BE00
C30800
E00800
E01800
703800
3FF000
0FC000
ENDCHAR
STARTCHAR A
ENCODING 65
SWIDTH 668 0
DWIDTH 19 0
BBX 19 24 0 -3
BITMAP
0001E0
0007E0
000DE0
0019E0
0033E0
0073C0
0063C0
00E3C0
07C3C0
3FFF80
738F80
E38780
F70780
070780
0F0F00
0E0F00
1E0F00
1E0F00
1C1F00
1C1E00
3C1E00
3C0000
1C0000
1C0000
ENDCHAR
STARTCHAR B
ENCODING 66
SWIDTH 641 0
DWIDTH 18 0
BBX 17 21 0 0
BITMAP
01FC00
07FE00
1E0700
39E700
73C300
63C700
E3C700
E3CE00
E7FC00
67FF00
078F00
078780
078780
0F0780
0F0780
0F0780
0F0F00
0F8F00
1EFE00
1EFE00
1E7800
ENDCHAR
STARTCHAR C
ENCODING 67
SWIDTH 497 0
DWIDTH 14 0
BBX 14 21 1 0
BITMAP
03F0
07F8
0F0C
1E0C
3E1C
3C3C
7C00
7800
F800
F800
F800
F000
F000
F000
F000
F004
F808
F838
FFF0
7FE0
1F80
ENDCHAR
STARTCHAR D
ENCODING 68
SWIDTH 663 0
DWIDTH 19 0
BBX 18 21 0 0
BITMAP
01FC00
07FE00
1C0700
39E780
73C380
63C3C0
E3C3C0
E3C3C0
E783C0
6783C0
0783C0
0783C0
0F8380
0F0780
0F0780
0F0F00
0F0F00
1E1E00
1F3E00
1FFC00
1EF000
ENDCHAR
STARTCHAR E
ENCODING 69
SWIDTH 459 0
DWIDTH 13 0
BBX 14 21 0 0
BITMAP
01F0
03F8
070C
0F0C
0E1C
0E38
0E00
0F00
0780
0FC0
1E00
3E00
7C00
7800
F800
F80C
F808
FC30
7FF0
7FC0
1F00
ENDCHAR
STARTCHAR F
ENCODING 70
SWIDTH 459 0
DWIDTH 13 0
BBX 17 21 0 0
BITMAP
03FF80
0FFF00
3BDF00
73C000
63C000
63C000
E3C000
E78000
E78000
67F800
17F800
0F8000
0F0000
0F0000
0F0000
0F0000
1F0000
1E0000
1E0000
1E0000
3E0000
ENDCHAR
STARTCHAR G
ENCODING 71
SWIDTH 578 0
DWIDTH 16 0
BBX 15 27 1 -6
BITMAP
01F8
0FFC
1F0E
3E0E
7C0E
781C
F800
F000
F000
F01C
F01C
F03C
F03C
F078
F8F8
7FF8
3F78
0078
00F0
08F0
3EF0
72E0
60E0
61E0
73C0
3F80
0E00
ENDCHAR
STARTCHAR H
ENCODING 72
SWIDTH 665 0
DWIDTH 19 0
BBX 19 21 0 0
BITMAP
01E1E0
07E1E0
1FE1E0
39E1E0
73C3C0
73C3C0
E3C3C0
E3C3C0
E3C3C0
67FF80
17FF80
078780
078780
0F8780
0F0F00
0F0F00
0F0F00
0F0F00
1E1F00
1E1E00
1E1E00
ENDCHAR
STARTCHAR I
ENCODING 73
SWIDTH 375 0
DWIDTH 11 0
BBX 11 21 0 0
BITMAP
01E0
07E0
1DE0
33C0
73C0
63C0
E3C0
E3C0
E780
6780
0780
0780
0F00
0F00
0F00
0F00
0F00
1E00
1E00
1E00
1E00
ENDCHAR
STARTCHAR J
ENCODING 74
SWIDTH 536 0
DWIDTH 15 0
BBX 16 27 0 -6
BITMAP
000F
003F
00EF
01DE
039E
031E
071E
071E
073C
033C
003C
003C
007C
0078
0078
0078
0078
00F0
00F0
1CF0
7EF0
73F0
E1E0
61E0
63C0
7F80
1C00
ENDCHAR
STARTCHAR K
ENCODING 75
SWIDTH 601 0
DWIDTH 17 0
BBX 19 21 0 0
BITMAP
01E1E0
0FE180
1DE300
33C700
73CE00
E3CC00
E3D800
E7F000
E7E000
67FC00
079E00
079E00
0F1E00
0F1E00
0F1E00
0F1E00
0F1C00
1E3C00
1E3C00
1E3C00
1E1E00
ENDCHAR
STARTCHAR L
ENCODING 76
SWIDTH 379 0
DWIDTH 11 0
BBX 19 28 0 -7
BITMAP
01E000
0FE000
1DE000
33C000
73C000
E3C000
E3C000
E7C000
E78000
678000
078000
078000
0F0000
0F0000
0F0000
0F0000
1F0000
1E0000
1E0000
1E0000
1F0000
07C000
01F000
007C20
003FC0
001FC0
000FC0
000380
ENDCHAR
STARTCHAR M
ENCODING 77
SWIDTH 787 0
DWIDTH 22 0
BBX 21 21 2 0
BITMAP
03E0F8
0FE0F0
19E1F0
33E1F0
63E1F0
E3E3F0
E7E3F0
E7E7E0
EFE7E0
6DE7E0
0DEDE0
1DCDE0
19DDE0
19D9E0
33DBE0
33F3C0
33F3C0
63F3C0
63E3C0
E3E3C0
C3C3C0
ENDCHAR
STARTCHAR N
ENCODING 78
SWIDTH 668 0
DWIDTH 19 0
BBX 20 21 0 0
BITMAP
03E070
0FE070
3DE070
73F060
73F0E0
E3F0E0
E3F0E0
E3F0C0
E778C0
6779C0
1779C0
0679C0
0E3D80
0E3D80
0E3F80
0E3F80
0C1F80
1C1F00
1C1F00
1C1F00
180F00
ENDCHAR
STARTCHAR O
ENCODING 79
SWIDTH 665 0
DWIDTH 19 0
BBX 18 21 0 0
BITMAP
00FE00
07FF00
0E0380
1CF3C0
31E3C0
73C1C0
6781C0
E781C0
6F83C0
6F03C0
0F03C0
0F03C0
1F03C0
1E0780
1E0780
1E0F00
1E0F00
1E1E00
0F3C00
0FF800
03E000
ENDCHAR
STARTCHAR P
ENCODING 80
SWIDTH 573 0
DWIDTH 16 0
BBX 17 21 0 0
BITMAP
01F800
07FE00
1C0F00
39E700
73C780
63C780
E3C780
E3C700
E78700
678E00
078E00
07BC00
0FF000
0F0000
0F0000
0F0000
0F0000
1E0000
1E0000
1E0000
1E0000
ENDCHAR
STARTCHAR Q
ENCODING 81
SWIDTH 665 0
DWIDTH 19 0
BBX 18 24 0 -3
BITMAP
00FE00
07FF00
0E0380
38F3C0
31C1C0
73C1C0
6781C0
E781C0
6F03C0
2F03C0
0F03C0
0F03C0
1E07C0
1E0780
1E0780
1E0F00
1FFF00
1E7E00
0F3C00
0FF800
07FC00
001F00
001F80
000F00
ENDCHAR
STARTCHAR R
ENCODING 82
SWIDTH 601 0
DWIDTH 17 0
BBX 16 21 0 0
BITMAP
01F8
0FFE
1C07
3BE7
73C7
E3C7
E3C7
E3CE
E79C
27FC
079E
079E
0F1E
0F1E
0F1E
0F1E
0F3C
1E3C
1E3C
1E3C
1E1E
ENDCHAR
STARTCHAR S
ENCODING 83
SWIDTH 570 0
DWIDTH 16 0
BBX 14 21 1 0
BITMAP
01F0
07FC
0F1C
1E0C
1E0C
1E1C
1F08
0F80
07C0
07E0
03F0
01F0
38F8
7C78
F078
E078
E078
E078
F0F0
7FE0
1F80
ENDCHAR
STARTCHAR T
ENCODING 84
SWIDTH 481 0
DWIDTH 13 0
BBX 20 21 0 0
BITMAP
03F010
0FFE10
3CFFF0
70FFE0
70F7C0
E0F000
E1F000
E1F000
E1E000
E1E000
61E000
03E000
03C000
03C000
03C000
03C000
078000
078000
078000
078000
0F8000
ENDCHAR
STARTCHAR U
ENCODING 85
SWIDTH 716 0
DWIDTH 20 0
BBX 21 21 0 0
BITMAP
01F078
0FF078
19E078
71E078
61E0F0
E1E0F0
E3C0F0
C3C0F0
E3C0F0
6381E0
0781E0
0781E0
0781E0
0703C0
0F03C0
0F03C0
0F0780
070780
07FF00
03FE00
01F800
ENDCHAR
STARTCHAR V
ENCODING 86
SWIDTH 615 0
DWIDTH 17 0
BBX 19 21 0 0
BITMAP
01E060
07E060
1DE0C0
31E0C0
71E0C0
61E180
E1E180
E1E100
E1E300
61E300
01E200
01E600
01E600
01E400
01EC00
01E800
01E800
01F800
01F000
01F000
01F000
ENDCHAR
STARTCHAR W
ENCODING 87
SWIDTH 962 0
DWIDTH 27 0
BBX 29 21 0 0
BITMAP
01E07818
07E07830
1DE0F830
31E0F830
71E0F860
61E1F860
E1E1F840
E1E178C0
E1E378C0
61E37880
01E27980
01E67980
01E67900
01E47B00
01EC7B00
01E87A00
01E87E00
01F87C00
01F07C00
01F07C00
01F07800
ENDCHAR
STARTCHAR X
ENCODING 88
SWIDTH 620 0
DWIDTH 17 0
BBX 18 21 0 0
BITMAP
01E1C0
07E180
1DF300
31F300
71F600
60F400
E0FC00
E0F800
E0F800
607800
007800
007800
007C00
00FC00
01BC00
01BC00
033E00
023E00
063E00
041E00
0C1E00
ENDCHAR
STARTCHAR Y
ENCODING 89
SWIDTH 620 0
DWIDTH 17 0
BBX 20 21 0 0
BITMAP
01E070
07E060
1DF040
31F0C0
70F0C0
60F180
E0F980
E0F900
E07B00
607A00
007E00
007C00
003C00
007C00
007C00
007800
007800
007800
00F800
00F800
00F000
ENDCHAR
STARTCHAR Z
ENCODING 90
SWIDTH 542 0
DWIDTH 15 0
BBX 15 21 0 0
BITMAP
0FFE
1FFE
383C
387C
1878
00F8
00F0
01F0
01E0
03E0
03C0
07C0
0780
0F80
0F00
1F00
1E08
3E1C
3C1C
7FF8
FFF0
ENDCHAR
STARTCHAR bracketleft
ENCODING 91
SWIDTH 400 0
DWIDTH 11 0
BBX 12 28 0 -7
BITMAP
03F0
07E0
0700
0700
0700
0600
0E00
0E00
0E00
0E00
1C00
1C00
1C00
1C00
1C00
3800
3800
3800
3800
3000
7000
7000
7000
7000
6000
E000
FC00
FC00
ENDCHAR
STARTCHAR backslash
ENCODING 92
SWIDTH 362 0
DWIDTH 10 0
BBX 8 28 1 -7
BITMAP
C0
E0
60
60
60
60
30
30
30
30
30
18
18
18
18
18
0C
0C
0C
0C
06
06
06
06
06
03
03
03
ENDCHAR
STARTCHAR bracketright
ENCODING 93
SWIDTH 400 0
DWIDTH 11 0
BBX 12 28 -2 -7
BITMAP
03F0
03F0
0070
0060
00E0
00E0
00E0
00E0
00C0
01C0
01C0
01C0
01C0
0380
0380
0380
0380
0380
0700
0700
0700
0700
0600
0E00
0E00
0E00
7E00
FC00
ENDCHAR
STARTCHAR asciicircum
ENCODING 94
SWIDTH 421 0
DWIDTH 12 0
BBX 9 5 1 15
BITMAP
0200
0600
1F00
3B00
E180
ENDCHAR
STARTCHAR underscore
ENCODING 95
SWIDTH 444 0
DWIDTH 12 0
BBX 10 2 1 0
BITMAP
FFC0
FFC0
ENDCHAR
STARTCHAR grave
ENCODING 96
SWIDTH 201 0
DWIDTH 6 0
BBX 3 5 1 15
BITMAP
E0
E0
60
60
20
ENDCHAR
STARTCHAR a
ENCODING 97
SWIDTH 526 0
DWIDTH 15 0
BBX 16 14 0 0
BITMAP
0FF8
1FF8
3C78
7878
78F0
F0F0
F0F0
F0F0
F0F0
F1E1
F1E2
FFFE
FEFC
7870
ENDCHAR
STARTCHAR b
ENCODING 98
SWIDTH 444 0
DWIDTH 12 0
BBX 11 19 0 0
BITMAP
1E00
1E00
3E00
3C00
3C00
3FC0
3FE0
78E0
78E0
7860
78E0
78E0
F0E0
F0E0
F1C0
F1C0
FF80
FF00
7C00
ENDCHAR
STARTCHAR c
ENCODING 99
SWIDTH 384 0
DWIDTH 11 0
BBX 12 14 0 0
BITMAP
0780
1FC0
3CC0
78C0
7880
F800
F000
F000
F000
F030
F060
F8C0
FF80
3E00
ENDCHAR
STARTCHAR d
ENCODING 100
SWIDTH 525 0
DWIDTH 15 0
BBX 16 19 0 0
BITMAP
003E
003C
003C
003C
003C
0FF8
1FF8
3C78
7878
78F0
F0F0
F0F0
F0F0
F0F0
F1E3
F1E2
FEFE
FEFC
7870
ENDCHAR
STARTCHAR e
ENCODING 101
SWIDTH 384 0
DWIDTH 11 0
BBX 12 14 0 0
BITMAP
0780
1FC0
3CC0
78C0
78C0
F1C0
F380
FF00
F800
F010
F060
F8C0
FF80
3E00
ENDCHAR
STARTCHAR f
ENCODING 102
SWIDTH 267 0
DWIDTH 7 0
BBX 17 28 -6 -7
BITMAP
001E00
003F00
007D80
007980
00F000
00F000
00F000
00FC00
00FC00
01F000
01E000
01E000
01E000
01E000
03C000
03C000
03C000
03C000
07C000
078000
078000
1F8000
778000
CF0000
CF0000
CF0000
7E0000
3C0000
ENDCHAR
STARTCHAR g
ENCODING 103
SWIDTH 507 0
DWIDTH 14 0
BBX 15 21 0 -7
BITMAP
0FF8
1FF8
3C78
7878
78F0
F0F0
F0F0
F0F0
F0F0
F1E2
F1E6
FFE4
FFF8
7BF0
07C0
1FC0
33C0
33C0
2780
3F80
1E00
ENDCHAR
STARTCHAR h
ENCODING 104
SWIDTH 505 0
DWIDTH 14 0
BBX 16 19 -1 0
BITMAP
0F00
0F00
1F00
1E00
1E00
1EF0
1FF8
3FF8
3E78
3C78
3C78
3C70
78F0
78F0
78F1
78F3
F8FE
F0FC
F078
ENDCHAR
STARTCHAR i
ENCODING 105
SWIDTH 267 0
DWIDTH 7 0
BBX 9 19 0 0
BITMAP
1C00
1E00
3E00
1C00
0000
3C00
3C00
7800
7800
7800
7800
F800
F000
F000
F180
F100
FE00
FE00
7800
ENDCHAR
STARTCHAR j
ENCODING 106
SWIDTH 240 0
DWIDTH 7 0
BBX 14 26 -6 -7
BITMAP
0070
00F8
00F8
0070
0000
00F0
00F0
01E0
01E0
01E0
01E0
01E0
03C0
03C0
03C4
03C8
07C8
0790
07E0
0F80
3F80
6700
CF00
CF00
7E00
3C00
ENDCHAR
STARTCHAR k
ENCODING 107
SWIDTH 518 0
DWIDTH 15 0
BBX 17 20 -1 0
BITMAP
008000
0F0000
0F0000
1F0000
1E0000
1E0000
1E1C00
1E3000
3CE000
3D8000
3FF000
3FF000
3CF800
78F800
78F000
78F180
78F100
F8FF00
F0FE00
F07800
ENDCHAR
STARTCHAR l
ENCODING 108
SWIDTH 267 0
DWIDTH 7 0
BBX 9 19 0 0
BITMAP
1E00
1E00
3E00
3C00
3C00
3C00
3C00
7800
7800
7800
7800
7800
F000
F000
F180
F100
FE00
FE00
7800
ENDCHAR
STARTCHAR m
ENCODING 109
SWIDTH 752 0
DWIDTH 21 0
BBX 23 14 -1 0
BITMAP
1EF1E0
1FFFF0
3E7CF0
3C78F0
3C78F0
3C78F0
3CF1E0
78F1E0
78F1E0
78F1E2
78F1E6
F9E1FC
F1E1F8
F1E0F0
ENDCHAR
STARTCHAR n
ENCODING 110
SWIDTH 505 0
DWIDTH 14 0
BBX 16 14 -1 0
BITMAP
1EF0
1FF8
3E78
3C78
3C78
3C78
3C70
78F0
78F0
78F1
78F3
F8FE
F0FC
F078
ENDCHAR
STARTCHAR o
ENCODING 111
SWIDTH 439 0
DWIDTH 12 0
BBX 16 14 0 0
BITMAP
0780
1FC0
3CE0
78E3
78FE
F8F0
F0E0
F0E0
F0C0
F1C0
F180
F380
FF00
3C00
ENDCHAR
STARTCHAR p
ENCODING 112
SWIDTH 468 0
DWIDTH 13 0
BBX 15 22 -3 -7
BITMAP
0780
07BC
07FE
0F9E
0F0E
0F0E
0F1E
1F1E
1E1E
1E1E
1E3C
1E3C
3EF8
3FF8
3DE0
3C00
3C00
7800
7800
7800
7800
8000
ENDCHAR
STARTCHAR q
ENCODING 113
SWIDTH 486 0
DWIDTH 14 0
BBX 13 21 0 -7
BITMAP
0FF8
1FF8
3C78
7878
78F0
F0F0
F0F0
F0F0
F0F0
F1E0
F1E0
FFE0
FFE0
7BE0
03C0
03C0
03C0
03C0
0780
0780
0400
ENDCHAR
STARTCHAR r
ENCODING 114
SWIDTH 376 0
DWIDTH 11 0
BBX 12 14 -1 0
BITMAP
1EE0
1FF0
3E70
3C60
3C00
3C00
3C00
7800
7800
7800
7800
F800
F000
F000
ENDCHAR
STARTCHAR s
ENCODING 115
SWIDTH 382 0
DWIDTH 11 0
BBX 13 15 -1 0
BITMAP
0080
0780
0F80
0F80
0F80
1F80
17C0
37C0
23C0
63C0
F3D8
C3E0
C7C0
7F00
3E00
ENDCHAR
STARTCHAR t
ENCODING 116
SWIDTH 267 0
DWIDTH 7 0
BBX 8 18 0 0
BITMAP
1E
3C
3C
3C
7F
7E
7C
78
78
78
78
F0
F0
F1
F1
FE
FE
78
ENDCHAR
STARTCHAR u
ENCODING 117
SWIDTH 505 0
DWIDTH 14 0
BBX 15 14 0 0
BITMAP
3C78
3CF8
78F0
78F0
78F0
78F0
F9E0
F1E0
F1E0
F1E2
F3E6
FFFC
FDF8
78F0
ENDCHAR
STARTCHAR v
ENCODING 118
SWIDTH 414 0
DWIDTH 12 0
BBX 11 14 0 0
BITMAP
3CE0
3CE0
78E0
7860
7860
7860
F860
F0C0
F0C0
F180
F180
FF00
FE00
7C00
ENDCHAR
STARTCHAR w
ENCODING 119
SWIDTH 661 0
DWIDTH 19 0
BBX 18 14 0 0
BITMAP
3C79C0
3CF9C0
78F1C0
78F0C0
78F0C0
78F0C0
F9E080
F1E180
F1E180
F1E300
F3E700
FFFE00
FDFC00
78F800
ENDCHAR
STARTCHAR x
ENCODING 120
SWIDTH 522 0
DWIDTH 15 0
BBX 16 15 0 0
BITMAP
0018
071C
1F9C
33CC
23D8
43F0
43E0
43C0
83C0
87C0
05C3
0DE2
19FC
30FC
6070
ENDCHAR
STARTCHAR y
ENCODING 121
SWIDTH 486 0
DWIDTH 14 0
BBX 15 21 0 -7
BITMAP
3C78
3CF8
78F0
78F0
78F0
78F0
F9E0
F1E0
F1E0
F1E6
F3E4
FFCC
FFD8
7BE0
0FC0
1BC0
3780
6780
6F80
7F00
3E00
ENDCHAR
STARTCHAR z
ENCODING 122
SWIDTH 428 0
DWIDTH 12 0
BBX 12 14 0 0
BITMAP
1FF0
3FE0
31E0
33C0
0380
0780
0F00
0F00
1E00
1E00
3CE0
7CE0
7FC0
FF80
ENDCHAR
STARTCHAR braceleft
ENCODING 123
SWIDTH 352 0
DWIDTH 10 0
BBX 10 28 1 -7
BITMAP
03C0
07C0
0700
0E00
0E00
0E00
0E00
1E00
1C00
1C00
1C00
1C00
1C00
7800
F000
3800
3800
3800
3800
3000
7000
7000
7000
F000
F000
F000
7800
3800
ENDCHAR
STARTCHAR bar
ENCODING 124
SWIDTH 532 0
DWIDTH 15 0
BBX 3 28 6 -7
BITMAP
E0
E0
E0
E0
E0
E0
E0
E0
E0
E0
E0
E0
E0
E0
E0
E0
E0
E0
E0
E0
E0
E0
E0
E0
E0
E0
E0
E0
ENDCHAR
STARTCHAR braceright
ENCODING 125
SWIDTH 352 0
DWIDTH 10 0
BBX 10 28 -2 -7
BITMAP
0700
07C0
03C0
01C0
01C0
01C0
0380
0380
0380
0380
0700
0700
0700
03C0
03C0
0700
0E00
0E00
0E00
0E00
0E00
0E00
0E00
1C00
1C00
1C00
F800
F000
ENDCHAR
STARTCHAR asciitilde
ENCODING 126
SWIDTH 431 0
DWIDTH 12 0
BBX 12 3 1 16
BITMAP
1F10
7FE0
8780
ENDCHAR
STARTCHAR uni00A0
ENCODING 160
SWIDTH 217 0
DWIDTH 6 0
BBX 1 1 0 0
BITMAP
00
ENDCHAR
STARTCHAR exclamdown
ENCODING 161
SWIDTH 219 0
DWIDTH 6 0
BBX 9 20 -2 -6
BITMAP
0700
0F00
0F80
0700
0000
0000
0E00
0C00
0C00
1C00
1C00
1C00
3C00
3C00
3800
3800
7800
7800
7800
F800
ENDCHAR
STARTCHAR cent
ENCODING 162
SWIDTH 384 0
DWIDTH 11 0
BBX 12 20 0 0
BITMAP
0080
0180
0180
03E0
0F70
1B70
3B60
7260
7200
F600
F600
F400
F400
F440
7CC0
3F80
1F00
0800
1800
1800
ENDCHAR
STARTCHAR sterling
ENCODING 163
SWIDTH 455 0
DWIDTH 13 0
BBX 14 21 0 0
BITMAP
00F8
01FC
03CC
078C
079C
0780
0700
0F00
0F00
7FF0
7FE0
1E00
1E00
1E00
1E00
1C00
3C00
3F0C
7FFC
FFF8
81F0
ENDCHAR
STARTCHAR currency
ENCODING 164
SWIDTH 500 0
DWIDTH 14 0
BBX 10 10 2 5
BITMAP
8040
DEC0
7F80
6180
4080
4080
6080
6180
7F80
CCC0
ENDCHAR
STARTCHAR yen
ENCODING 165
SWIDTH 558 0
DWIDTH 16 0
BBX 14 21 2 0
BITMAP
7C0C
7C08
3C18
3C18
3E30
3E30
1E20
1E60
1F40
1FC0
0FC0
0F80
0F80
7FF0
0F00
7FF0
FFE0
1F00
1E00
1E00
3E00
ENDCHAR
STARTCHAR brokenbar
ENCODING 166
SWIDTH 532 0
DWIDTH 15 0
BBX 3 28 6 -7
BITMAP
E0
E0
E0
E0
E0
E0
E0
E0
E0
E0
E0
E0
00
00
00
E0
E0
E0
E0
E0
E0
E0
E0
E0
E0
E0
E0
E0
ENDCHAR
STARTCHAR section
ENCODING 167
SWIDTH 542 0
DWIDTH 15 0
BBX 15 22 0 -1
BITMAP
00F8
01CC
0386
0786
078C
0780
0FC0
1FE0
19F0
3CF8
3E7C
1F3C
0F9C
07DC
03DC
31F8
79F0
E1E0
E1E0
E1C0
73C0
3F00
ENDCHAR
STARTCHAR dieresis
ENCODING 168
SWIDTH 392 0
DWIDTH 11 0
BBX 8 3 2 16
BITMAP
E7
E7
E7
ENDCHAR
STARTCHAR copyright
ENCODING 169
SWIDTH 587 0
DWIDTH 16 0
BBX 14 14 1 2
BITMAP
07C0
1860
3010
6788
4FCC
4864
D804
D804
4844
4FEC
6788
3010
1860
07C0
ENDCHAR
STARTCHAR ordfeminine
ENCODING 170
SWIDTH 345 0
DWIDTH 10 0
BBX 8 8 1 12
BITMAP
3F
77
66
E6
C6
CE
FF
66
ENDCHAR
STARTCHAR guillemotleft
ENCODING 171
SWIDTH 589 0
DWIDTH 16 0
BBX 14 9 1 3
BITMAP
0104
071C
1C70
71C0
C300
E780
38E0
1E78
0618
ENDCHAR
STARTCHAR logicalnot
ENCODING 172
SWIDTH 444 0
DWIDTH 12 0
BBX 10 6 1 2
BITMAP
FFC0
FFC0
03C0
0380
0380
0380
ENDCHAR
STARTCHAR uni00AD
ENCODING 173
SWIDTH 290 0
DWIDTH 8 0
BBX 6 2 1 6
BITMAP
FC
F8
ENDCHAR
STARTCHAR registered
ENCODING 174
SWIDTH 553 0
DWIDTH 15 0
BBX 14 14 1 2
BITMAP
0F80
3860
6030
4F98
C8C8
8848
8F8C
8988
8888
C8C8
4858
2030
1860
0F80
ENDCHAR
STARTCHAR macron
ENCODING 175
SWIDTH 446 0
DWIDTH 12 0
BBX 9 2 2 16
BITMAP
FF80
FF80
ENDCHAR
STARTCHAR degree
ENCODING 176
SWIDTH 314 0
DWIDTH 9 0
BBX 7 9 1 10
BITMAP
1C
76
66
C6
C6
C4
CC
C8
70
ENDCHAR
STARTCHAR plusminus
ENCODING 177
SWIDTH 479 0
DWIDTH 13 0
BBX 11 14 1 3
BITMAP
0300
0300
0700
0700
7FE0
7FE0
0600
0E00
0C00
0C00
0C00
0000
FFC0
FFC0
ENDCHAR
STARTCHAR uni00B2
ENCODING 178
SWIDTH 328 0
DWIDTH 9 0
BBX 8 12 1 9
BITMAP
1E
27
67
37
06
0C
18
30
60
71
FE
84
ENDCHAR
STARTCHAR uni00B3
ENCODING 179
SWIDTH 336 0
DWIDTH 9 0
BBX 8 12 1 9
BITMAP
1E
33
33
33
06
1C
06
67
E7
C7
46
3C
ENDCHAR
STARTCHAR acute
ENCODING 180
SWIDTH 316 0
DWIDTH 9 0
BBX 6 5 3 15
BITMAP
1C
38
30
60
C0
ENDCHAR
STARTCHAR uni00B5
ENCODING 181
SWIDTH 505 0
DWIDTH 14 0
BBX 17 19 -2 -5
BITMAP
0F1E00
0F3E00
1E3C00
1E3C00
1E3C00
1E3C00
1E7800
3C7800
3C7800
3C7880
3CF980
7FFF00
7F7E00
7E3C00
780000
780000
F00000
F00000
800000
ENDCHAR
STARTCHAR paragraph
ENCODING 182
SWIDTH 542 0
DWIDTH 15 0
BBX 12 23 2 -2
BITMAP
0FC0
1FE0
3FB0
7FB0
FFB0
FF70
FF70
FF70
FF70
FF60
7EE0
3FE0
1EE0
0EC0
0CC0
0DC0
1DC0
1DC0
1D80
1980
1B80
3B80
3B80
ENDCHAR
STARTCHAR periodcentered
ENCODING 183
SWIDTH 434 0
DWIDTH 12 0
BBX 6 5 3 5
BITMAP
78
7C
FC
7C
78
ENDCHAR
STARTCHAR cedilla
ENCODING 184
SWIDTH 227 0
DWIDTH 6 0
BBX 7 7 0 -6
BITMAP
10
30
28
3C
4E
8C
78
ENDCHAR
STARTCHAR uni00B9
ENCODING 185
SWIDTH 229 0
DWIDTH 6 0
BBX 5 12 1 8
BITMAP
18
F8
78
30
30
30
70
70
60
60
E0
E0
ENDCHAR
STARTCHAR ordmasculine
ENCODING 186
SWIDTH 329 0
DWIDTH 9 0
BBX 7 9 1 12
BITMAP
1C
74
66
E4
C4
C4
CC
F8
70
ENDCHAR
STARTCHAR guillemotright
ENCODING 187
SWIDTH 586 0
DWIDTH 16 0
BBX 15 9 0 3
BITMAP
2080
38E0
0C38
071C
0186
038E
1E38
79E0
C100
ENDCHAR
STARTCHAR onequarter
ENCODING 188
SWIDTH 749 0
DWIDTH 21 0
BBX 20 21 1 0
BITMAP
000700
180600
F80C00
780C00
301800
301800
303000
703000
706000
60C000
60C770
E18360
E18360
0306E0
0306E0
060CC0
060FE0
0C00C0
1801C0
1801C0
300180
ENDCHAR
STARTCHAR onehalf
ENCODING 189
SWIDTH 745 0
DWIDTH 21 0
BBX 20 21 1 0
BITMAP
000700
180600
F80C00
780C00
301800
301800
303000
703000
706000
60C000
60C3C0
E18660
E18670
030660
0300E0
0600C0
060180
0C0300
180400
180FE0
300FE0
ENDCHAR
STARTCHAR threequarters
ENCODING 190
SWIDTH 836 0
DWIDTH 23 0
BBX 22 21 1 0
BITMAP
1E00C0
330180
330180
330300
060300
1C0600
060600
670C00
E71800
C71800
4630CC
3C30DC
0060DC
0060D8
00C198
00C138
0183FC
030030
030030
060030
0E0070
ENDCHAR
STARTCHAR questiondown
ENCODING 191
SWIDTH 439 0
DWIDTH 12 0
BBX 10 21 0 -7
BITMAP
01C0
03C0
03C0
01C0
0000
0000
0180
0180
0300
0300
0600
0C00
3C00
7800
F3C0
F1C0
F1C0
F1C0
F1C0
FF80
3E00
ENDCHAR
STARTCHAR Agrave
ENCODING 192
SWIDTH 668 0
DWIDTH 19 0
BBX 19 30 0 -3
BITMAP
000380
000380
000380
000180
000180
000000
0001E0
0007E0
000DE0
0019E0
0033E0
0073C0
0063C0
00E3C0
07C3C0
3FFF80
738F80
E38780
F70780
070780
0F0F00
0E0F00
1E0F00
1E0F00
1C1F00
1C1E00
3C1E00
3C0000
1C0000
1C0000
ENDCHAR
STARTCHAR Aacute
ENCODING 193
SWIDTH 668 0
DWIDTH 19 0
BBX 22 31 0 -3
BITMAP
00001C
000038
000030
000070
000060
0000C0
000000
0001E0
0007E0
000DE0
0019E0
0033E0
0073C0
0063C0
00E3C0
07C3C0
3FFF80
738F80
E38780
F70780
070780
0F0F00
0E0F00
1E0F00
1E0F00
1C1F00
1C1E00
3C1E00
3C0000
1C0000
1C0000
ENDCHAR
STARTCHAR Acircumflex
ENCODING 194
SWIDTH 668 0
DWIDTH 19 0
BBX 21 31 0 -3
BITMAP
000010
000030
000070
0000F8
000388
000408
000000
0001E0
0007E0
000DE0
0019E0
0033E0
0073C0
0063C0
00E3C0
07C3C0
3FFF80
738F80
E38780
F70780
070780
0F0F00
0E0F00
1E0F00
1E0F00
1C1F00
1C1E00
3C1E00
3C0000
1C0000
1C0000
ENDCHAR
STARTCHAR Atilde
ENCODING 195
SWIDTH 668 0
DWIDTH 19 0
BBX 23 29 0 -3
BITMAP
000080
0007FE
000FF8
001020
000000
0001E0
0007E0
000DE0
0019E0
0033E0
0073C0
0063C0
00E3C0
07C3C0
3FFF80
738F80
E38780
F70780
070780
0F0F00
0E0F00
1E0F00
1E0F00
1C1F00
1C1E00
3C1E00
3C0000
1C0000
1C0000
ENDCHAR
STARTCHAR Adieresis
ENCODING 196
SWIDTH 668 0
DWIDTH 19 0
BBX 21 29 0 -3
BITMAP
000738
000738
000738
000000
000000
0001E0
0007E0
000DE0
0019E0
0033E0
0073C0
0063C0
00E3C0
07C3C0
3FFF80
738F80
E38780
F70780
070780
0F0F00
0E0F00
1E0F00
1E0F00
1C1F00
1C1E00
3C1E00
3C0000
1C0000
1C0000
ENDCHAR
STARTCHAR Aring
ENCODING 197
SWIDTH 668 0
DWIDTH 19 0
BBX 19 30 0 -3
BITMAP
0000E0
000120
000120
000120
0000C0
000000
0001E0
0007E0
000DE0
0019E0
0033E0
0073C0
0063C0
00E3C0
07C3C0
3FFF80
738F80
E38780
F70780
070780
0F0F00
0E0F00
1E0F00
1E0F00
1C1F00
1C1E00
3C1E00
3C0000
1C0000
1C0000
ENDCHAR
STARTCHAR AE
ENCODING 198
SWIDTH 764 0
DWIDTH 21 0
BBX 25 24 0 -3
BITMAP
0001E080
0007F080
000DFF80
0019FF80
0033E700
0073E000
0063C000
00C3C000
07C3C000
7FFFFC00
F38FF800
F3878000
67078000
07078000
0E0F0000
0E0F0000
1E0F0000
1E0F0000
1C1FFC00
3C1FFC00
3C1FF800
3C000000
1C000000
1C000000
ENDCHAR
STARTCHAR Ccedilla
ENCODING 199
SWIDTH 497 0
DWIDTH 14 0
BBX 14 27 1 -6
BITMAP
01F0
07F8
0F0C
1E0C
3E1C
3C3C
7C00
7800
F800
F800
F800
F000
F000
F000
F000
F004
F808
F838
FFF0
7FC0
3F00
0400
0780
0980
0180
1980
1E00
ENDCHAR
STARTCHAR Egrave
ENCODING 200
SWIDTH 459 0
DWIDTH 13 0
BBX 14 28 0 0
BITMAP
01C0
00C0
00C0
00E0
0060
0000
0000
01F0
03F8
070C
0F0C
0E1C
0E38
0E00
0F00
0780
0FC0
1E00
3E00
7C00
7800
F800
F80C
F808
FC30
7FF0
7FC0
1F00
ENDCHAR
STARTCHAR Eacute
ENCODING 201
SWIDTH 459 0
DWIDTH 13 0
BBX 15 28 0 0
BITMAP
000E
001C
0038
0030
0070
0000
0000
01F0
03F8
070C
0F0C
0E1C
0E38
0E00
0F00
0780
0FC0
1E00
3E00
7C00
7800
F800
F80C
F808
FC30
7FF0
7FC0
1F00
ENDCHAR
STARTCHAR Ecircumflex
ENCODING 202
SWIDTH 459 0
DWIDTH 13 0
BBX 14 28 0 0
BITMAP
0010
0038
0078
01C8
0304
0000
0000
01F0
03F8
070C
0F0C
0E1C
0E38
0E00
0F00
0780
0FC0
1E00
3E00
7C00
7800
F800
F80C
F808
FC30
7FF0
7FC0
1F00
ENDCHAR
STARTCHAR Edieresis
ENCODING 203
SWIDTH 459 0
DWIDTH 13 0
BBX 15 26 0 0
BITMAP
01CE
01CE
01CE
0000
0000
01F0
03F8
070C
0F0C
0E1C
0E38
0E00
0F00
0780
0FC0
1E00
3E00
7C00
7800
F800
F80C
F808
FC30
7FF0
7FC0
1F00
ENDCHAR
STARTCHAR Igrave
ENCODING 204
SWIDTH 375 0
DWIDTH 11 0
BBX 11 27 0 0
BITMAP
0380
0180
0180
01C0
01C0
0000
01E0
07E0
1DE0
33C0
73C0
63C0
E3C0
E3C0
E780
6780
0780
0780
0F00
0F00
0F00
0F00
0F00
1E00
1E00
1E00
1E00
ENDCHAR
STARTCHAR Iacute
ENCODING 205
SWIDTH 375 0
DWIDTH 11 0
BBX 14 28 0 0
BITMAP
001C
0038
0030
0070
0060
00C0
0000
01E0
07E0
1DE0
33C0
73C0
63C0
E3C0
E3C0
E780
6780
0780
0780
0F00
0F00
0F00
0F00
0F00
1E00
1E00
1E00
1E00
ENDCHAR
STARTCHAR Icircumflex
ENCODING 206
SWIDTH 375 0
DWIDTH 11 0
BBX 13 28 0 0
BITMAP
0020
0030
00F0
01F0
0318
0408
0000
01E0
07E0
1DE0
33C0
73C0
63C0
E3C0
E3C0
E780
6780
0780
0780
0F00
0F00
0F00
0F00
0F00
1E00
1E00
1E00
1E00
ENDCHAR
STARTCHAR Idieresis
ENCODING 207
SWIDTH 375 0
DWIDTH 11 0
BBX 14 26 0 0
BITMAP
0318
07BC
0318
0000
0000
01E0
07E0
1DE0
33C0
73C0
63C0
E3C0
E3C0
E780
6780
0780
0780
0F00
0F00
0F00
0F00
0F00
1E00
1E00
1E00
1E00
ENDCHAR
STARTCHAR Eth
ENCODING 208
SWIDTH 663 0
DWIDTH 19 0
BBX 18 21 0 0
BITMAP
01FC00
0FFF00
1C0780
3BE380
73C3C0
E3C3C0
E3C3C0
E3C3C0
E783C0
6FE3C0
0FE3C0
0783C0
0F0380
0F0780
0F0780
0F0F00
0F0F00
1E1E00
1F3E00
1FFC00
1EF000
ENDCHAR
STARTCHAR Ntilde
ENCODING 209
SWIDTH 686 0
DWIDTH 19 0
BBX 20 26 0 0
BITMAP
001F10
003FE0
004FC0
000000
000000
03E070
0FE070
3DE070
73F060
73F0E0
E3F0E0
E3F0E0
E3F0C0
E778C0
6779C0
1779C0
0679C0
0E3D80
0E3D80
0E3F80
0E3F80
0C1F80
1C1F00
1C1F00
1C1F00
180F00
ENDCHAR
STARTCHAR Ograve
ENCODING 210
SWIDTH 665 0
DWIDTH 19 0
BBX 18 28 0 0
BITMAP
00E000
007000
007000
003000
003000
000000
000000
00FE00
07FF00
0E0380
1CF3C0
31E3C0
73C1C0
6781C0
E781C0
6F83C0
6F03C0
0F03C0
0F03C0
1F03C0
1E0780
1E0780
1E0F00
1E0F00
1E1E00
0F3C00
0FF800
03E000
ENDCHAR
STARTCHAR Oacute
ENCODING 211
SWIDTH 665 0
DWIDTH 19 0
BBX 18 28 0 0
BITMAP
000380
000700
000600
000E00
000C00
001800
000000
00FE00
07FF00
0E0380
1CF3C0
31E3C0
73C1C0
6781C0
E781C0
6F83C0
6F03C0
0F03C0
0F03C0
1F03C0
1E0780
1E0780
1E0F00
1E0F00
1E1E00
0F3C00
0FF800
03E000
ENDCHAR
STARTCHAR Ocircumflex
ENCODING 212
SWIDTH 665 0
DWIDTH 19 0
BBX 18 28 0 0
BITMAP
000400
000C00
001E00
003E00
006200
008100
000000
00FE00
07FF00
0E0380
1CF3C0
31E3C0
73C1C0
6781C0
E781C0
6F83C0
6F03C0
0F03C0
0F03C0
1F03C0
1E0780
1E0780
1E0F00
1E0F00
1E1E00
0F3C00
0FF800
03E000
ENDCHAR
STARTCHAR Otilde
ENCODING 213
SWIDTH 665 0
DWIDTH 19 0
BBX 19 26 0 0
BITMAP
003E20
007FC0
00FF80
000200
000000
00FE00
07FF00
0E0380
1CF3C0
31E3C0
73C1C0
6781C0
E781C0
6F83C0
6F03C0
0F03C0
0F03C0
1F03C0
1E0780
1E0780
1E0F00
1E0F00
1E1E00
0F3C00
0FF800
03E000
ENDCHAR
STARTCHAR Odieresis
ENCODING 214
SWIDTH 665 0
DWIDTH 19 0
BBX 18 26 0 0
BITMAP
00E300
00E780
00E300
000000
000000
00FE00
07FF00
0E0380
1CF3C0
31E3C0
73C1C0
6781C0
E781C0
6F83C0
6F03C0
0F03C0
0F03C0
1F03C0
1E0780
1E0780
1E0F00
1E0F00
1E1E00
0F3C00
0FF800
03E000
ENDCHAR
STARTCHAR multiply
ENCODING 215
SWIDTH 414 0
DWIDTH 12 0
BBX 9 9 1 5
BITMAP
4100
E380
7700
3E00
1C00
3E00
7700
E380
4100
ENDCHAR
STARTCHAR Oslash
ENCODING 216
SWIDTH 658 0
DWIDTH 18 0
BBX 18 23 0 -2
BITMAP
000C00
000C00
01FC00
070F00
1CFB80
31DB80
739380
6793C0
E733C0
6F33C0
2F33C0
0F2380
1E2780
1E6780
1E6780
1E4F00
1E4E00
1E5E00
1FFC00
0FF800
07E000
008000
018000
ENDCHAR
STARTCHAR Ugrave
ENCODING 217
SWIDTH 716 0
DWIDTH 20 0
BBX 21 28 0 0
BITMAP
001C00
000E00
000E00
000E00
000600
000000
000000
01F078
0FE078
19E078
31E0F0
61E0F0
E3C0F0
E3C0F0
C3C0F0
C3C1E0
6781E0
0781E0
0781E0
0783C0
0F03C0
0F03C0
0F0780
0F0780
0F0F80
0FFF00
07FE00
03F800
ENDCHAR
STARTCHAR Uacute
ENCODING 218
SWIDTH 716 0
DWIDTH 20 0
BBX 21 28 0 0
BITMAP
0001C0
000180
000380
000700
000600
000E00
000000
01F078
0FE078
19E078
31E0F0
61E0F0
E3C0F0
E3C0F0
C3C0F0
C3C1E0
6781E0
0781E0
0781E0
0783C0
0F03C0
0F03C0
0F0780
0F0780
0F0F80
0FFF00
07FE00
03F800
ENDCHAR
STARTCHAR Ucircumflex
ENCODING 219
SWIDTH 716 0
DWIDTH 20 0
BBX 21 28 0 0
BITMAP
000080
000180
000380
000EC0
001840
002040
000000
01F078
0FE078
19E078
31E0F0
61E0F0
E3C0F0
E3C0F0
C3C0F0
C3C1E0
6781E0
0781E0
0781E0
0783C0
0F03C0
0F03C0
0F0780
0F0780
0F0F80
0FFF00
07FE00
03F800
ENDCHAR
STARTCHAR Udieresis
ENCODING 220
SWIDTH 716 0
DWIDTH 20 0
BBX 21 26 0 0
BITMAP
001CE0
001CE0
001CE0
000000
000000
01F078
0FE078
19E078
31E0F0
61E0F0
E3C0F0
E3C0F0
C3C0F0
C3C1E0
6781E0
0781E0
0781E0
0783C0
0F03C0
0F03C0
0F0780
0F0780
0F0F80
0FFF00
07FE00
03F800
ENDCHAR
STARTCHAR Yacute
ENCODING 221
SWIDTH 620 0
DWIDTH 17 0
BBX 20 28 0 0
BITMAP
0000E0
0000E0
0001C0
000180
000380
000300
000000
01E070
07E060
1DF040
31F0C0
70F0C0
60F180
E0F980
E0F900
E07B00
607A00
007E00
007C00
003C00
007C00
007C00
007800
007800
007800
00F800
00F800
00F000
ENDCHAR
STARTCHAR Thorn
ENCODING 222
SWIDTH 583 0
DWIDTH 16 0
BBX 17 20 0 0
BITMAP
01E000
01E000
03E000
03FC00
0FCE00
33C700
73C700
678780
E78780
E78700
E78700
6F8E00
0F1E00
0F3800
0FF000
0F0000
1E0000
1E0000
1E0000
1E0000
ENDCHAR
STARTCHAR germandbls
ENCODING 223
SWIDTH 480 0
DWIDTH 13 0
BBX 14 26 -2 -7
BITMAP
00F0
03F8
039C
079C
0718
0F18
0F38
0F30
1E20
1E70
1E38
1E3C
1E1C
3C1C
3C1C
3C1C
3C3C
7BF8
79E0
7800
7800
7800
F000
F000
F000
8000
ENDCHAR
STARTCHAR agrave
ENCODING 224
SWIDTH 526 0
DWIDTH 15 0
BBX 16 21 0 0
BITMAP
0380
0180
0180
01C0
00C0
0000
0000
0FF8
1FF8
3C78
7878
78F0
F0F0
F0F0
F0F0
F0F0
F1E1
F1E2
FFFE
FEFC
7870
ENDCHAR
STARTCHAR aacute
ENCODING 225
SWIDTH 526 0
DWIDTH 15 0
BBX 16 21 0 0
BITMAP
0070
0060
00E0
00C0
01C0
0000
0000
0FF8
1FF8
3C78
7878
78F0
F0F0
F0F0
F0F0
F0F0
F1E1
F1E2
FFFE
FEFC
7870
ENDCHAR
STARTCHAR acircumflex
ENCODING 226
SWIDTH 526 0
DWIDTH 15 0
BBX 16 21 0 0
BITMAP
0020
0060
00F0
03B0
0610
0808
0000
0FF8
1FF8
3C78
7878
78F0
F0F0
F0F0
F0F0
F0F0
F1E1
F1E2
FFFE
FEFC
7870
ENDCHAR
STARTCHAR atilde
ENCODING 227
SWIDTH 526 0
DWIDTH 15 0
BBX 16 19 0 0
BITMAP
03C2
0FFC
10F0
0000
0000
0FF8
1FF8
3C78
7878
78F0
F0F0
F0F0
F0F0
F0F0
F1E1
F1E2
FFFE
FEFC
7870
ENDCHAR
STARTCHAR adieresis
ENCODING 228
SWIDTH 526 0
DWIDTH 15 0
BBX 16 19 0 0
BITMAP
0718
073C
0718
0000
0000
0FF8
1FF8
3C78
7878
78F0
F0F0
F0F0
F0F0
F0F0
F1E1
F1E2
FFFE
FEFC
7870
ENDCHAR
STARTCHAR aring
ENCODING 229
SWIDTH 526 0
DWIDTH 15 0
BBX 16 19 0 0
BITMAP
01C0
0120
0120
01C0
0000
0FF8
1FF8
3C78
7878
78F0
F0F0
F0F0
F0F0
F0F0
F1E1
F1E2
FFFE
FEFC
7870
ENDCHAR
STARTCHAR ae
ENCODING 230
SWIDTH 650 0
DWIDTH 18 0
BBX 19 14 0 0
BITMAP
0FCF80
1FFF80
30FCC0
00F9C0
00F180
00F380
1FF700
7FFE00
F1F800
F1E020
F3E040
FFF080
FEFF00
787C00
ENDCHAR
STARTCHAR ccedilla
ENCODING 231
SWIDTH 384 0
DWIDTH 11 0
BBX 12 20 0 -6
BITMAP
0780
1FC0
3CC0
78C0
78C0
F800
F000
F000
F000
F030
F060
F0C0
FF80
3E00
0400
0800
0F80
0300
1300
3E00
ENDCHAR
STARTCHAR egrave
ENCODING 232
SWIDTH 384 0
DWIDTH 11 0
BBX 12 21 0 0
BITMAP
0E00
0700
0700
0300
0300
0000
0000
0780
1FC0
3CC0
78C0
78C0
F1C0
F380
FF00
F800
F010
F060
F8C0
FF80
3E00
ENDCHAR
STARTCHAR eacute
ENCODING 233
SWIDTH 384 0
DWIDTH 11 0
BBX 12 21 0 0
BITMAP
0070
00E0
00C0
01C0
0180
0300
0000
0780
1FC0
3CC0
78C0
78C0
F1C0
F380
FF00
F800
F010
F060
F8C0
FF80
3E00
ENDCHAR
STARTCHAR ecircumflex
ENCODING 234
SWIDTH 384 0
DWIDTH 11 0
BBX 12 21 0 0
BITMAP
00C0
01C0
03C0
0760
0C20
1020
0000
0780
1FC0
3CC0
78C0
78C0
F1C0
F380
FF00
F800
F010
F060
F8C0
FF80
3E00
ENDCHAR
STARTCHAR edieresis
ENCODING 235
SWIDTH 384 0
DWIDTH 11 0
BBX 12 19 0 0
BITMAP
0C60
1EF0
0C60
0000
0000
0780
1FC0
3CC0
78C0
78C0
F1C0
F380
FF00
F800
F010
F060
F8C0
FF80
3E00
ENDCHAR
STARTCHAR igrave
ENCODING 236
SWIDTH 267 0
DWIDTH 7 0
BBX 9 21 0 0
BITMAP
3800
3800
3800
1800
1800
0000
0000
3C00
3C00
7800
7800
7800
7800
F800
F000
F000
F180
F100
FE00
FE00
7800
ENDCHAR
STARTCHAR iacute
ENCODING 237
SWIDTH 267 0
DWIDTH 7 0
BBX 9 21 0 0
BITMAP
0780
0700
0E00
0C00
1C00
0000
0000
3C00
3C00
7800
7800
7800
7800
F800
F000
F000
F180
F100
FE00
FE00
7800
ENDCHAR
STARTCHAR icircumflex
ENCODING 238
SWIDTH 267 0
DWIDTH 7 0
BBX 9 21 0 0
BITMAP
0600
0E00
1E00
3B00
6100
8000
0000
3C00
3C00
7800
7800
7800
7800
F800
F000
F000
F180
F100
FE00
FE00
7800
ENDCHAR
STARTCHAR idieresis
ENCODING 239
SWIDTH 267 0
DWIDTH 7 0
BBX 9 19 0 0
BITMAP
6300
F780
6300
0000
0000
3C00
3C00
7800
7800
7800
7800
F800
F000
F000
F180
F100
FE00
FE00
7800
ENDCHAR
STARTCHAR eth
ENCODING 240
SWIDTH 526 0
DWIDTH 15 0
BBX 16 21 0 0
BITMAP
0040
00E2
00FE
01F8
03F8
0078
0078
0FF8
1FF8
3C78
7878
78F8
F0F0
F0F0
F0F0
F0F0
F1E3
F1E2
FEFE
FEFC
7870
ENDCHAR
STARTCHAR ntilde
ENCODING 241
SWIDTH 505 0
DWIDTH 14 0
BBX 16 19 -1 0
BITMAP
0082
07FC
0FF8
1020
0000
1EF0
1FF8
3E78
3C78
3C78
3C78
3C70
78F0
78F0
78F1
78F3
F8FE
F0FC
F078
ENDCHAR
STARTCHAR ograve
ENCODING 242
SWIDTH 433 0
DWIDTH 12 0
BBX 17 21 -1 0
BITMAP
038000
038000
018000
01C000
01C000
000000
000000
03C000
0FE000
1E6000
3C7180
3C7E00
787800
787000
786000
F86000
F8E000
F8C000
79C000
7F8000
3E0000
ENDCHAR
STARTCHAR oacute
ENCODING 243
SWIDTH 439 0
DWIDTH 12 0
BBX 16 21 0 0
BITMAP
0070
00E0
00C0
01C0
0180
0300
0000
0780
1FC0
3CE0
78E3
78FE
F8F0
F0E0
F0E0
F0C0
F1C0
F180
F380
FF00
3C00
ENDCHAR
STARTCHAR ocircumflex
ENCODING 244
SWIDTH 433 0
DWIDTH 12 0
BBX 17 21 -1 0
BITMAP
004000
00E000
01E000
03E000
063000
081000
000000
03C000
0FE000
1E6000
3C7180
3C7E00
787800
787000
786000
F86000
F8E000
F8C000
79C000
7F8000
3E0000
ENDCHAR
STARTCHAR otilde
ENCODING 245
SWIDTH 433 0
DWIDTH 12 0
BBX 17 19 -1 0
BITMAP
0F8400
1FF800
23E000
000000
000000
03C000
0FE000
1E6000
3C7180
3C7E00
787800
787000
786000
F86000
F8E000
F8C000
79C000
7F8000
3E0000
ENDCHAR
STARTCHAR odieresis
ENCODING 246
SWIDTH 433 0
DWIDTH 12 0
BBX 17 19 -1 0
BITMAP
0E7000
0E7000
0E7000
000000
000000
03C000
0FE000
1E6000
3C7180
3C7E00
787800
787000
786000
F86000
F8E000
F8C000
79C000
7F8000
3E0000
ENDCHAR
STARTCHAR divide
ENCODING 247
SWIDTH 415 0
DWIDTH 12 0
BBX 10 14 1 2
BITMAP
0700
0F00
0F00
0700
0000
0000
FFC0
FFC0
0000
0000
1C00
3E00
3E00
1C00
ENDCHAR
STARTCHAR oslash
ENCODING 248
SWIDTH 428 0
DWIDTH 12 0
BBX 15 15 -2 -1
BITMAP
01E6
07F4
0F38
1E18
1E38
3C78
3CF8
3DB8
3F30
3E70
3CE0
3FE0
1FC0
2F00
E000
ENDCHAR
STARTCHAR ugrave
ENCODING 249
SWIDTH 505 0
DWIDTH 14 0
BBX 15 21 0 0
BITMAP
0700
0300
0380
0380
0180
0000
0000
3C78
3CF8
78F0
78F0
78F0
78F0
F9E0
F1E0
F1E0
F1E2
F3E6
FFFC
FDF8
78F0
ENDCHAR
STARTCHAR uacute
ENCODING 250
SWIDTH 505 0
DWIDTH 14 0
BBX 15 21 0 0
BITMAP
0070
0060
00E0
00C0
0180
0000
0000
3C78
3CF8
78F0
78F0
78F0
78F0
F9E0
F1E0
F1E0
F1E2
F3E6
FFFC
FDF8
78F0
ENDCHAR
STARTCHAR ucircumflex
ENCODING 251
SWIDTH 505 0
DWIDTH 14 0
BBX 15 21 0 0
BITMAP
0040
00E0
01E0
0360
0C30
0000
0000
3C78
3CF8
78F0
78F0
78F0
78F0
F9E0
F1E0
F1E0
F1E2
F3E6
FFFC
FDF8
78F0
ENDCHAR
STARTCHAR udieresis
ENCODING 252
SWIDTH 505 0
DWIDTH 14 0
BBX 15 19 0 0
BITMAP
0E70
0E70
0E70
0000
0000
3C78
3CF8
78F0
78F0
78F0
78F0
F9E0
F1E0
F1E0
F1E2
F3E6
FFFC
FDF8
78F0
ENDCHAR
STARTCHAR yacute
ENCODING 253
SWIDTH 505 0
DWIDTH 14 0
BBX 15 28 0 -7
BITMAP
0070
00E0
00E0
00C0
0180
0000
0000
3C78
3CF8
78F0
78F0
78F0
78F0
F9E0
F1E0
F1E0
F1E6
F3E4
FFCC
FFD8
7BE0
0FC0
1BC0
3780
6780
6F80
7F00
3E00
ENDCHAR
STARTCHAR thorn
ENCODING 254
SWIDTH 473 0
DWIDTH 13 0
BBX 15 28 -3 -7
BITMAP
00C0
03C0
03C0
03C0
0780
0780
0780
07BC
07FE
0F9E
0F0E
0F0E
0F1E
0F1E
1E1E
1E1E
1E3C
1E3C
3C78
3FF0
3DE0
3C00
3C00
7800
7800
7800
7800
8000
ENDCHAR
STARTCHAR ydieresis
ENCODING 255
SWIDTH 505 0
DWIDTH 14 0
BBX 15 26 0 -7
BITMAP
0C60
1EF0
0C60
0000
0000
3C78
3CF8
78F0
78F0
78F0
78F0
F9E0
F1E0
F1E0
F1E6
F3E4
FFCC
FFD8
7BE0
0FC0
1BC0
3780
6780
6F80
7F00
3E00
ENDCHAR
STARTCHAR Amacron
ENCODING 256
SWIDTH 668 0
DWIDTH 19 0
BBX 22 28 0 -3
BITMAP
0007FC
000FFC
000000
000000
0001E0
0007E0
000DE0
0019E0
0033E0
0073C0
0063C0
00E3C0
07C3C0
3FFF80
738F80
E38780
F70780
070780
0F0F00
0E0F00
1E0F00
1E0F00
1C1F00
1C1E00
3C1E00
3C0000
1C0000
1C0000
ENDCHAR
STARTCHAR amacron
ENCODING 257
SWIDTH 526 0
DWIDTH 15 0
BBX 16 19 0 0
BITMAP
07FC
07FC
0000
0000
0000
0FF8
1FF8
3C78
7878
78F0
F0F0
F0F0
F0F0
F0F0
F1E1
F1E2
FFFE
FEFC
7870
ENDCHAR
STARTCHAR Abreve
ENCODING 258
SWIDTH 668 0
DWIDTH 19 0
BBX 23 30 0 -3
BITMAP
000606
00070E
00071C
0003F8
000040
000000
0001E0
0007E0
000DE0
0019E0
0033E0
0073C0
0063C0
00E3C0
07C3C0
3FFF80
738F80
E38780
F70780
070780
0F0F00
0E0F00
1E0F00
1E0F00
1C1F00
1C1E00
3C1E00
3C0000
1C0000
1C0000
ENDCHAR
STARTCHAR abreve
ENCODING 259
SWIDTH 526 0
DWIDTH 15 0
BBX 16 20 0 0
BITMAP
0E0C
0E1C
07F8
01C0
0000
0000
0FF8
1FF8
3C78
7878
78F0
F0F0
F0F0
F0F0
F0F0
F1E1
F1E2
FFFE
FEFC
7870
ENDCHAR
STARTCHAR Aogonek
ENCODING 260
SWIDTH 668 0
DWIDTH 19 0
BBX 19 26 0 -5
BITMAP
0001E0
0007E0
000DE0
0019E0
0033E0
0073C0
0063C0
00E3C0
07C3C0
3FFF80
738F80
E38780
F70780
070780
0E0F00
0E0F00
1E0F00
1E0F00
1C1F00
3C1E00
3C1E00
3C1800
1C1800
0C3100
003E00
001C00
ENDCHAR
STARTCHAR aogonek
ENCODING 261
SWIDTH 526 0
DWIDTH 15 0
BBX 16 19 0 -5
BITMAP
0FF8
1FF8
3C78
7878
78F0
F0F0
F0F0
F0F0
F0F0
F1E3
F1E2
FEFC
FCFC
7870
0060
00C0
00C4
00F8
0070
ENDCHAR
STARTCHAR Cacute
ENCODING 262
SWIDTH 497 0
DWIDTH 14 0
BBX 14 28 1 0
BITMAP
001C
0038
0030
0070
00E0
0000
0000
03F0
07F8
0F0C
1E0C
3E1C
3C3C
7C00
7800
F800
F800
F800
F000
F000
F000
F000
F004
F808
F838
FFF0
7FE0
1F80
ENDCHAR
STARTCHAR cacute
ENCODING 263
SWIDTH 384 0
DWIDTH 11 0
BBX 12 21 0 0
BITMAP
0070
0060
00E0
00C0
01C0
0180
0000
0780
1FC0
3CC0
78C0
7880
F800
F000
F000
F000
F030
F060
F8C0
FF80
3E00
ENDCHAR
STARTCHAR Ccircumflex
ENCODING 264
SWIDTH 497 0
DWIDTH 14 0
BBX 14 28 1 0
BITMAP
0020
0070
00F0
0390
0608
0000
0000
03F0
07F8
0F0C
1E0C
3E1C
3C3C
7C00
7800
F800
F800
F800
F000
F000
F000
F000
F004
F808
F838
FFF0
7FE0
1F80
ENDCHAR
STARTCHAR ccircumflex
ENCODING 265
SWIDTH 384 0
DWIDTH 11 0
BBX 12 21 0 0
BITMAP
00C0
01C0
03C0
0760
0C20
1020
0000
0780
1FC0
3CC0
78C0
7880
F800
F000
F000
F000
F030
F060
F8C0
FF80
3E00
ENDCHAR
STARTCHAR Cdotaccent
ENCODING 266
SWIDTH 497 0
DWIDTH 14 0
BBX 14 27 1 0
BITMAP
0038
007C
007C
0038
0000
0000
03F0
07F8
0F0C
1E0C
3E1C
3C3C
7C00
7800
F800
F800
F800
F000
F000
F000
F000
F004
F808
F838
FFF0
7FE0
1F80
ENDCHAR
STARTCHAR cdotaccent
ENCODING 267
SWIDTH 384 0
DWIDTH 11 0
BBX 12 21 0 0
BITMAP
01C0
03C0
03E0
01C0
0000
0000
0000
0780
1FC0
3CC0
78C0
7880
F800
F000
F000
F000
F030
F060
F8C0
FF80
3E00
ENDCHAR
STARTCHAR Ccaron
ENCODING 268
SWIDTH 497 0
DWIDTH 14 0
BBX 15 28 1 0
BITMAP
0106
009C
00F0
00E0
0040
0000
0000
03F0
07F8
0F0C
1E0C
3E1C
3C3C
7C00
7800
F800
F800
F800
F000
F000
F000
F000
F004
F808
F838
FFF0
7FE0
1F80
ENDCHAR
STARTCHAR ccaron
ENCODING 269
SWIDTH 384 0
DWIDTH 11 0
BBX 14 21 0 0
BITMAP
060C
0230
03E0
01C0
0180
0100
0000
0780
1FC0
3CC0
78C0
7880
F800
F000
F000
F000
F030
F060
F9C0
FF80
3E00
ENDCHAR
STARTCHAR Dcaron
ENCODING 270
SWIDTH 663 0
DWIDTH 19 0
BBX 18 28 0 0
BITMAP
00C380
004600
007C00
007800
003000
002000
000000
01FC00
07FE00
1C0700
39E780
73C380
63C3C0
E3C3C0
E3C3C0
E783C0
6783C0
0783C0
0783C0
0F8380
0F0780
0F0780
0F0F00
0F0F00
1E1E00
1F3E00
1FFC00
1EF000
ENDCHAR
STARTCHAR dcaron
ENCODING 271
SWIDTH 525 0
DWIDTH 15 0
BBX 19 21 0 0
BITMAP
0000E0
0002E0
003CE0
003C60
003CC0
003C80
003C00
0FF800
1FF800
3C7800
787800
78F000
F0F000
F0F000
F0F000
F0F000
F1E300
F1E200
FEFE00
FEFC00
787000
ENDCHAR
STARTCHAR Dcroat
ENCODING 272
SWIDTH 663 0
DWIDTH 19 0
BBX 18 21 0 0
BITMAP
01FC00
0FFF00
1C0780
3BE380
73C3C0
E3C3C0
E3C3C0
E3C3C0
E783C0
6FE3C0
0FE3C0
0783C0
0F0380
0F0780
0F0780
0F0F00
0F0F00
1E1E00
1F3E00
1FFC00
1EF000
ENDCHAR
STARTCHAR dcroat
ENCODING 273
SWIDTH 525 0
DWIDTH 15 0
BBX 16 20 0 0
BITMAP
0002
003C
003C
00FF
01FF
003C
0FF8
1FF8
3C78
7878
78F0
F0F0
F0F0
F0F0
F0F0
F1E3
F1E2
FEFE
FEFC
7870
ENDCHAR
STARTCHAR Emacron
ENCODING 274
SWIDTH 459 0
DWIDTH 13 0
BBX 16 26 0 0
BITMAP
01FF
03FE
0000
0000
0000
01F0
03F8
070C
0F0C
0E1C
0E38
0E00
0F00
0780
0FC0
1E00
3E00
7C00
7800
F800
F80C
F808
FC30
7FF0
7FC0
1F00
ENDCHAR
STARTCHAR emacron
ENCODING 275
SWIDTH 384 0
DWIDTH 11 0
BBX 12 19 0 0
BITMAP
1FF0
3FE0
0000
0000
0000
0780
1FC0
3CC0
78C0
78C0
F1C0
F380
FF00
F800
F010
F060
F8C0
FF80
3E00
ENDCHAR
STARTCHAR Ebreve
ENCODING 276
SWIDTH 459 0
DWIDTH 13 0
BBX 16 27 0 0
BITMAP
0383
0387
01FE
00F8
0000
0000
01F0
03F8
070C
0F0C
0E1C
0E38
0E00
0F00
0780
0FC0
1E00
3E00
7C00
7800
F800
F80C
F808
FC30
7FF0
7FC0
1F00
ENDCHAR
STARTCHAR ebreve
ENCODING 277
SWIDTH 384 0
DWIDTH 11 0
BBX 12 20 0 0
BITMAP
3830
3870
1FC0
0200
0000
0000
0780
1FC0
3CC0
78C0
78C0
F1C0
F380
FF00
F800
F010
F060
F8C0
FF80
3E00
ENDCHAR
STARTCHAR Edotaccent
ENCODING 278
SWIDTH 459 0
DWIDTH 13 0
BBX 14 27 0 0
BITMAP
0038
0078
0078
0038
0000
0000
01F0
03F8
070C
0F0C
0E1C
0E38
0E00
0F00
0780
0FC0
1E00
3E00
7C00
7800
F800
F80C
F808
FC30
7FF0
7FC0
1F00
ENDCHAR
STARTCHAR edotaccent
ENCODING 279
SWIDTH 384 0
DWIDTH 11 0
BBX 12 21 0 0
BITMAP
01C0
03C0
03C0
01C0
0000
0000
0000
0780
1FC0
3CC0
78C0
78C0
F1C0
F380
FF00
F800
F010
F060
F8C0
FF80
3E00
ENDCHAR
STARTCHAR Eogonek
ENCODING 280
SWIDTH 459 0
DWIDTH 13 0
BBX 14 26 0 -5
BITMAP
03F0
0F18
1E0C
1E0C
1C1C
1E38
1E00
1F00
0F80
0FC0
1F00
3E00
7C00
7800
F800
F800
FC0C
7C08
7FF0
3FE0
1FC0
0180
0180
0390
03E0
01C0
ENDCHAR
STARTCHAR eogonek
ENCODING 281
SWIDTH 384 0
DWIDTH 11 0
BBX 12 19 0 -5
BITMAP
0780
1FC0
3CC0
78C0
78C0
F1C0
F380
FF00
F800
F010
F060
F8C0
FF80
3E00
0400
0C00
1C80
1F00
0E00
ENDCHAR
STARTCHAR Ecaron
ENCODING 282
SWIDTH 459 0
DWIDTH 13 0
BBX 17 28 0 0
BITMAP
00C380
004E00
007C00
003000
002000
000000
000000
01F000
03F800
070C00
0F0C00
0E1C00
0E3800
0E0000
0F0000
078000
0FC000
1E0000
3E0000
7C0000
780000
F80000
F80C00
F80800
FC3000
7FF000
7FC000
1F0000
ENDCHAR
STARTCHAR ecaron
ENCODING 283
SWIDTH 384 0
DWIDTH 11 0
BBX 14 21 0 0
BITMAP
061C
0230
03E0
03C0
0180
0100
0000
0780
1FC0
3CC0
78C0
78C0
F180
F300
FE00
F000
F030
F060
F8C0
FF80
3E00
ENDCHAR
STARTCHAR Gcircumflex
ENCODING 284
SWIDTH 578 0
DWIDTH 16 0
BBX 15 34 1 -6
BITMAP
0018
0038
0078
00EC
0184
0200
0000
01F8
0FFC
1F0E
3E0E
7C0E
781C
F800
F000
F000
F01C
F01C
F03C
F03C
F078
F8F8
7FF8
3F78
0070
00F0
08F0
3EF0
72E0
60E0
61E0
73C0
3F80
0E00
ENDCHAR
STARTCHAR gcircumflex
ENCODING 285
SWIDTH 507 0
DWIDTH 14 0
BBX 15 28 0 -7
BITMAP
0020
0060
00F0
03B0
0610
0808
0000
0FF8
1FF8
3C78
7878
78F0
F0F0
F0F0
F0F0
F0F0
F1E2
F1E6
FFE4
FFF8
7BF0
07C0
1FC0
33C0
33C0
2780
3F80
1E00
ENDCHAR
STARTCHAR Gbreve
ENCODING 286
SWIDTH 578 0
DWIDTH 16 0
BBX 17 33 1 -6
BITMAP
018180
01C380
01FF00
00FC00
000000
000000
01F800
0FFC00
1F0E00
3E0E00
7C0E00
781C00
F80000
F00000
F00000
F01C00
F01C00
F03C00
F03C00
F07800
F8F800
7FF800
3F7800
007800
00F000
08F000
3EF000
72E000
60E000
61E000
73C000
3F8000
0E0000
ENDCHAR
STARTCHAR gbreve
ENCODING 287
SWIDTH 507 0
DWIDTH 14 0
BBX 15 27 0 -7
BITMAP
0E0C
0E1C
07F8
03E0
0000
0000
0FF8
1FF8
3C78
7878
78F0
F0F0
F0F0
F0F0
F0F0
F1E2
F1E6
FFE4
FFF8
7BF0
07C0
1FC0
33C0
33C0
2780
3F80
1E00
ENDCHAR
STARTCHAR Gdotaccent
ENCODING 288
SWIDTH 578 0
DWIDTH 16 0
BBX 15 33 1 -6
BITMAP
0070
00F8
00F8
0070
0000
0000
01F8
0FFC
1F0E
3E0E
7C0E
781C
F800
F000
F000
F01C
F01C
F03C
F03C
F078
F8F8
7FF8
3F78
0078
00F0
08F0
3EF0
72E0
60E0
61E0
73C0
3F80
0E00
ENDCHAR
STARTCHAR gdotaccent
ENCODING 289
SWIDTH 507 0
DWIDTH 14 0
BBX 15 28 0 -7
BITMAP
00E0
01F0
01F0
00E0
0000
0000
0000
0FF8
1FF8
3C78
7878
78F0
F0F0
F0F0
F0F0
F0F0
F1E2
F1E6
FFE4
FFF8
7BF0
07C0
1FC0
33C0
33C0
2780
3F80
1E00
ENDCHAR
STARTCHAR Gcommaaccent
ENCODING 290
SWIDTH 578 0
DWIDTH 16 0
BBX 15 28 0 -7
BITMAP
00F8
03FC
078C
0F0E
1E0E
3E1C
3C0C
7C00
7C00
7800
F800
F80E
F81E
F81C
F81C
F83C
F83C
787C
7C78
3FF8
1F78
0000
0000
0300
0380
0300
0300
0200
ENDCHAR
STARTCHAR gcommaaccent
ENCODING 291
SWIDTH 507 0
DWIDTH 14 0
BBX 15 28 0 -7
BITMAP
0040
00C0
00C0
01C0
00C0
0000
0000
0FF8
1FF8
3C78
7878
78F0
F0F0
F0F0
F0F0
F0F0
F1E2
F1E6
FFE4
FFF8
7BF0
07C0
1FC0
33C0
33C0
2780
3F80
1E00
ENDCHAR
STARTCHAR Hcircumflex
ENCODING 292
SWIDTH 665 0
DWIDTH 19 0
BBX 19 28 0 0
BITMAP
000100
000300
000780
000F80
001880
006040
000000
01E1E0
07E1E0
1FE1E0
39E1E0
73C3C0
73C3C0
E3C3C0
E3C3C0
E3C3C0
67FF80
17FF80
078780
078780
0F8780
0F0F00
0F0F00
0F0F00
0F0F00
1E1F00
1E1E00
1E1E00
ENDCHAR
STARTCHAR hcircumflex
ENCODING 293
SWIDTH 505 0
DWIDTH 14 0
BBX 16 25 -1 0
BITMAP
0080
01C0
03C0
0E40
1820
0000
0F00
0F00
0F00
1E00
1E00
1EF0
1FF8
3FF8
3E78
3C78
3C78
3C70
78F0
78F0
78F1
78F3
F8FE
F0FC
F078
ENDCHAR
STARTCHAR Hbar
ENCODING 294
SWIDTH 665 0
DWIDTH 19 0
BBX 21 21 0 0
BITMAP
01E1E0
07E1E0
1DE1E0
39E1E0
73C1E0
63C3C0
E7FFF8
E3C3C0
E3C3C0
67FFC0
07FF80
078780
078780
0F0780
0F0F00
0F0F00
0F0F00
0F0F00
1E1F00
1E1E00
1E1E00
ENDCHAR
STARTCHAR hbar
ENCODING 295
SWIDTH 505 0
DWIDTH 14 0
BBX 16 20 -1 0
BITMAP
0080
0F00
0F00
3FC0
7FC0
1E00
1EF0
1FF8
3FF8
3E78
3C78
3C78
3C70
78F0
78F0
78F1
78F3
F8FE
F0FC
F078
ENDCHAR
STARTCHAR Itilde
ENCODING 296
SWIDTH 375 0
DWIDTH 11 0
BBX 15 26 0 0
BITMAP
0080
07FE
0FFC
0020
0000
01E0
07E0
1DE0
33C0
73C0
63C0
E3C0
E3C0
E780
6780
0780
0780
0F00
0F00
0F00
0F00
0F00
1E00
1E00
1E00
1E00
ENDCHAR
STARTCHAR itilde
ENCODING 297
SWIDTH 267 0
DWIDTH 7 0
BBX 9 19 0 0
BITMAP
3C80
7F00
9E00
0000
0000
3C00
3C00
7800
7800
7800
7800
F800
F000
F000
F180
F100
FE00
FE00
7800
ENDCHAR
STARTCHAR Imacron
ENCODING 298
SWIDTH 375 0
DWIDTH 11 0
BBX 14 25 0 0
BITMAP
07FC
0FF8
0000
0000
01E0
07E0
1DE0
33C0
73C0
63C0
E3C0
E3C0
E780
6780
0780
0780
0F00
0F00
0F00
0F00
0F00
1E00
1E00
1E00
1E00
ENDCHAR
STARTCHAR imacron
ENCODING 299
SWIDTH 267 0
DWIDTH 7 0
BBX 9 19 0 0
BITMAP
7F00
7F00
0000
0000
0000
3C00
3C00
7800
7800
7800
7800
F800
F000
F000
F180
F100
FE00
FE00
7800
ENDCHAR
STARTCHAR Ibreve
ENCODING 300
SWIDTH 375 0
DWIDTH 11 0
BBX 15 27 0 0
BITMAP
0606
060E
071C
03F8
0040
0000
01E0
07E0
1DE0
33C0
73C0
63C0
E3C0
E3C0
E780
6780
0780
0780
0F00
0F00
0F00
0F00
0F00
1E00
1E00
1E00
1E00
ENDCHAR
STARTCHAR ibreve
ENCODING 301
SWIDTH 267 0
DWIDTH 7 0
BBX 9 20 0 0
BITMAP
6180
6380
3F00
0800
0000
0000
3C00
3C00
7800
7800
7800
7800
F800
F000
F000
F180
F100
FE00
FE00
7800
ENDCHAR
STARTCHAR Iogonek
ENCODING 302
SWIDTH 375 0
DWIDTH 11 0
BBX 11 33 0 -6
BITMAP
0700
0700
0300
0300
0380
0000
01E0
07E0
1DE0
33C0
73C0
63C0
E3C0
E7C0
E780
6780
0780
0780
0F00
0F00
0F00
0F00
0F00
1E00
1E00
1E00
1E00
1800
3000
3000
3100
3E00
1C00
ENDCHAR
STARTCHAR iogonek
ENCODING 303
SWIDTH 267 0
DWIDTH 7 0
BBX 10 25 -1 -6
BITMAP
0E00
0F00
1F00
0E00
0000
1E00
1E00
3C00
3C00
3C00
3C00
7C00
7800
7800
78C0
7880
7F00
7F00
3C00
6000
C000
C000
C400
F800
7000
ENDCHAR
STARTCHAR Idotaccent
ENCODING 304
SWIDTH 375 0
DWIDTH 11 0
BBX 12 27 0 0
BITMAP
0060
00F0
00F0
00E0
0000
0000
01E0
07E0
1DE0
33C0
73C0
63C0
E3C0
E3C0
E780
6780
0780
0780
0F00
0F00
0F00
0F00
0F00
1E00
1E00
1E00
1E00
ENDCHAR
STARTCHAR dotlessi
ENCODING 305
SWIDTH 267 0
DWIDTH 7 0
BBX 9 14 0 0
BITMAP
3C00
3C00
7800
7800
7800
7800
F800
F000
F000
F180
F100
FE00
FE00
7800
ENDCHAR
STARTCHAR IJ
ENCODING 306
SWIDTH 663 0
DWIDTH 19 0
BBX 19 27 0 -6
BITMAP
01E060
07E1E0
1DE3C0
33C3C0
73C3C0
63C3C0
E3C780
E7C780
E78780
678780
078780
078F00
0F0F00
0F0F00
0F0F00
0F1F00
0F1E00
1E1E00
1E1E00
1F1E00
1FBC00
1CBC00
1C3C00
1C7800
1C7800
0FF000
03C000
ENDCHAR
STARTCHAR ij
ENCODING 307
SWIDTH 507 0
DWIDTH 14 0
BBX 15 26 0 -7
BITMAP
1C38
1E3C
3E3C
1C38
0000
3C78
3C78
7878
7878
78F0
78F0
F8F0
F0F0
F0F0
F1E2
F1E2
FDE4
F9F8
79F0
07C0
1FC0
33C0
23C0
3780
3F80
1E00
ENDCHAR
STARTCHAR Jcircumflex
ENCODING 308
SWIDTH 536 0
DWIDTH 15 0
BBX 18 34 0 -6
BITMAP
000100
000380
000780
000E80
0018C0
002040
000000
000F00
003F00
00EF00
01DE00
039E00
031E00
071E00
071E00
073C00
033C00
003C00
003C00
007C00
007800
007800
007800
007800
00F000
00F000
1CF000
7EF000
73F000
E1E000
61E000
63C000
7F8000
1C0000
ENDCHAR
STARTCHAR jcircumflex
ENCODING 309
SWIDTH 240 0
DWIDTH 7 0
BBX 14 28 -6 -7
BITMAP
0010
0038
0078
00E8
038C
0000
0000
00F0
00F0
01E0
01E0
01E0
01E0
01E0
03C0
03C0
03C4
03C8
07C8
0790
07E0
0F80
3F80
6700
CF00
CF00
7E00
3C00
ENDCHAR
STARTCHAR Kcommaaccent
ENCODING 310
SWIDTH 601 0
DWIDTH 17 0
BBX 19 28 0 -7
BITMAP
01E1E0
0FE180
1DE300
33C700
73CE00
E3CC00
E3D800
E7F000
E7E000
67FC00
079E00
079E00
0F1E00
0F1E00
0F1E00
0F1E00
0F1C00
1E3C00
1E3C00
1E3C00
1E1E00
000000
008000
01C000
01C000
00C000
008000
010000
ENDCHAR
STARTCHAR kcommaaccent
ENCODING 311
SWIDTH 518 0
DWIDTH 15 0
BBX 17 27 -1 -7
BITMAP
008000
0F0000
0F0000
1F0000
1E0000
1E0000
1E1C00
1E3000
3CE000
3D8000
3FF000
3FF000
3CF800
78F800
78F000
78F180
78F100
F8FF00
F0FE00
F07800
000000
000000
070000
070000
030000
020000
040000
ENDCHAR
STARTCHAR kgreenlandic
ENCODING 312
SWIDTH 518 0
DWIDTH 15 0
BBX 17 14 -1 0
BITMAP
1E1C00
1E3000
3CE000
3D8000
3FF000
3FF000
3CF800
78F800
78F000
78F180
78F100
F8FF00
F0FE00
F07800
ENDCHAR
STARTCHAR Lacute
ENCODING 313
SWIDTH 379 0
DWIDTH 11 0
BBX 19 35 0 -7
BITMAP
001C00
001800
003800
003000
007000
006000
000000
01E000
0FE000
1DE000
33C000
73C000
E3C000
E3C000
E7C000
E78000
678000
078000
078000
0F0000
0F0000
0F0000
0F0000
1F0000
1E0000
1E0000
1E0000
1F0000
07C000
01F000
007C20
003FC0
001FC0
000FC0
000380
ENDCHAR
STARTCHAR lacute
ENCODING 314
SWIDTH 267 0
DWIDTH 7 0
BBX 10 26 0 0
BITMAP
01C0
0380
0300
0700
0600
0E00
0000
1E00
1E00
1E00
3C00
3C00
3C00
3C00
7800
7800
7800
7800
7800
F000
F000
F180
F100
FE00
FE00
7800
ENDCHAR
STARTCHAR Lcommaaccent
ENCODING 315
SWIDTH 379 0
DWIDTH 11 0
BBX 19 28 0 -7
BITMAP
01E000
0FE000
1DE000
33C000
73C000
E3C000
E3C000
E7C000
E78000
678000
078000
078000
0F0000
0F0000
0F0000
0F0000
1F0000
1E0000
1E0000
1E0000
1F0000
07C000
11F000
387C20
383FC0
181FC0
100FC0
200380
ENDCHAR
STARTCHAR lcommaaccent
ENCODING 316
SWIDTH 267 0
DWIDTH 7 0
BBX 9 26 0 -7
BITMAP
1E00
1E00
3E00
3C00
3C00
3C00
3C00
7800
7800
7800
7800
7800
F000
F000
F180
F100
FE00
FE00
7800
0000
4000
E000
E000
6000
4000
8000
ENDCHAR
STARTCHAR Lcaron
ENCODING 317
SWIDTH 379 0
DWIDTH 11 0
BBX 19 35 0 -7
BITMAP
008100
00C600
005C00
007800
007000
006000
000000
01E000
0FE000
1DE000
33C000
73C000
E3C000
E3C000
E7C000
E78000
678000
078000
078000
0F0000
0F0000
0F0000
0F0000
1F0000
1E0000
1E0000
1E0000
1F0000
07C000
01F000
007C20
003FC0
001FC0
000FC0
000380
ENDCHAR
STARTCHAR lcaron
ENCODING 318
SWIDTH 267 0
DWIDTH 7 0
BBX 11 21 0 0
BITMAP
00E0
00E0
1EE0
1E60
1E40
3C80
3C00
3C00
3C00
7800
7800
7800
7800
7800
F000
F000
F180
F100
FE00
FE00
7800
ENDCHAR
STARTCHAR Ldot
ENCODING 319
SWIDTH 605 0
DWIDTH 17 0
BBX 19 28 0 -7
BITMAP
01E000
07E000
1DE000
3BC000
73C000
63C000
E3C000
E7C000
E78000
678000
078000
078000
0F0E00
0F1F00
0F1F00
0F0E00
0F0000
1E0000
1E0000
1E0000
1F0000
07C000
01F000
007C20
003FC0
001FC0
000FC0
000380
ENDCHAR
STARTCHAR ldot
ENCODING 320
SWIDTH 353 0
DWIDTH 10 0
BBX 10 19 0 0
BITMAP
1E00
1E00
1E00
3C00
3C00
3C00
3C00
7800
7980
7BC0
7BC0
7980
F000
F000
F000
F000
FC00
F800
7000
ENDCHAR
STARTCHAR Lslash
ENCODING 321
SWIDTH 392 0
DWIDTH 11 0
BBX 19 28 0 -7
BITMAP
01E000
0FE000
1DE000
33C000
73C000
E3C800
E3D800
E7F000
E7C000
678000
078000
1F8000
1F0000
0F0000
0F0000
0F0000
0F0000
1E0000
1E0000
1E0000
1F0000
07C000
01F000
007C20
003FC0
001FC0
000FC0
000380
ENDCHAR
STARTCHAR lslash
ENCODING 322
SWIDTH 286 0
DWIDTH 8 0
BBX 10 19 -1 0
BITMAP
0F00
0F00
1F00
1E00
1E40
1EC0
1F80
3E00
3C00
3C00
FC00
BC00
7800
7800
78C0
7880
7F00
7F00
3C00
ENDCHAR
STARTCHAR Nacute
ENCODING 323
SWIDTH 702 0
DWIDTH 20 0
BBX 20 28 0 0
BITMAP
0000E0
0000E0
0001C0
000180
000380
000300
000000
03E070
0FE070
3DE070
73F060
73F0E0
E3F0E0
E3F0E0
E3F0C0
E778C0
6779C0
1779C0
0679C0
0E3D80
0E3D80
0E3F80
0E3F80
0C1F80
1C1F00
1C1F00
1C1F00
180F00
ENDCHAR
STARTCHAR nacute
ENCODING 324
SWIDTH 505 0
DWIDTH 14 0
BBX 16 21 -1 0
BITMAP
001C
0038
0030
0070
0060
0080
0000
1EF0
1FF8
3E78
3C78
3C78
3C78
3C70
78F0
78F0
78F1
78F3
F8FE
F0FC
F078
ENDCHAR
STARTCHAR Ncommaaccent
ENCODING 325
SWIDTH 668 0
DWIDTH 19 0
BBX 20 28 0 -7
BITMAP
03E070
0FE070
3DE070
73F060
73F0E0
E3F0E0
E3F0E0
E3F0C0
E778C0
6779C0
1779C0
0679C0
0E3D80
0E3D80
0E3F80
0E3F80
0C1F80
1C1F00
1C1F00
1C1F00
180F00
000000
000000
01C000
01C000
00C000
008000
010000
ENDCHAR
STARTCHAR ncommaaccent
ENCODING 326
SWIDTH 505 0
DWIDTH 14 0
BBX 16 21 -1 -7
BITMAP
1EF0
1FF8
3E78
3C78
3C78
3C78
3C70
78F0
78F0
78F1
78F3
F8FE
F0FC
F078
0000
0000
0E00
0E00
0600
0400
0800
ENDCHAR
STARTCHAR Ncaron
ENCODING 327
SWIDTH 668 0
DWIDTH 19 0
BBX 21 28 0 0
BITMAP
000818
000460
0007C0
000780
000300
000200
000000
03E070
0FE070
3DE070
73F060
73F0E0
E3F0E0
E3F0E0
E3F0C0
E778C0
6779C0
1779C0
0679C0
0E3D80
0E3D80
0E3F80
0E3F80
0C1F80
1C1F00
1C1F00
1C1F00
180F00
ENDCHAR
STARTCHAR ncaron
ENCODING 328
SWIDTH 505 0
DWIDTH 14 0
BBX 16 21 -1 0
BITMAP
020C
0338
01E0
01C0
0180
0000
0000
1EF0
1FF8
3E78
3C78
3C78
3C78
3C70
78F0
78F0
78F1
78F3
F8FE
F0FC
F078
ENDCHAR
STARTCHAR napostrophe
ENCODING 329
SWIDTH 505 0
DWIDTH 14 0
BBX 16 21 -1 0
BITMAP
3800
3800
3800
1800
1000
2000
0000
1EF0
1FF8
3E78
3C78
3C78
3C78
3C70
78F0
78F0
78F1
78F3
F8FE
F0FC
F078
ENDCHAR
STARTCHAR Eng
ENCODING 330
SWIDTH 723 0
DWIDTH 20 0
BBX 21 26 1 -5
BITMAP
03E038
0FF030
1DF070
39F070
71F070
63F060
E3F8E0
E3F8E0
6378E0
7778C0
0738C0
073DC0
063DC0
063DC0
0E1D80
0E1F80
0E1F80
0C1F80
1C0F00
1C0F00
1C0F00
038E00
030E00
031C00
031C00
01F000
ENDCHAR
STARTCHAR eng
ENCODING 331
SWIDTH 505 0
DWIDTH 14 0
BBX 13 21 -1 -7
BITMAP
1EF0
1FF8
3FF8
3C78
3C78
3C78
7C70
78F0
78F0
78F0
78F0
F0E0
F1E0
F1E0
03E0
0DE0
13C0
23C0
23C0
1F80
1F00
ENDCHAR
STARTCHAR Omacron
ENCODING 332
SWIDTH 665 0
DWIDTH 19 0
BBX 18 26 0 0
BITMAP
00FF80
00FF80
000000
000000
000000
00FE00
07FF00
0E0380
1CF3C0
31E3C0
73C1C0
6781C0
E781C0
6F83C0
6F03C0
0F03C0
0F03C0
1F03C0
1E0780
1E0780
1E0F00
1E0F00
1E1E00
0F3C00
0FF800
03E000
ENDCHAR
STARTCHAR omacron
ENCODING 333
SWIDTH 433 0
DWIDTH 12 0
BBX 17 19 -1 0
BITMAP
0FF800
0FF800
000000
000000
000000
03C000
0FE000
1E6000
3C7180
3C7E00
787800
787000
786000
F86000
F8E000
F8C000
79C000
7F8000
3E0000
ENDCHAR
STARTCHAR Obreve
ENCODING 334
SWIDTH 665 0
DWIDTH 19 0
BBX 19 27 0 0
BITMAP
0060E0
0060C0
0071C0
003F80
000800
000000
00FE00
07FF00
0E0380
1CF3C0
31E3C0
73C1C0
6781C0
E781C0
6F83C0
6F03C0
0F03C0
0F03C0
1F03C0
1E0780
1E0780
1E0F00
1E0F00
1E1E00
0F3C00
0FF800
03E000
ENDCHAR
STARTCHAR obreve
ENCODING 335
SWIDTH 433 0
DWIDTH 12 0
BBX 17 20 -1 0
BITMAP
0C0C00
0E1800
07F000
008000
000000
000000
03C000
0FE000
1E6000
3C7180
3C7E00
787800
787000
786000
F86000
F8E000
F8C000
79C000
7F8000
3E0000
ENDCHAR
STARTCHAR Ohungarumlaut
ENCODING 336
SWIDTH 665 0
DWIDTH 19 0
BBX 20 28 0 0
BITMAP
000770
000E60
000CC0
0018C0
003180
000000
000000
00FE00
07FF00
0E0380
1CF3C0
31E3C0
73C1C0
6781C0
E781C0
6F83C0
6F03C0
0F03C0
0F03C0
1F03C0
1E0780
1E0780
1E0F00
1E0F00
1E1E00
0F3C00
0FF800
03E000
ENDCHAR
STARTCHAR ohungarumlaut
ENCODING 337
SWIDTH 433 0
DWIDTH 12 0
BBX 17 21 -1 0
BITMAP
01CE00
019C00
039800
033000
062000
000000
000000
03C000
0FE000
1E6000
3C7180
3C7E00
787800
787000
786000
F86000
F8E000
F8C000
79C000
7F8000
3E0000
ENDCHAR
STARTCHAR OE
ENCODING 338
SWIDTH 846 0
DWIDTH 24 0
BBX 26 21 0 0
BITMAP
00FFFFC0
07FFFF80
0E33BF00
38E3C000
71C3C000
73C1C000
6781C000
E781C000
6F81C000
2F03FC00
0F03FC00
1F03C000
1F038000
1E078000
1E078000
1E070000
1E0F0000
1E1E0000
0F1FF800
0FFFF800
07FFF800
ENDCHAR
STARTCHAR oe
ENCODING 339
SWIDTH 663 0
DWIDTH 19 0
BBX 20 14 0 0
BITMAP
078780
1FDFC0
3CFC40
78FC40
71F8C0
F1F8C0
F0F380
F0FE00
F0F010
F1F020
F1F060
FF78C0
FF7F80
3C3E00
ENDCHAR
STARTCHAR Racute
ENCODING 340
SWIDTH 601 0
DWIDTH 17 0
BBX 16 28 0 0
BITMAP
0007
000E
000C
0018
0038
0000
0000
01F8
0FFE
1C07
3BE7
73C7
E3C7
E3C7
E3CE
E79C
27FC
079E
079E
0F1E
0F1E
0F1E
0F1E
0F3C
1E3C
1E3C
1E3C
1E1E
ENDCHAR
STARTCHAR racute
ENCODING 341
SWIDTH 376 0
DWIDTH 11 0
BBX 12 21 -1 0
BITMAP
0070
0060
00E0
00C0
0180
0000
0000
1EE0
1FF0
3E70
3C60
3C00
3C00
3C00
7800
7800
7800
7800
F800
F000
F000
ENDCHAR
STARTCHAR Rcommaaccent
ENCODING 342
SWIDTH 601 0
DWIDTH 17 0
BBX 16 28 0 -7
BITMAP
01F8
0FFE
1C07
3BE7
73C7
E3C7
E3C7
E3CE
E79C
27FC
079E
079E
0F1E
0F1E
0F1E
0F1E
0F3C
1E3C
1E3C
1E3C
1E1E
0000
0100
0380
0180
0180
0100
0300
ENDCHAR
STARTCHAR rcommaaccent
ENCODING 343
SWIDTH 376 0
DWIDTH 11 0
BBX 12 21 -1 -7
BITMAP
1EE0
1FF0
3E70
3C60
3C00
3C00
3C00
7800
7800
7800
7800
F800
F000
F000
0000
0000
1800
3800
1800
1800
3000
ENDCHAR
STARTCHAR Rcaron
ENCODING 344
SWIDTH 601 0
DWIDTH 17 0
BBX 18 28 0 0
BITMAP
0020C0
003700
003E00
001C00
001000
000000
000000
01F800
0FFE00
1C0700
3BE700
73C700
E3C700
E3C700
E3CE00
E79C00
27FC00
079E00
079E00
0F1E00
0F1E00
0F1E00
0F1E00
0F3C00
1E3C00
1E3C00
1E3C00
1E1E00
ENDCHAR
STARTCHAR rcaron
ENCODING 345
SWIDTH 376 0
DWIDTH 11 0
BBX 13 21 -1 0
BITMAP
0C38
0460
07C0
0380
0300
0000
0000
1EE0
1FF0
3E70
3C60
3C00
3C00
3C00
7800
7800
7800
7800
F800
F000
F000
ENDCHAR
STARTCHAR Sacute
ENCODING 346
SWIDTH 570 0
DWIDTH 16 0
BBX 15 28 1 0
BITMAP
001E
001C
0038
0030
0060
0000
0000
01F0
07FC
0F1C
1E0C
1E0C
1E1C
1F08
0F80
07C0
07E0
03F0
01F0
38F8
7C78
F078
E078
E078
E078
F0F0
7FE0
1F80
ENDCHAR
STARTCHAR sacute
ENCODING 347
SWIDTH 382 0
DWIDTH 11 0
BBX 13 21 -1 0
BITMAP
0070
0070
00E0
00C0
01C0
0000
0080
0780
0F80
0F80
0F80
1F80
17C0
37C0
23C0
63C0
F3D8
E3F0
C7C0
7F80
3E00
ENDCHAR
STARTCHAR Scircumflex
ENCODING 348
SWIDTH 570 0
DWIDTH 16 0
BBX 14 28 1 0
BITMAP
0018
0038
0078
00CC
0304
0000
0000
01F0
07FC
0F1C
1E0C
1E0C
1E1C
1F08
0F80
07C0
07E0
03F0
01F0
38F8
7C78
F078
E078
E078
E078
F0F0
7FE0
1F80
ENDCHAR
STARTCHAR scircumflex
ENCODING 349
SWIDTH 382 0
DWIDTH 11 0
BBX 13 21 -1 0
BITMAP
00C0
01C0
03C0
0760
0C20
1000
0080
0780
0F80
0F80
0F80
1F80
17C0
37C0
23C0
63C0
F3D8
E3F0
C7C0
7F80
3E00
ENDCHAR
STARTCHAR Scedilla
ENCODING 350
SWIDTH 570 0
DWIDTH 16 0
BBX 14 27 1 -6
BITMAP
01F0
07FC
0F1C
1E0C
1E0C
1E1C
1F08
0F80
07C0
07E0
03F0
01F0
38F8
7CF8
F078
E078
E078
E078
F0F0
7FE0
1F80
0400
0780
0F80
0180
1180
0F00
ENDCHAR
STARTCHAR scedilla
ENCODING 351
SWIDTH 382 0
DWIDTH 11 0
BBX 13 21 -1 -6
BITMAP
0080
0780
0F80
0F80
0F80
1F80
17C0
37C0
23C0
63C0
F3D8
C3E0
C7C0
7F80
3E00
1000
1400
3E00
0E00
4E00
7C00
ENDCHAR
STARTCHAR Scaron
ENCODING 352
SWIDTH 570 0
DWIDTH 16 0
BBX 17 28 1 0
BITMAP
004180
006600
003C00
003800
003000
000000
000000
01F000
07FC00
0F1C00
1E0C00
1E0C00
1E1C00
1F0800
0F8000
07C000
07E000
03F000
01F000
38F800
7C7800
F07800
E07800
E07800
E07800
F0F000
7FE000
1F8000
ENDCHAR
STARTCHAR scaron
ENCODING 353
SWIDTH 369 0
DWIDTH 10 0
BBX 13 21 -1 0
BITMAP
0418
0660
03C0
0380
0300
0000
0180
0780
0F80
0F80
0F80
1F80
17C0
33C0
23C0
73C0
E3D8
C3E0
C7C0
7F00
3E00
ENDCHAR
STARTCHAR uni0162
ENCODING 354
SWIDTH 481 0
DWIDTH 13 0
BBX 20 27 0 -6
BITMAP
03F010
0FFE10
3CFFF0
70FFE0
70F7C0
E0F000
E1F000
E1F000
E1E000
E1E000
61E000
03E000
03C000
03C000
03C000
03C000
078000
078000
078000
078000
0F8000
020000
068000
07C000
01C000
09C000
0F0000
ENDCHAR
STARTCHAR uni0163
ENCODING 355
SWIDTH 267 0
DWIDTH 7 0
BBX 9 24 -1 -6
BITMAP
0F00
1E00
1E00
1E00
3F80
3F00
3E00
3C00
3C00
3C00
3C00
7800
7800
7880
7880
7F00
7F00
3C00
2000
2800
7C00
0C00
9C00
7800
ENDCHAR
STARTCHAR Tcaron
ENCODING 356
SWIDTH 481 0
DWIDTH 13 0
BBX 20 28 0 0
BITMAP
004080
006300
002E00
003C00
003000
002000
000000
03F010
0FFE10
3CFFF0
70FFE0
70F7C0
E0F000
E1F000
E1F000
E1E000
E1E000
61E000
03E000
03C000
03C000
03C000
03C000
078000
078000
078000
078000
0F8000
ENDCHAR
STARTCHAR tcaron
ENCODING 357
SWIDTH 267 0
DWIDTH 7 0
BBX 12 21 0 0
BITMAP
0060
00F0
0060
1E60
3E40
3C80
3C00
7F00
7E00
7C00
7800
7800
7800
7800
F000
F000
F100
F100
FE00
FE00
7800
ENDCHAR
STARTCHAR Tbar
ENCODING 358
SWIDTH 481 0
DWIDTH 13 0
BBX 20 21 0 0
BITMAP
03F010
1FFE10
3CFFF0
70FFE0
60F1C0
E0F000
E1F000
E1E000
E1E000
61E000
01E000
03C000
3FFE00
3FFE00
03C000
03C000
078000
078000
078000
078000
0F8000
ENDCHAR
STARTCHAR tbar
ENCODING 359
SWIDTH 267 0
DWIDTH 7 0
BBX 10 18 -1 0
BITMAP
0F00
1E00
1E00
1E00
3F80
3F00
3C00
7F00
FF00
3C00
3C00
7800
7800
78C0
7880
7F00
7F00
3C00
ENDCHAR
STARTCHAR Utilde
ENCODING 360
SWIDTH 716 0
DWIDTH 20 0
BBX 21 26 0 0
BITMAP
000F88
003FF0
0047E0
000080
000000
01F078
0FE078
19E078
31E0F0
61E0F0
E3C0F0
E3C0F0
C3C0F0
C3C1E0
6781E0
0781E0
0781E0
0783C0
0F03C0
0F03C0
0F0780
0F0780
0F0F80
0FFF00
07FE00
03F800
ENDCHAR
STARTCHAR utilde
ENCODING 361
SWIDTH 505 0
DWIDTH 14 0
BBX 15 19 0 0
BITMAP
07C4
1FF8
21E0
0000
0000
3C78
3CF8
78F0
78F0
78F0
78F0
F9E0
F1E0
F1E0
F1E2
F3E6
FFFC
FDF8
78F0
ENDCHAR
STARTCHAR Umacron
ENCODING 362
SWIDTH 716 0
DWIDTH 20 0
BBX 21 26 0 0
BITMAP
001FF0
003FE0
000000
000000
000000
01F078
0FE078
19E078
31E0F0
61E0F0
E3C0F0
E3C0F0
C3C0F0
C3C1E0
6781E0
0781E0
0781E0
0783C0
0F03C0
0F03C0
0F0780
0F0780
0F0F80
0FFF00
07FE00
03F800
ENDCHAR
STARTCHAR umacron
ENCODING 363
SWIDTH 505 0
DWIDTH 14 0
BBX 15 19 0 0
BITMAP
0FF8
1FF0
0000
0000
0000
3C78
3CF8
78F0
78F0
78F0
78F0
F9E0
F1E0
F1E0
F1E2
F3E6
FFFC
FDF8
78F0
ENDCHAR
STARTCHAR Ubreve
ENCODING 364
SWIDTH 716 0
DWIDTH 20 0
BBX 21 27 0 0
BITMAP
003838
001830
001C70
000FC0
000300
000000
01F078
0FE078
19E078
31E0F0
61E0F0
E3C0F0
E3C0F0
C3C0F0
C3C1E0
6781E0
0781E0
0781E0
0783C0
0F03C0
0F03C0
0F0780
0F0780
0F0F80
0FFF00
07FE00
03F800
ENDCHAR
STARTCHAR ubreve
ENCODING 365
SWIDTH 505 0
DWIDTH 14 0
BBX 15 20 0 0
BITMAP
1C18
0C38
0FF0
0380
0000
0000
3C78
3CF8
78F0
78F0
78F0
78F0
F9E0
F1E0
F1E0
F1E2
F3E6
FFFC
FDF8
78F0
ENDCHAR
STARTCHAR Uring
ENCODING 366
SWIDTH 716 0
DWIDTH 20 0
BBX 21 27 0 0
BITMAP
000300
000480
000480
000480
000700
000000
01F078
0FE078
19E078
31E0F0
61E0F0
E3C0F0
E3C0F0
C3C0F0
C3C1E0
6781E0
0781E0
0781E0
0783C0
0F03C0
0F03C0
0F0780
0F0780
0F0F80
0FFF00
07FE00
03F800
ENDCHAR
STARTCHAR uring
ENCODING 367
SWIDTH 505 0
DWIDTH 14 0
BBX 15 19 0 0
BITMAP
0380
0240
0240
0380
0000
3C78
3CF8
78F0
78F0
78F0
78F0
F9E0
F1E0
F1E0
F1E2
F3E6
FFFC
FDF8
78F0
ENDCHAR
STARTCHAR Uhungarumlaut
ENCODING 368
SWIDTH 716 0
DWIDTH 20 0
BBX 22 28 0 0
BITMAP
00039C
000338
000630
000660
000CC0
000000
000000
01F078
0FE078
19E078
31E0F0
61E0F0
E3C0F0
E3C0F0
C3C0F0
C3C1E0
6781E0
0781E0
0781E0
0783C0
0F03C0
0F03C0
0F0780
0F0780
0F0F80
0FFF00
07FE00
03F800
ENDCHAR
STARTCHAR uhungarumlaut
ENCODING 369
SWIDTH 505 0
DWIDTH 14 0
BBX 15 21 0 0
BITMAP
03DC
0338
0730
0660
0C60
0000
0000
3C78
3CF8
78F0
78F0
78F0
78F0
F9E0
F1E0
F1E0
F1E2
F3E6
FFFC
FDF8
78F0
ENDCHAR
STARTCHAR Uogonek
ENCODING 370
SWIDTH 716 0
DWIDTH 20 0
BBX 21 34 0 -6
BITMAP
001C00
000E00
000E00
000E00
000600
000000
000000
01F078
0FE078
19E078
31E0F0
61E0F0
E3C0F0
E3C0F0
C3C0F0
C381E0
6781E0
0781E0
0781E0
0703C0
0703C0
0F03C0
0F0780
0F0780
0F0F80
0FFF00
07FE00
03F800
00C000
018000
018000
01C800
01F800
00E000
ENDCHAR
STARTCHAR uogonek
ENCODING 371
SWIDTH 505 0
DWIDTH 14 0
BBX 15 20 0 -6
BITMAP
3C78
3CF8
78F0
78F0
78F0
78F0
F9E0
F1E0
F1E0
F1E2
F3E6
FFFC
FDF8
78F0
00C0
0180
0180
01C8
01F8
00E0
ENDCHAR
STARTCHAR Wcircumflex
ENCODING 372
SWIDTH 962 0
DWIDTH 27 0
BBX 29 28 0 0
BITMAP
00000400
00000C00
00001C00
00007400
0000C600
00010200
00000000
01E07818
07E07830
1DE0F830
31E0F830
71E0F860
61E1F860
E1E1F840
E1E178C0
E1E378C0
61E37880
01E27980
01E67980
01E67900
01E47B00
01EC7B00
01E87A00
01E87E00
01F87C00
01F07C00
01F07C00
01F07800
ENDCHAR
STARTCHAR wcircumflex
ENCODING 373
SWIDTH 661 0
DWIDTH 19 0
BBX 18 21 0 0
BITMAP
001800
003800
007800
00EC00
01CC00
030400
000000
3C79C0
3CF9C0
78F1C0
78F0C0
78F0C0
78F0C0
F9E080
F1E180
F1E180
F1E300
F3E700
FFFE00
FDFC00
78F800
ENDCHAR
STARTCHAR Ycircumflex
ENCODING 374
SWIDTH 620 0
DWIDTH 17 0
BBX 20 28 0 0
BITMAP
000100
000300
000780
000F80
0018C0
002040
000000
01E070
07E060
1DF040
31F0C0
70F0C0
60F180
E0F980
E0F900
E07B00
607A00
007E00
007C00
003C00
007C00
007C00
007800
007800
007800
00F800
00F800
00F000
ENDCHAR
STARTCHAR ycircumflex
ENCODING 375
SWIDTH 505 0
DWIDTH 14 0
BBX 15 28 0 -7
BITMAP
0040
00C0
01E0
0760
0C20
1010
0000
3C78
3CF8
78F0
78F0
78F0
78F0
F9E0
F1E0
F1E0
F1E6
F3E4
FFCC
FFD8
7BE0
0FC0
1BC0
3780
6780
6F80
7F00
3E00
ENDCHAR
STARTCHAR Ydieresis
ENCODING 376
SWIDTH 620 0
DWIDTH 17 0
BBX 20 26 0 0
BITMAP
001CE0
001CE0
001CE0
000000
000000
01E070
07E060
1DF040
31F0C0
70F0C0
60F180
E0F980
E0F900
E07B00
607A00
007E00
007C00
003C00
007C00
007C00
007800
007800
007800
00F800
00F800
00F000
ENDCHAR
STARTCHAR Zacute
ENCODING 377
SWIDTH 542 0
DWIDTH 15 0
BBX 16 28 0 0
BITMAP
0007
000E
000C
001C
0018
0030
0000
0FFE
1FFE
383C
387C
1878
00F8
00F0
01F0
01E0
03E0
03C0
07C0
0780
0F80
0F00
1F00
1E08
3E1C
3C1C
7FF8
FFF0
ENDCHAR
STARTCHAR zacute
ENCODING 378
SWIDTH 428 0
DWIDTH 12 0
BBX 12 21 0 0
BITMAP
0070
00E0
00C0
01C0
0180
0000
0000
1FF0
3FE0
31E0
33C0
0380
0780
0F00
0F00
1E00
1E00
3CE0
7CE0
7FC0
FF80
ENDCHAR
STARTCHAR Zdotaccent
ENCODING 379
SWIDTH 530 0
DWIDTH 15 0
BBX 15 26 0 0
BITMAP
0060
00F0
0060
0000
0000
0FFE
1FFE
383C
387C
1878
00F8
00F0
01F0
01E0
03E0
03C0
07C0
0780
0F80
0F00
1F00
1E08
3E1C
3C1C
7FF8
FFF0
ENDCHAR
STARTCHAR zdotaccent
ENCODING 380
SWIDTH 428 0
DWIDTH 12 0
BBX 12 19 0 0
BITMAP
0180
03C0
0180
0000
0000
1FF0
3FE0
31E0
33C0
0380
0780
0F00
0F00
1E00
1E00
3CE0
7CE0
7FC0
FF80
ENDCHAR
STARTCHAR Zcaron
ENCODING 381
SWIDTH 542 0
DWIDTH 15 0
BBX 17 28 0 0
BITMAP
008180
004700
007C00
003800
003000
002000
000000
0FFE00
1FFE00
383C00
387C00
187800
00F800
00F000
01F000
01E000
03E000
03C000
07C000
078000
0F8000
0F0000
1F0000
1E0800
3E1C00
3C1C00
7FF800
FFF000
ENDCHAR
STARTCHAR zcaron
ENCODING 382
SWIDTH 428 0
DWIDTH 12 0
BBX 13 21 0 0
BITMAP
0618
0270
03E0
03C0
0100
0000
0000
1FF0
3FE0
31E0
33C0
0380
0780
0F00
0F00
1E00
1E00
3CE0
7CE0
7FC0
FF80
ENDCHAR
STARTCHAR longs
ENCODING 383
SWIDTH 267 0
DWIDTH 7 0
BBX 17 28 -6 -7
BITMAP
001E00
003F00
007980
007980
00F000
00F000
00F000
03F000
03F000
01E000
01E000
01E000
01E000
01E000
03C000
03C000
03C000
03C000
038000
078000
078000
1F8000
778000
4F0000
CF0000
CF0000
7E0000
3C0000
ENDCHAR
STARTCHAR uni018F
ENCODING 399
SWIDTH 544 0
DWIDTH 15 0
BBX 14 21 1 0
BITMAP
0FC0
1FF0
3FF8
30F8
207C
007C
003C
003C
007C
03FC
0FFC
1C7C
3878
70F8
F0F0
E0F0
E1E0
E1C0
E380
FF00
3C00
ENDCHAR
STARTCHAR florin
ENCODING 402
SWIDTH 267 0
DWIDTH 7 0
BBX 19 28 -7 -7
BITMAP
0003C0
0007E0
000E60
001E60
001CC0
003C00
003C00
01FF80
01FF80
007800
007800
00F000
00F000
00F000
00F000
01E000
01E000
01E000
03C000
03C000
03C000
038000
078000
678000
E70000
CE0000
FE0000
780000
ENDCHAR
STARTCHAR Ohorn
ENCODING 416
SWIDTH 665 0
DWIDTH 19 0
BBX 20 25 0 0
BITMAP
000010
000070
000030
000030
00FC70
07FF60
0E03C0
1CF3C0
31E3C0
73C1C0
6781C0
E781C0
6F83C0
6F03C0
0F03C0
0F03C0
1F03C0
1E0780
1E0780
1E0F00
1E0F00
1E1E00
0F3C00
0FF800
03E000
ENDCHAR
STARTCHAR ohorn
ENCODING 417
SWIDTH 439 0
DWIDTH 12 0
BBX 14 18 0 0
BITMAP
0008
001C
001C
0018
0798
1FF0
3CE0
7860
7860
F060
F0E0
F0E0
F0C0
F1C0
F380
FF80
FF00
3C00
ENDCHAR
STARTCHAR Uhorn
ENCODING 431
SWIDTH 716 0
DWIDTH 20 0
BBX 24 26 0 0
BITMAP
000003
000003
000003
000003
000006
01F07C
0FE078
19E078
31E0F0
61E0F0
E3C0F0
E3C0F0
C3C0F0
C3C1E0
6781E0
0781E0
0781E0
0783C0
0F03C0
0F03C0
0F0780
0F0780
0F0F80
0FFF00
07FE00
03F800
ENDCHAR
STARTCHAR uhorn
ENCODING 432
SWIDTH 505 0
DWIDTH 14 0
BBX 15 19 0 0
BITMAP
0002
0006
0006
0006
000C
3C7C
3CF8
78F0
78F0
78F0
78F0
F9E0
F1E0
F1E0
F1E2
F3E6
FFFC
FDF8
78F0
ENDCHAR
STARTCHAR uni01B7
ENCODING 439
SWIDTH 555 0
DWIDTH 16 0
BBX 15 21 1 0
BITMAP
1FFE
3FFC
3878
38F0
30F0
01E0
03C0
0780
0780
0FE0
01F0
00F8
00F8
0078
0078
E0F8
E0F8
C0F0
E1E0
FFC0
3F00
ENDCHAR
STARTCHAR uni01CD
ENCODING 461
SWIDTH 668 0
DWIDTH 19 0
BBX 24 31 0 -3
BITMAP
000081
000086
0000DC
000070
000060
000040
000000
0001E0
0007E0
000DE0
0019E0
0033E0
0073C0
0063C0
00E3C0
07C3C0
3FFF80
738F80
E38780
F70780
070780
0F0F00
0E0F00
1E0F00
1E0F00
1C1F00
1C1E00
3C1E00
3C0000
1C0000
1C0000
ENDCHAR
STARTCHAR uni01CE
ENCODING 462
SWIDTH 526 0
DWIDTH 15 0
BBX 16 21 0 0
BITMAP
0106
0198
01F0
00E0
00C0
0000
0000
0FF8
1FF8
3C78
7878
78F0
F0F0
F0F0
F0F0
F0F0
F1E1
F1E2
FFFE
FEFC
7870
ENDCHAR
STARTCHAR uni01CF
ENCODING 463
SWIDTH 375 0
DWIDTH 11 0
BBX 16 28 0 0
BITMAP
0103
008C
00F8
00F0
0060
0040
0000
01E0
07E0
1DE0
33C0
73C0
63C0
E3C0
E3C0
E780
6780
0780
0780
0F00
0F00
0F00
0F00
0F00
1E00
1E00
1E00
1E00
ENDCHAR
STARTCHAR uni01D0
ENCODING 464
SWIDTH 267 0
DWIDTH 7 0
BBX 10 21 0 0
BITMAP
20C0
1380
1F00
1C00
0800
0000
0000
3C00
3C00
7800
7800
7800
7800
F800
F000
F000
F180
F100
FE00
FE00
7800
ENDCHAR
STARTCHAR uni01D1
ENCODING 465
SWIDTH 665 0
DWIDTH 19 0
BBX 20 28 0 0
BITMAP
001030
0008C0
000F80
000F00
000600
000400
000000
00FE00
07FF00
0E0380
1CF3C0
31E3C0
73C1C0
6781C0
E781C0
6F83C0
6F03C0
0F03C0
0F03C0
1F03C0
1E0780
1E0780
1E0F00
1E0F00
1E1E00
0F3C00
0FF800
03E000
ENDCHAR
STARTCHAR uni01D2
ENCODING 466
SWIDTH 433 0
DWIDTH 12 0
BBX 17 21 -1 0
BITMAP
020C00
033800
01F000
01C000
018000
010000
000000
03C000
0FE000
1E6000
3C7180
3C7E00
787800
787000
786000
F86000
F8E000
F8C000
7FC000
7F8000
3E0000
ENDCHAR
STARTCHAR uni01D3
ENCODING 467
SWIDTH 716 0
DWIDTH 20 0
BBX 21 28 0 0
BITMAP
000408
000630
0002E0
0003C0
000300
000200
000000
01F078
0FE078
19E078
31E0F0
61E0F0
E3C0F0
E3C0F0
C3C0F0
C3C1E0
6781E0
0781E0
0781E0
0783C0
0F03C0
0F03C0
0F0780
0F0780
0F0F80
0FFF00
07FE00
03F800
ENDCHAR
STARTCHAR uni01D4
ENCODING 468
SWIDTH 505 0
DWIDTH 14 0
BBX 15 21 0 0
BITMAP
020C
0330
03E0
01C0
0180
0000
0000
3C78
3CF8
78F0
78F0
78F0
78F0
F9E0
F1E0
F1E0
F1E2
F3E6
FFFC
FDF8
78F0
ENDCHAR
STARTCHAR uni01D5
ENCODING 469
SWIDTH 716 0
DWIDTH 20 0
BBX 21 28 0 0
BITMAP
001FF0
001FF0
000000
001C60
001CF0
001C60
000000
01F078
0FE078
19E078
31E0F0
61E0F0
E3C0F0
E3C0F0
C3C0F0
C3C1E0
6781E0
0781E0
0781E0
0783C0
0F03C0
0F03C0
0F0780
0F0780
0F0F80
0FFF00
07FE00
03F800
ENDCHAR
STARTCHAR uni01D6
ENCODING 470
SWIDTH 505 0
DWIDTH 14 0
BBX 15 24 0 0
BITMAP
07FC
0FF8
0000
0000
0000
0E70
0E70
0E70
0000
0000
3C78
3CF8
78F0
78F0
78F0
78F0
F9E0
F1E0
F1E0
F1E2
F3E6
FFFC
FDF8
78F0
ENDCHAR
STARTCHAR uni01D7
ENCODING 471
SWIDTH 716 0
DWIDTH 20 0
BBX 21 28 0 0
BITMAP
0001C0
0001C0
0033B8
007B38
003738
000000
000000
01F078
0FE078
19E078
31E0F0
61E0F0
E3C0F0
E3C0F0
C3C0F0
C3C1E0
6781E0
0781E0
0781E0
0783C0
0F03C0
0F03C0
0F0780
0F0780
0F0F80
0FFF00
07FE00
03F800
ENDCHAR
STARTCHAR uni01D8
ENCODING 472
SWIDTH 505 0
DWIDTH 14 0
BBX 15 26 0 0
BITMAP
0038
0070
0060
00E0
00C0
0180
0000
0E70
0E70
0E70
0000
0000
3C78
3CF8
78F0
78F0
78F0
78F0
F9E0
F1E0
F1E0
F1E2
F3E6
FFFC
FDF8
78F0
ENDCHAR
STARTCHAR uni01D9
ENCODING 473
SWIDTH 716 0
DWIDTH 20 0
BBX 21 28 0 0
BITMAP
000810
000460
0037B8
007B38
003238
000000
000000
01F078
0FE078
19E078
31E0F0
61E0F0
E3C0F0
E3C0F0
C3C0F0
C3C1E0
6781E0
0781E0
0781E0
0783C0
0F03C0
0F03C0
0F0780
0F0780
0F0F80
0FFF00
07FE00
03F800
ENDCHAR
STARTCHAR uni01DA
ENCODING 474
SWIDTH 505 0
DWIDTH 14 0
BBX 15 26 0 0
BITMAP
0204
0118
01F0
01E0
00C0
0080
0000
0E70
0E70
0E70
0000
0000
3C78
3CF8
78F0
78F0
78F0
78F0
F9E0
F1E0
F1E0
F1E2
F3E6
FFFC
FDF8
78F0
ENDCHAR
STARTCHAR uni01DB
ENCODING 475
SWIDTH 716 0
DWIDTH 20 0
BBX 21 28 0 0
BITMAP
000700
000300
003338
007BB8
0031B8
000000
000000
01F078
0FE078
19E078
31E0F0
61E0F0
E3C0F0
E3C0F0
C3C0F0
C3C1E0
6781E0
0781E0
0781E0
0783C0
0F03C0
0F03C0
0F0780
0F0780
0F0F80
0FFF00
07FE00
03F800
ENDCHAR
STARTCHAR uni01DC
ENCODING 476
SWIDTH 505 0
DWIDTH 14 0
BBX 15 26 0 0
BITMAP
0700
0380
0380
0380
0180
0000
0000
0E70
0E70
0E70
0000
0000
3C78
3CF8
78F0
78F0
78F0
78F0
F9E0
F1E0
F1E0
F1E2
F3E6
FFFC
FDF8
78F0
ENDCHAR
STARTCHAR uni01E4
ENCODING 484
SWIDTH 601 0
DWIDTH 17 0
BBX 16 27 1 -6
BITMAP
01F8
0FFC
1F0E
3E0E
7C0E
781E
F808
F000
F000
F01C
F01C
F1FF
F03C
F078
F8F8
7FF8
3F78
0078
00F0
08F0
3EF0
72E0
60E0
61E0
73C0
3F80
0E00
ENDCHAR
STARTCHAR uni01E5
ENCODING 485
SWIDTH 507 0
DWIDTH 14 0
BBX 15 21 0 -7
BITMAP
0FF8
1FF8
3C78
7878
78F0
F0F0
F0F0
F0F0
F0F0
F1E2
F1E6
FFE4
FFF8
7BF0
07C0
1BC0
7FF0
A7C0
2780
3F00
1E00
ENDCHAR
STARTCHAR Gcaron
ENCODING 486
SWIDTH 578 0
DWIDTH 16 0
BBX 17 34 1 -6
BITMAP
004180
006600
003C00
003800
003000
002000
000000
01F800
0FFC00
1F0E00
3E0E00
7C0E00
781C00
F80000
F00000
F00000
F01C00
F01C00
F03C00
F03C00
F07800
F8F800
7FF800
3F7800
007800
00F000
08F000
3EF000
72E000
60E000
61E000
73C000
3F8000
0E0000
ENDCHAR
STARTCHAR gcaron
ENCODING 487
SWIDTH 507 0
DWIDTH 14 0
BBX 15 28 0 -7
BITMAP
0106
0198
01F0
00E0
00C0
0000
0000
0FF8
1FF8
3C78
7878
78F0
F0F0
F0F0
F0F0
F0F0
F1E2
F1E6
FFE4
FFF8
7BF0
07C0
1FC0
33C0
33C0
2780
3F80
1E00
ENDCHAR
STARTCHAR uni01E8
ENCODING 488
SWIDTH 601 0
DWIDTH 17 0
BBX 20 27 0 0
BITMAP
000830
000CC0
000780
000700
000600
000000
01E1E0
0FE180
1DE300
33C700
73CE00
E3CC00
E3D800
E7F000
E7E000
67FC00
079E00
079E00
0F1E00
0F1E00
0F1E00
0F1E00
0F1C00
1E3C00
1E3C00
1E3C00
1E1E00
ENDCHAR
STARTCHAR uni01E9
ENCODING 489
SWIDTH 518 0
DWIDTH 15 0
BBX 17 25 -1 0
BITMAP
00C380
004E00
007C00
007000
002000
008000
0F0000
0F0000
1F0000
1E0000
1E0000
1E1C00
1E3000
3CE000
3D8000
3FF000
3FF000
3CF800
78F800
78F000
78F180
78F100
F8FF00
F0FE00
F07800
ENDCHAR
STARTCHAR uni01EA
ENCODING 490
SWIDTH 665 0
DWIDTH 19 0
BBX 18 34 0 -6
BITMAP
00E000
006000
007000
007000
003000
000000
000000
00FE00
07FF00
0E0380
1CF3C0
31E3C0
73C1C0
6781C0
E781C0
6F83C0
6F03C0
0F03C0
0F03C0
1F03C0
1E0780
1E0780
1E0F00
1E0F00
1E1E00
0F3C00
0FF800
07E000
030000
060000
060000
072000
07C000
038000
ENDCHAR
STARTCHAR uni01EB
ENCODING 491
SWIDTH 433 0
DWIDTH 12 0
BBX 17 20 -1 -6
BITMAP
03C000
0FE000
1E6000
3C7180
3C7E00
787800
787000
786000
F86000
F8E000
F8C000
79C000
7F8000
3E0000
100000
300000
700000
710000
3E0000
180000
ENDCHAR
STARTCHAR uni01EE
ENCODING 494
SWIDTH 525 0
DWIDTH 15 0
BBX 15 27 1 0
BITMAP
0106
0198
00F0
00E0
00C0
0000
1FFE
3FFC
3878
38F0
30F0
01E0
03C0
0780
0780
0FE0
01F0
00F8
00F8
0078
0078
E0F8
E0F8
C0F0
E1E0
FFC0
3F00
ENDCHAR
STARTCHAR uni01EF
ENCODING 495
SWIDTH 600 0
DWIDTH 17 0
BBX 14 27 0 -7
BITMAP
0618
0270
03C0
0380
0100
0000
3FE0
7FE0
73C0
6780
0780
0F00
0F00
1E00
1C00
3E0C
0E08
0F18
0F30
0F60
0F80
3F00
6F00
CF00
DF00
FE00
7800
ENDCHAR
STARTCHAR uni01F4
ENCODING 500
SWIDTH 578 0
DWIDTH 16 0
BBX 15 34 1 -6
BITMAP
000E
001C
0018
0038
0030
0040
0000
01F8
0FFC
1F0E
3E0E
7C0E
781C
F800
F000
F000
F01C
F01C
F03C
F03C
F078
F8F8
7FF8
3F78
0070
00F0
08F0
3EF0
72E0
60E0
61E0
73C0
3F80
0E00
ENDCHAR
STARTCHAR uni01F5
ENCODING 501
SWIDTH 507 0
DWIDTH 14 0
BBX 15 28 0 -7
BITMAP
0070
0060
00E0
00C0
01C0
0000
0000
0FF8
1FF8
3C78
7878
78F0
F0F0
F0F0
F0F0
F0F0
F1E2
F1E6
FFE4
FFF8
7BF0
07C0
1FC0
33C0
33C0
2780
3F80
1E00
ENDCHAR
STARTCHAR Aringacute
ENCODING 506
SWIDTH 668 0
DWIDTH 19 0
BBX 22 31 0 -3
BITMAP
00001C
000018
000030
0000E0
0000F0
0001B0
0000F0
0000E0
0003E0
000DE0
0019E0
0033E0
0033C0
0063C0
00E3C0
07C3C0
3FFF80
738F80
E38780
F70780
070780
0F0F00
0E0F00
1E0F00
1E0F00
1C1F00
1C1E00
3C1E00
3C0000
1C0000
1C0000
ENDCHAR
STARTCHAR aringacute
ENCODING 507
SWIDTH 526 0
DWIDTH 15 0
BBX 16 23 0 0
BITMAP
0030
0070
0060
00C0
0120
0120
0120
01C0
0000
0FF8
1FF8
3C78
7878
78F0
F0F0
F0F0
F0F0
F0F0
F1E1
F1E2
FFFE
FEFC
7870
ENDCHAR
STARTCHAR AEacute
ENCODING 508
SWIDTH 764 0
DWIDTH 21 0
BBX 25 31 0 -3
BITMAP
00000E00
00000C00
00001C00
00001800
00003000
00002000
00000000
0001E080
0007F080
000DFF80
0019FF80
0033E700
0073E000
0063C000
00C3C000
07C3C000
7FFFFC00
F38FF800
F3878000
67078000
07078000
0E0F0000
0E0F0000
1E0F0000
1E0F0000
1C1FFC00
3C1FFC00
3C1FF800
3C000000
1C000000
1C000000
ENDCHAR
STARTCHAR aeacute
ENCODING 509
SWIDTH 650 0
DWIDTH 18 0
BBX 19 21 0 0
BITMAP
000700
000600
000E00
000C00
001C00
000000
000000
0FCF80
1FFF80
30FCC0
00F9C0
00F180
00F380
1FF700
7FFE00
F1F800
F1E020
F3E040
FFF080
FEFF00
787C00
ENDCHAR
STARTCHAR Oslashacute
ENCODING 510
SWIDTH 658 0
DWIDTH 18 0
BBX 18 30 0 -2
BITMAP
0001C0
000380
000300
000700
000600
000C00
000000
000C00
000C00
01FC00
070F00
1CFB80
31DB80
739380
6793C0
E733C0
6F33C0
2F33C0
0F2380
1E2780
1E6780
1E6780
1E4F00
1E4E00
1E5E00
1FFC00
0FF800
07E000
008000
018000
ENDCHAR
STARTCHAR oslashacute
ENCODING 511
SWIDTH 428 0
DWIDTH 12 0
BBX 15 22 -2 -1
BITMAP
001C
0018
0038
0030
0060
0000
0000
01E6
07F4
0F38
1E18
1E38
3C78
3CF8
3DB8
3F30
3E70
3CE0
3FE0
1FC0
2F00
E000
ENDCHAR
STARTCHAR uni0200
ENCODING 512
SWIDTH 668 0
DWIDTH 19 0
BBX 20 30 0 -3
BITMAP
003BC0
001CC0
000CE0
000660
000630
000000
0001E0
0007E0
000DE0
0019E0
0033E0
0073C0
0063C0
00E3C0
07C3C0
3FFF80
738F80
E38780
F70780
070780
0F0F00
0E0F00
1E0F00
1E0F00
1C1F00
1C1E00
3C1E00
3C0000
1C0000
1C0000
ENDCHAR
STARTCHAR uni0201
ENCODING 513
SWIDTH 526 0
DWIDTH 15 0
BBX 16 21 0 0
BITMAP
39C0
1CC0
0C60
0660
0330
0000
0000
0FF8
1FF8
3C78
7878
78F0
F0F0
F0F0
F0F0
F0F0
F1E1
F1E2
FFFE
FEFC
7870
ENDCHAR
STARTCHAR uni0202
ENCODING 514
SWIDTH 668 0
DWIDTH 19 0
BBX 23 30 0 -3
BITMAP
000070
0003FC
00071C
00060E
000800
000000
0001E0
0007E0
000DE0
0019E0
0033E0
0073C0
0063C0
00E3C0
07C3C0
3FFF80
738F80
E38780
F70780
070780
0F0F00
0E0F00
1E0F00
1E0F00
1C1F00
1C1E00
3C1E00
3C0000
1C0000
1C0000
ENDCHAR
STARTCHAR uni0203
ENCODING 515
SWIDTH 526 0
DWIDTH 15 0
BBX 16 19 0 0
BITMAP
03F0
07F8
0E18
1C1C
0000
0FF8
1FF8
3C78
7878
78F0
F0F0
F0F0
F0F0
F0F0
F1E1
F1E2
FFFE
FEFC
7870
ENDCHAR
STARTCHAR uni0204
ENCODING 516
SWIDTH 459 0
DWIDTH 13 0
BBX 14 28 0 0
BITMAP
1CE0
0E60
0670
0330
0118
0000
0000
01F0
03F8
070C
0F0C
0E1C
0E38
0E00
0F00
0780
0FC0
1E00
3E00
7C00
7800
F800
F80C
F808
FC30
7FF0
7FC0
1F00
ENDCHAR
STARTCHAR uni0205
ENCODING 517
SWIDTH 384 0
DWIDTH 11 0
BBX 12 21 0 0
BITMAP
E700
7380
3180
18C0
0CC0
0000
0000
0780
1FC0
3CC0
78C0
78C0
F1C0
F380
FF00
F800
F030
F060
F9C0
FF80
3E00
ENDCHAR
STARTCHAR uni0206
ENCODING 518
SWIDTH 459 0
DWIDTH 13 0
BBX 16 27 0 0
BITMAP
007C
01FE
0387
0307
0000
0000
01F0
03F8
070C
0F0C
0E1C
0E38
0E00
0F00
0780
0FC0
1E00
3E00
7C00
7800
F800
F80C
F808
FC30
7FF0
7FC0
1F00
ENDCHAR
STARTCHAR uni0207
ENCODING 519
SWIDTH 384 0
DWIDTH 11 0
BBX 12 19 0 0
BITMAP
0FC0
1FE0
3060
7070
0000
0780
1FC0
3CC0
78C0
78C0
F1C0
F380
FF00
F800
F010
F060
F8C0
FF80
3E00
ENDCHAR
STARTCHAR uni0208
ENCODING 520
SWIDTH 375 0
DWIDTH 11 0
BBX 12 28 0 0
BITMAP
3B80
19C0
0CE0
0460
0630
0000
0000
01E0
07E0
1DE0
33C0
73C0
63C0
E3C0
E3C0
E780
6780
0780
0780
0F00
0F00
0F00
0F00
0F00
1E00
1E00
1E00
1E00
ENDCHAR
STARTCHAR uni0209
ENCODING 521
SWIDTH 267 0
DWIDTH 7 0
BBX 12 21 -3 0
BITMAP
E700
7300
3180
1880
0CC0
0000
0000
0780
0780
0F00
0F00
0F00
0F00
1F00
1E00
1E00
1E30
1E20
1FC0
1FC0
0F00
ENDCHAR
STARTCHAR uni020A
ENCODING 522
SWIDTH 375 0
DWIDTH 11 0
BBX 14 27 0 0
BITMAP
00E0
03F8
0E1C
0C1C
0000
0000
01E0
07E0
1DE0
33C0
73C0
63C0
E3C0
E3C0
E780
6780
0780
0780
0F00
0F00
0F00
0F00
0F00
1E00
1E00
1E00
1E00
ENDCHAR
STARTCHAR uni020B
ENCODING 523
SWIDTH 267 0
DWIDTH 7 0
BBX 9 19 0 0
BITMAP
3E00
7F00
C300
C300
0000
3C00
3C00
7800
7800
7800
7800
F800
F000
F000
F180
F100
FE00
FE00
7800
ENDCHAR
STARTCHAR uni020C
ENCODING 524
SWIDTH 665 0
DWIDTH 19 0
BBX 18 28 0 0
BITMAP
073800
039C00
01CC00
00C600
006600
000000
000000
00FE00
07FF00
0E0380
1CF3C0
31E3C0
73C1C0
6781C0
E781C0
6F83C0
6F03C0
0F03C0
0F03C0
1F03C0
1E0780
1E0780
1E0F00
1E0F00
1E1E00
0F3C00
0FF800
03E000
ENDCHAR
STARTCHAR uni020D
ENCODING 525
SWIDTH 433 0
DWIDTH 12 0
BBX 17 21 -1 0
BITMAP
738000
398000
18C000
0CC000
066000
000000
000000
03C000
0FE000
1E6000
3C7180
3C7E00
787800
787000
786000
F86000
F8E000
F8C000
7FC000
7F8000
3E0000
ENDCHAR
STARTCHAR uni020E
ENCODING 526
SWIDTH 665 0
DWIDTH 19 0
BBX 18 27 0 0
BITMAP
000E00
003F80
0071C0
00E0C0
000000
000000
00FE00
07FF00
0E0380
1CF3C0
31E3C0
73C1C0
6781C0
E781C0
6F83C0
6F03C0
0F03C0
0F03C0
1F03C0
1E0780
1E0780
1E0F00
1E0F00
1E1E00
0F3C00
0FF800
03E000
ENDCHAR
STARTCHAR uni020F
ENCODING 527
SWIDTH 433 0
DWIDTH 12 0
BBX 17 19 -1 0
BITMAP
03E000
0FF800
1C3800
1C1800
000000
03C000
0FE000
1E6000
3C7180
3C7E00
787800
787000
786000
F86000
F8E000
F8C000
79C000
7F8000
3E0000
ENDCHAR
STARTCHAR uni0210
ENCODING 528
SWIDTH 601 0
DWIDTH 17 0
BBX 16 28 0 0
BITMAP
1CE0
0E60
0630
0310
0198
0000
0000
01F8
0FFE
1C07
3BE7
73C7
E3C7
E3C7
E3CE
E79C
27FC
079E
079E
0F1E
0F1E
0F1E
0F1E
0F3C
1E3C
1E3C
1E3C
1E1E
ENDCHAR
STARTCHAR uni0211
ENCODING 529
SWIDTH 376 0
DWIDTH 11 0
BBX 12 21 -1 0
BITMAP
E700
7300
3180
1980
0CC0
0000
0000
1EE0
1FF0
3E70
3C60
3C00
3C00
3C00
7800
7800
7800
7800
F800
F000
F000
ENDCHAR
STARTCHAR uni0212
ENCODING 530
SWIDTH 601 0
DWIDTH 17 0
BBX 16 27 0 0
BITMAP
007C
01FE
0387
0307
0000
0000
01F8
0FFE
1C07
3BE7
73C7
E3C7
E3C7
E3CE
E79C
27FC
079E
079E
0F1E
0F1E
0F1E
0F1E
0F3C
1E3C
1E3C
1E3C
1E1E
ENDCHAR
STARTCHAR uni0213
ENCODING 531
SWIDTH 376 0
DWIDTH 11 0
BBX 13 19 -1 0
BITMAP
03E0
0FF0
1C38
3838
0000
1EE0
1FF0
3E70
3C60
3C00
3C00
3C00
7800
7800
7800
7800
F800
F000
F000
ENDCHAR
STARTCHAR uni0214
ENCODING 532
SWIDTH 716 0
DWIDTH 20 0
BBX 21 28 0 0
BITMAP
00EE00
006700
003300
003180
0018C0
000000
000000
01F078
0FE078
19E078
31E0F0
61E0F0
E3C0F0
E3C0F0
C3C0F0
C3C1E0
6781E0
0781E0
0781E0
0783C0
0F03C0
0F03C0
0F0780
0F0780
0F0F80
0FFF00
07FE00
03F800
ENDCHAR
STARTCHAR uni0215
ENCODING 533
SWIDTH 505 0
DWIDTH 14 0
BBX 15 21 0 0
BITMAP
7700
3380
3980
18C0
0C60
0000
0000
3C78
3CF8
78F0
78F0
78F0
78F0
F9E0
F1E0
F1E0
F1E2
F3E6
FFFC
FDF8
78F0
ENDCHAR
STARTCHAR uni0216
ENCODING 534
SWIDTH 716 0
DWIDTH 20 0
BBX 21 27 0 0
BITMAP
000380
000FE0
003870
003070
000000
000000
01F078
0FE078
19E078
31E0F0
61E0F0
E3C0F0
E3C0F0
C3C0F0
C3C1E0
6781E0
0781E0
0781E0
0783C0
0F03C0
0F03C0
0F0780
0F0780
0F0F80
0FFF00
07FE00
03F800
ENDCHAR
STARTCHAR uni0217
ENCODING 535
SWIDTH 505 0
DWIDTH 14 0
BBX 15 19 0 0
BITMAP
07E0
0FF0
1C30
3838
0000
3C78
3CF8
78F0
78F0
78F0
78F0
F9E0
F1E0
F1E0
F1E2
F3E6
FFFC
FDF8
78F0
ENDCHAR
STARTCHAR Scommaaccent
ENCODING 536
SWIDTH 570 0
DWIDTH 16 0
BBX 14 28 1 -7
BITMAP
01F0
07FC
0F1C
1E0C
1E0C
1E1C
1F08
0F80
07C0
07E0
03F0
01F0
38F8
7C78
F078
E078
E078
E078
F0F0
7FE0
1F80
0000
0400
0E00
0E00
0400
0800
0800
ENDCHAR
STARTCHAR scommaaccent
ENCODING 537
SWIDTH 382 0
DWIDTH 11 0
BBX 13 22 -1 -7
BITMAP
0080
0780
0F80
0F80
0F80
1F80
17C0
37C0
23C0
63C0
F3D8
C3E0
C7C0
7F00
3E00
0000
1000
3800
1800
1800
1000
3000
ENDCHAR
STARTCHAR uni021A
ENCODING 538
SWIDTH 481 0
DWIDTH 13 0
BBX 20 28 0 -7
BITMAP
03F010
0FFE10
3CFFF0
70FFE0
70F7C0
E0F000
E1F000
E1F000
E1E000
E1E000
61E000
03E000
03C000
03C000
03C000
03C000
078000
078000
078000
078000
0F8000
000000
000000
060000
070000
060000
060000
040000
ENDCHAR
STARTCHAR uni021B
ENCODING 539
SWIDTH 267 0
DWIDTH 7 0
BBX 8 25 0 -7
BITMAP
1E
3C
3C
3C
7F
7E
7C
78
78
78
78
F0
F0
F1
F1
FE
FE
78
00
40
E0
E0
60
40
80
ENDCHAR
STARTCHAR uni021E
ENCODING 542
SWIDTH 665 0
DWIDTH 19 0
BBX 20 27 0 0
BITMAP
000830
000CC0
000780
000700
000600
000000
01E1E0
07E1E0
1FE1E0
39E1E0
73C3C0
73C3C0
E3C3C0
E3C3C0
E3C3C0
67FF80
17FF80
078780
078780
0F8780
0F0F00
0F0F00
0F0F00
0F0F00
1E1F00
1E1E00
1E1E00
ENDCHAR
STARTCHAR uni021F
ENCODING 543
SWIDTH 600 0
DWIDTH 17 0
BBX 17 25 -1 0
BITMAP
004180
006600
003C00
003800
003000
000000
0F0000
0F0000
1F0000
1E0000
1E0000
1EF000
1FF800
3FF800
3E7800
3C7800
3C7800
3C7000
78F000
78F000
78F100
78F300
F8FE00
F0FC00
F07800
ENDCHAR
STARTCHAR uni0237
ENCODING 567
SWIDTH 240 0
DWIDTH 7 0
BBX 14 21 -6 -7
BITMAP
00F0
00F0
01E0
01E0
01E0
01E0
01E0
03C0
03C0
03C4
03C8
07C8
0790
07E0
0F80
3F80
6700
CF00
CF00
7E00
3C00
ENDCHAR
STARTCHAR uni0259
ENCODING 601
SWIDTH 404 0
DWIDTH 11 0
BBX 11 14 0 0
BITMAP
1F00
3FC0
63C0
41E0
01E0
07E0
1FE0
3BC0
63C0
E3C0
C780
CF00
FE00
7C00
ENDCHAR
STARTCHAR uni0292
ENCODING 658
SWIDTH 442 0
DWIDTH 12 0
BBX 14 21 0 -7
BITMAP
3FE0
7FE0
73C0
6780
0780
0F00
0F00
1E00
1C00
3E0C
0E08
0F18
0F30
0F60
0F80
3F00
6F00
CF00
DF00
FE00
7800
ENDCHAR
STARTCHAR uni02BB
ENCODING 699
SWIDTH 241 0
DWIDTH 7 0
BBX 4 7 3 14
BITMAP
10
30
60
60
F0
F0
70
ENDCHAR
STARTCHAR uni02BC
ENCODING 700
SWIDTH 228 0
DWIDTH 6 0
BBX 4 6 4 15
BITMAP
60
F0
70
60
60
C0
ENDCHAR
STARTCHAR circumflex
ENCODING 710
SWIDTH 293 0
DWIDTH 8 0
BBX 8 5 0 15
BITMAP
06
0E
1E
33
C1
ENDCHAR
STARTCHAR caron
ENCODING 711
SWIDTH 294 0
DWIDTH 8 0
BBX 8 5 3 15
BITMAP
83
CC
78
70
60
ENDCHAR
STARTCHAR uni02C9
ENCODING 713
SWIDTH 421 0
DWIDTH 12 0
BBX 10 2 3 16
BITMAP
7FC0
FFC0
ENDCHAR
STARTCHAR uni02CA
ENCODING 714
SWIDTH 256 0
DWIDTH 7 0
BBX 6 5 3 15
BITMAP
1C
38
30
60
C0
ENDCHAR
STARTCHAR uni02CB
ENCODING 715
SWIDTH 274 0
DWIDTH 8 0
BBX 4 5 4 15
BITMAP
E0
70
70
30
30
ENDCHAR
STARTCHAR breve
ENCODING 728
SWIDTH 431 0
DWIDTH 12 0
BBX 10 4 2 16
BITMAP
C0C0
E1C0
7F80
3E00
ENDCHAR
STARTCHAR dotaccent
ENCODING 729
SWIDTH 250 0
DWIDTH 7 0
BBX 4 4 2 16
BITMAP
E0
F0
F0
E0
ENDCHAR
STARTCHAR ring
ENCODING 730
SWIDTH 156 0
DWIDTH 4 0
BBX 4 5 0 15
BITMAP
20
F0
D0
F0
70
ENDCHAR
STARTCHAR ogonek
ENCODING 731
SWIDTH 291 0
DWIDTH 8 0
BBX 7 7 1 -6
BITMAP
18
20
60
E0
E2
FC
78
ENDCHAR
STARTCHAR tilde
ENCODING 732
SWIDTH 403 0
DWIDTH 11 0
BBX 11 3 1 16
BITMAP
3E20
7FE0
8F80
ENDCHAR
STARTCHAR hungarumlaut
ENCODING 733
SWIDTH 436 0
DWIDTH 12 0
BBX 10 5 2 16
BITMAP
1DC0
3980
3380
6300
C600
ENDCHAR
STARTCHAR gravecomb
ENCODING 768
SWIDTH 0 0
DWIDTH 0 0
BBX 4 5 -5 15
BITMAP
E0
60
60
30
30
ENDCHAR
STARTCHAR acutecomb
ENCODING 769
SWIDTH 0 0
DWIDTH 0 0
BBX 5 5 -5 15
BITMAP
38
70
60
C0
80
ENDCHAR
STARTCHAR uni0302
ENCODING 770
SWIDTH 0 0
DWIDTH 0 0
BBX 8 5 -8 15
BITMAP
02
0E
1F
3B
E1
ENDCHAR
STARTCHAR tildecomb
ENCODING 771
SWIDTH 0 0
DWIDTH 0 0
BBX 11 3 -10 16
BITMAP
3E20
7FC0
8F80
ENDCHAR
STARTCHAR uni0304
ENCODING 772
SWIDTH 0 0
DWIDTH 0 0
BBX 9 2 -8 16
BITMAP
FF80
FF80
ENDCHAR
STARTCHAR uni0306
ENCODING 774
SWIDTH 0 0
DWIDTH 0 0
BBX 10 4 -9 16
BITMAP
E0C0
E1C0
7F80
3E00
ENDCHAR
STARTCHAR uni0307
ENCODING 775
SWIDTH 0 0
DWIDTH 0 0
BBX 4 4 -3 16
BITMAP
E0
F0
F0
E0
ENDCHAR
STARTCHAR uni0308
ENCODING 776
SWIDTH 0 0
DWIDTH 0 0
BBX 9 3 -8 16
BITMAP
6300
F780
6300
ENDCHAR
STARTCHAR hookabovecomb
ENCODING 777
SWIDTH 0 0
DWIDTH 0 0
BBX 5 6 -6 15
BITMAP
F0
F8
18
18
70
40
ENDCHAR
STARTCHAR uni030A
ENCODING 778
SWIDTH 0 0
DWIDTH 0 0
BBX 5 5 -4 15
BITMAP
30
78
D8
F8
70
ENDCHAR
STARTCHAR uni030B
ENCODING 779
SWIDTH 0 0
DWIDTH 0 0
BBX 10 5 -8 16
BITMAP
3BC0
7300
6700
C600
CC00
ENDCHAR
STARTCHAR uni030C
ENCODING 780
SWIDTH 0 0
DWIDTH 0 0
BBX 9 5 -7 15
BITMAP
C380
4E00
7C00
3000
2000
ENDCHAR
STARTCHAR uni030F
ENCODING 783
SWIDTH 0 0
DWIDTH 0 0
BBX 10 5 -10 16
BITMAP
F700
3380
3980
18C0
0C40
ENDCHAR
STARTCHAR uni0311
ENCODING 785
SWIDTH 0 0
DWIDTH 0 0
BBX 10 4 -10 16
BITMAP
0700
3F80
71C0
E0C0
ENDCHAR
STARTCHAR uni031B
ENCODING 795
SWIDTH 0 0
DWIDTH 0 0
BBX 4 6 -3 12
BITMAP
70
70
70
60
C0
80
ENDCHAR
STARTCHAR dotbelowcomb
ENCODING 803
SWIDTH 0 0
DWIDTH 0 0
BBX 4 4 -5 -6
BITMAP
60
F0
F0
70
ENDCHAR
STARTCHAR uni0324
ENCODING 804
SWIDTH 0 0
DWIDTH 0 0
BBX 8 3 -12 -6
BITMAP
E7
E7
E7
ENDCHAR
STARTCHAR uni0326
ENCODING 806
SWIDTH 0 0
DWIDTH 0 0
BBX 3 5 -7 -7
BITMAP
60
E0
60
60
C0
ENDCHAR
STARTCHAR uni0327
ENCODING 807
SWIDTH 0 0
DWIDTH 0 0
BBX 6 7 -10 -6
BITMAP
30
20
28
7C
0C
9C
78
ENDCHAR
STARTCHAR uni0328
ENCODING 808
SWIDTH 0 0
DWIDTH 0 0
BBX 6 7 -10 -6
BITMAP
10
60
40
C0
E4
FC
78
ENDCHAR
STARTCHAR uni032E
ENCODING 814
SWIDTH 0 0
DWIDTH 0 0
BBX 9 3 -12 -5
BITMAP
C380
FF00
7E00
ENDCHAR
STARTCHAR uni0331
ENCODING 817
SWIDTH 0 0
DWIDTH 0 0
BBX 10 2 -13 -5
BITMAP
FFC0
FF80
ENDCHAR
STARTCHAR uni0335
ENCODING 821
SWIDTH 0 0
DWIDTH 0 0
BBX 10 2 -11 7
BITMAP
7FC0
FFC0
ENDCHAR
STARTCHAR uni0394
ENCODING 916
SWIDTH 619 0
DWIDTH 17 0
BBX 17 21 0 0
BITMAP
001C00
003C00
003E00
007E00
006E00
00EE00
00CE00
018E00
038600
030700
070700
060700
0E0700
1C0700
180700
380380
300380
700380
600380
FFFF80
FFFF80
ENDCHAR
STARTCHAR uni03A9
ENCODING 937
SWIDTH 745 0
DWIDTH 21 0
BBX 19 21 1 0
BITMAP
007E00
01FF80
0383C0
0701C0
0E00C0
1C00E0
1800E0
3800E0
3000E0
3000C0
3000C0
3001C0
300180
300180
300300
380700
180600
1C0C00
0C3800
FE3F80
FE7F80
ENDCHAR
STARTCHAR uni03BC
ENCODING 956
SWIDTH 505 0
DWIDTH 14 0
BBX 17 19 -2 -5
BITMAP
0F1E00
0F3E00
1E3C00
1E3C00
1E3C00
1E3C00
1E7800
3C7800
3C7800
3C7880
3CF980
7FFF00
7F7E00
7E3C00
780000
780000
F00000
F00000
800000
ENDCHAR
STARTCHAR pi
ENCODING 960
SWIDTH 530 0
DWIDTH 15 0
BBX 15 14 0 0
BITMAP
FFFE
FFFE
3870
3060
3060
3060
70E0
70E0
60C0
60C0
60C0
E1C0
C1C0
C0E0
ENDCHAR
STARTCHAR uni0400
ENCODING 1024
SWIDTH 459 0
DWIDTH 13 0
BBX 14 27 0 0
BITMAP
01C0
00E0
00E0
0060
0060
0000
01F0
03F8
070C
0F0C
0E1C
0E38
0E00
0F00
0780
0FC0
1E00
3E00
7C00
7800
F800
F80C
F808
FC30
7FF0
7FC0
1F00
ENDCHAR
STARTCHAR uni0401
ENCODING 1025
SWIDTH 459 0
DWIDTH 13 0
BBX 15 26 0 0
BITMAP
018E
01CE
01CE
0000
0000
01F0
03F8
070C
0F0C
0E1C
0E38
0E00
0F00
0780
0FC0
1E00
3E00
7C00
7800
F800
F80C
F808
FC30
7FF0
7FC0
1F00
ENDCHAR
STARTCHAR uni0402
ENCODING 1026
SWIDTH 725 0
DWIDTH 20 0
BBX 20 27 0 -6
BITMAP
03FC10
0FFFF0
3CFFF0
30F3E0
70F000
60F000
E0F000
E1F000
E1E000
61E700
21FFC0
01E3C0
03E3C0
03C3C0
03C3C0
03C3C0
03C3C0
0783C0
078780
078780
078780
000F00
000F00
011E00
01FC00
00FC00
007000
ENDCHAR
STARTCHAR uni0403
ENCODING 1027
SWIDTH 400 0
DWIDTH 11 0
BBX 18 27 0 0
BITMAP
000380
000300
000600
000600
000C00
000000
03FFC0
0FFF80
39FF80
71E000
73C000
E3C000
E3C000
E3C000
67C000
378000
078000
078000
078000
0F0000
0F0000
0F0000
0F0000
0F0000
1E0000
1E0000
1E0000
ENDCHAR
STARTCHAR uni0404
ENCODING 1028
SWIDTH 497 0
DWIDTH 14 0
BBX 14 21 1 0
BITMAP
03F0
07F8
0F0C
1E0C
3E1C
3C3C
7C00
7800
FFC0
FFC0
F800
F000
F000
F000
F000
F004
F808
F838
FFF0
7FC0
1F80
ENDCHAR
STARTCHAR uni0405
ENCODING 1029
SWIDTH 570 0
DWIDTH 16 0
BBX 14 21 1 0
BITMAP
01F0
07FC
0F1C
1E0C
1E0C
1E1C
1F08
0F80
07C0
07E0
03F0
01F0
38F8
7C78
F078
E078
E078
E078
F0F0
7FE0
1F80
ENDCHAR
STARTCHAR uni0406
ENCODING 1030
SWIDTH 374 0
DWIDTH 10 0
BBX 11 21 0 0
BITMAP
01E0
07E0
1DE0
39E0
73C0
63C0
E3C0
E3C0
67C0
6780
0780
0780
0780
0F00
0F00
0F00
0F00
0F00
1E00
1E00
1E00
ENDCHAR
STARTCHAR uni0407
ENCODING 1031
SWIDTH 375 0
DWIDTH 11 0
BBX 14 26 0 0
BITMAP
0318
07BC
0318
0000
0000
01E0
07E0
1DE0
33C0
73C0
63C0
E3C0
E3C0
E780
6780
0780
0780
0F00
0F00
0F00
0F00
0F00
1E00
1E00
1E00
1E00
ENDCHAR
STARTCHAR uni0408
ENCODING 1032
SWIDTH 536 0
DWIDTH 15 0
BBX 16 27 0 -6
BITMAP
000F
003F
00EF
01DE
039E
031E
071E
071E
073C
033C
003C
003C
007C
0078
0078
0078
0078
00F0
00F0
1CF0
7EF0
73F0
E1E0
61E0
63C0
7F80
1C00
ENDCHAR
STARTCHAR uni0409
ENCODING 1033
SWIDTH 817 0
DWIDTH 23 0
BBX 23 23 -1 -2
BITMAP
000780
001F80
003780
006F00
00CF00
018F00
038F00
030F00
071E60
0E1FF8
0E1E3C
1C1E1E
1C1E1E
383C1E
383C1E
783C1E
703C3C
707E3C
F07BF8
F07BF8
F079E0
F00000
700000
ENDCHAR
STARTCHAR uni040A
ENCODING 1034
SWIDTH 931 0
DWIDTH 26 0
BBX 25 21 0 0
BITMAP
01E1E000
07E1E000
1DE1E000
39E1E000
73C3C000
63C3C000
E3C3C000
E3C3C000
67FFD800
37FFFF00
07878F00
07878780
07878780
0F0F8780
0F0F0780
0F0F0780
0F0F0780
0F0F8F00
1E1FFF00
1E1EFE00
1E1E7800
ENDCHAR
STARTCHAR uni040B
ENCODING 1035
SWIDTH 745 0
DWIDTH 21 0
BBX 20 21 0 0
BITMAP
03FC10
1FFFF0
3CFFF0
70F3E0
70F000
E0F000
E0F000
E1E000
61E700
21FFC0
01E3C0
01E3C0
03C3C0
03C3C0
03C3C0
03C3C0
03C3C0
078780
078780
078780
0783C0
ENDCHAR
STARTCHAR uni040C
ENCODING 1036
SWIDTH 635 0
DWIDTH 18 0
BBX 19 27 0 0
BITMAP
000380
000300
000600
000600
000C00
000000
01E1C0
07E3E0
1DE7E0
39EEE0
73DC00
63D800
E3F000
E3F000
67E000
27FC00
079E00
078E00
078E00
0F1E00
0F1E00
0F1E00
0F1E00
0F3C00
1E3C00
1E3C00
1E1E00
ENDCHAR
STARTCHAR uni040D
ENCODING 1037
SWIDTH 705 0
DWIDTH 20 0
BBX 21 27 0 0
BITMAP
001C00
000C00
000C00
000600
000600
000000
01E0F8
07E0F0
1DE1F0
39E1F0
73C3F0
63C7E0
E3C7E0
E3CFE0
67CDE0
679BE0
079BC0
07B3C0
07F3C0
0F63C0
0FE780
0FC780
0F8780
0F8780
1F0780
1F0F00
1E0F00
ENDCHAR
STARTCHAR uni040E
ENCODING 1038
SWIDTH 644 0
DWIDTH 18 0
BBX 20 26 0 0
BITMAP
001C30
003C60
0039C0
001F80
000000
01E030
07F020
1DF060
38F060
70F0C0
60F8C0
E0F980
E07980
607900
207B00
007F00
003E00
003E00
003C00
001C00
001800
001800
039800
03B000
03E000
01C000
ENDCHAR
STARTCHAR uni040F
ENCODING 1039
SWIDTH 665 0
DWIDTH 19 0
BBX 19 30 0 -9
BITMAP
01E1E0
07E1E0
1DE1E0
39E1E0
73C3C0
63C3C0
E3C3C0
E3C3C0
67C3C0
678780
078780
078780
078780
0F0780
0F0F00
0F0F00
0F0F00
0F0F00
1E1F00
1FFE00
1FFE00
000000
038000
038000
03C000
03C000
01E000
01E000
00C000
018000
ENDCHAR
STARTCHAR uni0410
ENCODING 1040
SWIDTH 668 0
DWIDTH 19 0
BBX 19 24 0 -3
BITMAP
0001E0
0007E0
000DE0
0019E0
0033E0
0073C0
0063C0
00E3C0
07C3C0
3FFF80
738F80
E38780
F70780
070780
0F0F00
0E0F00
1E0F00
1E0F00
1C1F00
1C1E00
3C1E00
3C0000
1C0000
1C0000
ENDCHAR
STARTCHAR uni0411
ENCODING 1041
SWIDTH 638 0
DWIDTH 18 0
BBX 18 21 0 0
BITMAP
03FFC0
1FFF80
33DF80
73C000
63C000
E3C000
E78000
E78000
679000
27FE00
078F00
0F0F00
0F0700
0F0780
0F0700
0F0F00
1E0F00
1E9F00
1EFE00
1EFC00
3E7800
ENDCHAR
STARTCHAR uni0412
ENCODING 1042
SWIDTH 641 0
DWIDTH 18 0
BBX 17 21 0 0
BITMAP
01FC00
07FE00
1E0700
39E700
73C300
63C700
E3C700
E3CE00
E7FC00
67FF00
078F00
078780
078780
0F0780
0F0780
0F0780
0F0F00
0F8F00
1EFE00
1EFE00
1E7800
ENDCHAR
STARTCHAR uni0413
ENCODING 1043
SWIDTH 400 0
DWIDTH 11 0
BBX 18 21 0 0
BITMAP
03FFC0
0FFF80
39FF80
71E000
73C000
E3C000
E3C000
E3C000
67C000
378000
078000
078000
078000
0F0000
0F0000
0F0000
0F0000
0F0000
1E0000
1E0000
1E0000
ENDCHAR
STARTCHAR uni0414
ENCODING 1044
SWIDTH 669 0
DWIDTH 19 0
BBX 19 21 -1 0
BITMAP
00FE00
07FF80
0E03C0
1CF1C0
39E1E0
31E1E0
71E1E0
71E1E0
33E1E0
03C1E0
03C1E0
03C1E0
07C1E0
0783C0
3F83C0
6783C0
C78780
CF8F00
CF9F00
7EFE00
3C7800
ENDCHAR
STARTCHAR uni0415
ENCODING 1045
SWIDTH 459 0
DWIDTH 13 0
BBX 14 21 0 0
BITMAP
01F0
03F8
070C
0F0C
0E1C
0E38
0E00
0F00
0780
0FC0
1E00
3E00
7C00
7800
F800
F80C
F808
FC30
7FF0
7FC0
1F00
ENDCHAR
STARTCHAR uni0416
ENCODING 1046
SWIDTH 777 0
DWIDTH 22 0
BBX 24 21 -1 0
BITMAP
0F010F
0F8F1F
0F8F3F
0DCF77
00DF60
00DEC0
00DEC0
00DEC0
00DF80
00FF80
07FFE0
0FFFF0
1E3C78
1E3C78
1C7870
3C78F0
3C78F0
3C78E0
3CF9E0
78F1E0
F0F0F0
ENDCHAR
STARTCHAR uni0417
ENCODING 1047
SWIDTH 525 0
DWIDTH 15 0
BBX 14 21 0 0
BITMAP
03F0
0FF8
087C
103C
203C
007C
0078
00F0
07E0
0FE0
01F0
00F8
0078
0078
0078
F0F8
E0F8
E0F0
E1E0
FFC0
3F00
ENDCHAR
STARTCHAR uni0418
ENCODING 1048
SWIDTH 705 0
DWIDTH 20 0
BBX 21 21 0 0
BITMAP
01E0F8
07E0F0
1DE1F0
39E1F0
73C3F0
63C7E0
E3C7E0
E3CFE0
67CDE0
679BE0
079BC0
07B3C0
07F3C0
0F63C0
0FE780
0FC780
0F8780
0F8780
1F0780
1F0F00
1E0F00
ENDCHAR
STARTCHAR uni0419
ENCODING 1049
SWIDTH 705 0
DWIDTH 20 0
BBX 21 26 0 0
BITMAP
003820
003860
0039C0
003F80
000000
01E0F8
07E0F0
1DE1F0
39E1F0
73C3F0
63C7E0
E3C7E0
E3CFE0
67CDE0
679BE0
079BC0
07B3C0
07F3C0
0F63C0
0FE780
0FC780
0F8780
0F8780
1F0780
1F0F00
1E0F00
ENDCHAR
STARTCHAR uni041A
ENCODING 1050
SWIDTH 635 0
DWIDTH 18 0
BBX 19 21 0 0
BITMAP
01E1C0
07E3E0
1DE7E0
39EEE0
73DC00
63D800
E3F000
E3F000
67E000
27FC00
079E00
078E00
078E00
0F1E00
0F1E00
0F1E00
0F1E00
0F3C00
1E3C00
1E3C00
1E1E00
ENDCHAR
STARTCHAR uni041B
ENCODING 1051
SWIDTH 549 0
DWIDTH 15 0
BBX 17 24 -1 -3
BITMAP
000780
001F80
003780
006F80
00CF00
018F00
038F00
030F00
071E00
0E1E00
0E1E00
1C1E00
1C1E00
3C3C00
383C00
783C00
783C00
707C00
F07800
F07800
F07800
F00000
F00000
700000
ENDCHAR
STARTCHAR uni041C
ENCODING 1052
SWIDTH 787 0
DWIDTH 22 0
BBX 21 21 2 0
BITMAP
03E0F8
0FE0F0
19E1F0
33E1F0
63E1F0
E3E3F0
E7E3F0
E7E7E0
EFE7E0
6DE7E0
0DEDE0
1DCDE0
19DDE0
19D9E0
33DBE0
33F3C0
33F3C0
63F3C0
63E3C0
E3E3C0
C3C3C0
ENDCHAR
STARTCHAR uni041D
ENCODING 1053
SWIDTH 665 0
DWIDTH 19 0
BBX 19 21 0 0
BITMAP
01E1E0
07E1E0
1FE1E0
39E1E0
73C3C0
73C3C0
E3C3C0
E3C3C0
E3C3C0
67FF80
17FF80
078780
078780
0F8780
0F0F00
0F0F00
0F0F00
0F0F00
1E1F00
1E1E00
1E1E00
ENDCHAR
STARTCHAR uni041E
ENCODING 1054
SWIDTH 665 0
DWIDTH 19 0
BBX 18 21 0 0
BITMAP
00FE00
07FF00
0E0380
1CF3C0
31E3C0
73C1C0
6781C0
E781C0
6F83C0
6F03C0
0F03C0
0F03C0
1F03C0
1E0780
1E0780
1E0F00
1E0F00
1E1E00
0F3C00
0FF800
03E000
ENDCHAR
STARTCHAR uni041F
ENCODING 1055
SWIDTH 688 0
DWIDTH 19 0
BBX 22 21 0 0
BITMAP
03FC04
0FFFFC
3FFFF8
79E3F0
73C1E0
63C3C0
E3C3C0
E3C3C0
E7C3C0
6787C0
078780
078780
078780
0F0780
0F0F00
0F0F00
0F0F00
0F0F00
1E1F00
1E1E00
1E1E00
ENDCHAR
STARTCHAR uni0420
ENCODING 1056
SWIDTH 573 0
DWIDTH 16 0
BBX 17 21 0 0
BITMAP
01F800
07FE00
1C0F00
39E700
73C780
63C780
E3C780
E3C700
E78700
678E00
078E00
07BC00
0FF000
0F0000
0F0000
0F0000
0F0000
1E0000
1E0000
1E0000
1E0000
ENDCHAR
STARTCHAR uni0421
ENCODING 1057
SWIDTH 497 0
DWIDTH 14 0
BBX 14 21 1 0
BITMAP
03F0
07F8
0F0C
1E0C
3E1C
3C3C
7C00
7800
F800
F800
F800
F000
F000
F000
F000
F004
F808
F838
FFF0
7FE0
1F80
ENDCHAR
STARTCHAR uni0422
ENCODING 1058
SWIDTH 481 0
DWIDTH 13 0
BBX 20 21 0 0
BITMAP
03F010
0FFE10
3CFFF0
70FFE0
70F7C0
E0F000
E1F000
E1F000
E1E000
E1E000
61E000
03E000
03C000
03C000
03C000
03C000
078000
078000
078000
078000
0F8000
ENDCHAR
STARTCHAR uni0423
ENCODING 1059
SWIDTH 644 0
DWIDTH 18 0
BBX 20 21 0 0
BITMAP
01E030
07F020
1DF060
38F060
70F0C0
60F8C0
E0F980
E07980
607900
207B00
007F00
003E00
003E00
003C00
001C00
001800
001800
039800
03B000
03E000
01C000
ENDCHAR
STARTCHAR uni0424
ENCODING 1060
SWIDTH 786 0
DWIDTH 22 0
BBX 20 22 1 0
BITMAP
03FC00
1E3C00
383C00
383C00
087800
00FE00
0F7FC0
1C79E0
7878F0
70F0F0
F0F0F0
F0F0F0
E0F0F0
E1F0F0
E1E0E0
F1E1E0
F1E3C0
79E780
3FFF00
07F800
03C000
03C000
ENDCHAR
STARTCHAR uni0425
ENCODING 1061
SWIDTH 620 0
DWIDTH 17 0
BBX 18 21 0 0
BITMAP
01E1C0
07E180
1DF300
31F300
71F600
60F400
E0FC00
E0F800
E0F800
607800
007800
007800
007C00
00FC00
01BC00
01BC00
033E00
023E00
063E00
041E00
0C1E00
ENDCHAR
STARTCHAR uni0426
ENCODING 1062
SWIDTH 692 0
DWIDTH 19 0
BBX 20 26 0 -5
BITMAP
01E1E0
07E1E0
1DE1E0
39E1E0
73C3C0
63C3C0
E3C3C0
E3C3C0
67C3C0
678780
078780
078780
078780
0F0780
0F0F00
0F0F00
0F0F00
0F0F00
1E1E00
1FDE00
1FFE00
00FE00
003FF0
000FF0
0007E0
0003C0
ENDCHAR
STARTCHAR uni0427
ENCODING 1063
SWIDTH 695 0
DWIDTH 19 0
BBX 20 21 0 0
BITMAP
01E0F0
07E0F0
1DE0F0
39E0F0
73C1E0
63C1E0
E3C1E0
E3C1E0
E3C3C0
63C3C0
03C3C0
03FFC0
01FBC0
000780
000780
000780
000780
000780
000F00
000F00
000F00
ENDCHAR
STARTCHAR uni0428
ENCODING 1064
SWIDTH 906 0
DWIDTH 25 0
BBX 26 21 0 0
BITMAP
01E3E3C0
07E3C3C0
1DE3C3C0
39E3C780
73C3C780
63C78780
E3C78780
E3C78780
67C78F00
67878F00
078F0F00
078F0F00
078F1F00
0F0F1E00
0F1F1E00
0F1E1E00
0F1E1E00
0F1E3C00
1E1E3C00
1FFFFC00
1FFFFC00
ENDCHAR
STARTCHAR uni0429
ENCODING 1065
SWIDTH 934 0
DWIDTH 26 0
BBX 27 26 0 -5
BITMAP
01E3E3C0
07E3C3C0
1DE3C3C0
39E3C780
73C3C780
63C78780
E3C78780
E3C78780
67878F00
67878F00
078F0F00
078F0F00
078F1F00
0F0F1E00
0F1F1E00
0F1E1E00
0F1E1E00
0F1E3C00
1E1E3C00
1FFC3C00
1FFF3C00
007FFC00
000FFFE0
0001FFC0
00003FC0
00000F80
ENDCHAR
STARTCHAR uni042A
ENCODING 1066
SWIDTH 714 0
DWIDTH 20 0
BBX 19 21 0 0
BITMAP
03F800
0FF800
387800
307800
60F000
60F000
E0F000
E0F000
61E600
31FFC0
01E3C0
01E1E0
01E1E0
03C1E0
03C1E0
03C1E0
03C1C0
03E3C0
07BF80
07BF80
079E00
ENDCHAR
STARTCHAR uni042B
ENCODING 1067
SWIDTH 909 0
DWIDTH 25 0
BBX 26 21 0 0
BITMAP
01E003C0
07E003C0
1DE003C0
31E007C0
73C00780
63C00780
E3C00780
E3C00780
67980F00
17FE0F00
078F0F00
07878F00
07878F00
0F079E00
0F079E00
0F079E00
0F0F1E00
0F8F1E00
1EFE3C00
1EFE3C00
1E783C00
ENDCHAR
STARTCHAR uni042C
ENCODING 1068
SWIDTH 640 0
DWIDTH 18 0
BBX 17 21 0 0
BITMAP
01E000
07E000
1DE000
31E000
73C000
63C000
E3C000
E3C000
679800
17FE00
078F00
078780
078780
0F0780
0F0780
0F0780
0F0F00
0F8F00
1EFE00
1EFE00
1E7800
ENDCHAR
STARTCHAR uni042D
ENCODING 1069
SWIDTH 544 0
DWIDTH 15 0
BBX 15 21 0 0
BITMAP
03F0
0FF8
187C
303E
203E
003E
003E
003E
0FFE
0FFE
003E
003C
007C
007C
0078
E0F8
E0F0
C1F0
C3E0
F7C0
3E00
ENDCHAR
STARTCHAR uni042E
ENCODING 1070
SWIDTH 946 0
DWIDTH 26 0
BBX 26 21 0 0
BITMAP
01E07E00
07E1FF00
1DE10780
39E2F3C0
73C1C3C0
63C3C3C0
E3C781C0
E3C783C0
E7CF03C0
67FF03C0
17FF03C0
079F03C0
079E0380
0F9E0780
0F1E0780
0F1E0F00
0F1E0F00
0F1E1E00
1E1F3C00
1E0FF800
1E07E000
ENDCHAR
STARTCHAR uni042F
ENCODING 1071
SWIDTH 630 0
DWIDTH 18 0
BBX 20 21 -1 0
BITMAP
007F80
01FFE0
03C070
070F70
0F1F30
0E1E30
0E1E60
0E1E00
071E00
07BC00
07FC00
0F3C00
1E3C00
1C7C00
1C7800
3C7800
3C7800
387800
38F800
78F000
F0F000
ENDCHAR
STARTCHAR uni0430
ENCODING 1072
SWIDTH 526 0
DWIDTH 15 0
BBX 16 14 0 0
BITMAP
0FF8
1FF8
3C78
7878
78F0
F0F0
F0F0
F0F0
F0F0
F1E1
F1E2
FFFE
FEFC
7870
ENDCHAR
STARTCHAR uni0431
ENCODING 1073
SWIDTH 430 0
DWIDTH 12 0
BBX 16 21 0 0
BITMAP
0003
07FE
0FFE
0FFE
07FC
0700
0380
0180
07C0
1FC0
3CE0
7860
F8E0
F0E0
F0E0
F0C0
F1C0
F180
F380
FF00
3C00
ENDCHAR
STARTCHAR uni0432
ENCODING 1074
SWIDTH 449 0
DWIDTH 13 0
BBX 16 21 0 0
BITMAP
03C0
07E0
0E20
0E20
1C60
1C60
3C60
3840
78C0
78C1
7B86
F3FC
F3E0
F0E0
F0E0
F0E0
F0C0
F0C0
F980
7F00
3E00
ENDCHAR
STARTCHAR uni0433
ENCODING 1075
SWIDTH 375 0
DWIDTH 11 0
BBX 12 14 -1 0
BITMAP
0F80
1FC0
3FE0
23E0
63C0
43C0
0780
1F00
3C00
7810
F820
F8E0
7F80
3F00
ENDCHAR
STARTCHAR uni0434
ENCODING 1076
SWIDTH 507 0
DWIDTH 14 0
BBX 15 21 0 -7
BITMAP
0FF8
1FF8
3C78
7878
78F0
F0F0
F0F0
F0F0
F0F0
F1E2
F1E6
FFE4
FFF8
7BF0
07C0
1FC0
33C0
33C0
2780
3F80
1E00
ENDCHAR
STARTCHAR uni0435
ENCODING 1077
SWIDTH 384 0
DWIDTH 11 0
BBX 12 14 0 0
BITMAP
0780
1FC0
3CC0
78C0
78C0
F1C0
F380
FF00
F800
F010
F060
F8C0
FF80
3E00
ENDCHAR
STARTCHAR uni0436
ENCODING 1078
SWIDTH 882 0
DWIDTH 25 0
BBX 26 14 -1 0
BITMAP
1F0F0F00
3F8F1F80
638F3980
63CF7980
03CE7000
03FFF000
03FFF000
039EF000
039CF000
E7BCE040
C73CF040
C73CF080
FE3C7F00
7C383C00
ENDCHAR
STARTCHAR uni0437
ENCODING 1079
SWIDTH 498 0
DWIDTH 14 0
BBX 15 21 0 -7
BITMAP
07C0
1FE0
1FF0
31F0
60F0
60F0
40F0
C1E0
81E0
03C2
1F02
1F84
078C
03F8
03E0
0FC0
3BC0
23C0
2780
3F00
1E00
ENDCHAR
STARTCHAR uni0438
ENCODING 1080
SWIDTH 505 0
DWIDTH 14 0
BBX 15 14 0 0
BITMAP
3C78
3CF8
78F0
78F0
78F0
78F0
F9E0
F1E0
F1E0
F1E2
F3E6
FFFC
FDF8
78F0
ENDCHAR
STARTCHAR uni0439
ENCODING 1081
SWIDTH 505 0
DWIDTH 14 0
BBX 15 19 0 0
BITMAP
0E18
1E10
0C70
0FC0
0000
3C78
3CF8
78F0
78F0
78F0
78F0
F9E0
F1E0
F1E0
F1E2
F3E6
FFFC
FDF8
78F0
ENDCHAR
STARTCHAR uni043A
ENCODING 1082
SWIDTH 501 0
DWIDTH 14 0
BBX 16 14 -1 0
BITMAP
1E1C
1E3C
3C7C
3CDC
3D80
3FC0
3FF0
7CF0
78F0
78F1
78F3
F8FE
F0FC
F078
ENDCHAR
STARTCHAR uni043B
ENCODING 1083
SWIDTH 558 0
DWIDTH 16 0
BBX 18 14 -1 0
BITMAP
007E00
00FE00
019E00
011E00
011C00
033C00
033C00
023C00
023800
E678C0
E67880
C47F00
FC3F00
781C00
ENDCHAR
STARTCHAR uni043C
ENCODING 1084
SWIDTH 827 0
DWIDTH 23 0
BBX 25 14 -1 0
BITMAP
00783E00
00F83E00
01F87C00
01787C00
0378FC00
0378BC00
0379B800
02797800
027B7800
E63A7880
E63E7980
C43C7F00
FC3C7E00
78383C00
ENDCHAR
STARTCHAR uni043D
ENCODING 1085
SWIDTH 507 0
DWIDTH 14 0
BBX 16 14 -1 0
BITMAP
1E3C
1E3C
3C38
3C78
3C78
3C78
3FF0
7FF0
78F0
78F1
78F3
F8FE
F0FC
F078
ENDCHAR
STARTCHAR uni043E
ENCODING 1086
SWIDTH 439 0
DWIDTH 12 0
BBX 16 14 0 0
BITMAP
0780
1FC0
3CE0
78E3
78FE
F8F0
F0E0
F0E0
F0C0
F1C0
F180
F380
FF00
3C00
ENDCHAR
STARTCHAR uni043F
ENCODING 1087
SWIDTH 505 0
DWIDTH 14 0
BBX 16 14 -1 0
BITMAP
1EF0
1FF8
3E78
3C78
3C78
3C78
3C70
78F0
78F0
78F1
78F3
F8FE
F0FC
F078
ENDCHAR
STARTCHAR uni0440
ENCODING 1088
SWIDTH 468 0
DWIDTH 13 0
BBX 15 22 -3 -7
BITMAP
0780
07BC
07FE
0F9E
0F0E
0F0E
0F1E
1F1E
1E1E
1E1E
1E3C
1E3C
3EF8
3FF8
3DE0
3C00
3C00
7800
7800
7800
7800
8000
ENDCHAR
STARTCHAR uni0441
ENCODING 1089
SWIDTH 384 0
DWIDTH 11 0
BBX 12 14 0 0
BITMAP
0780
1FC0
3CC0
78C0
7880
F800
F000
F000
F000
F030
F060
F8C0
FF80
3E00
ENDCHAR
STARTCHAR uni0442
ENCODING 1090
SWIDTH 752 0
DWIDTH 21 0
BBX 23 14 -1 0
BITMAP
1EF1E0
1FFFF0
3E7CF0
3C78F0
3C78F0
3C78F0
3CF1E0
78F1E0
78F1E0
78F1E2
78F1E6
F9E1FC
F1E1F8
F1E0F0
ENDCHAR
STARTCHAR uni0443
ENCODING 1091
SWIDTH 486 0
DWIDTH 14 0
BBX 15 21 0 -7
BITMAP
3C78
3CF8
78F0
78F0
78F0
78F0
F9E0
F1E0
F1E0
F1E6
F3E4
FFCC
FFD8
7BE0
0FC0
1BC0
3780
6780
6F80
7F00
3E00
ENDCHAR
STARTCHAR uni0444
ENCODING 1092
SWIDTH 738 0
DWIDTH 21 0
BBX 20 26 0 -7
BITMAP
003C00
003C00
003C00
003800
003800
0FFBC0
1FFFE0
3C79E0
7870E0
78F0F0
F0F0F0
F0F1E0
F0E1E0
F0E1E0
F1E1E0
F1E3C0
FFE7C0
FFFF80
7BDE00
03C000
03C000
03C000
038000
078000
078000
040000
ENDCHAR
STARTCHAR uni0445
ENCODING 1093
SWIDTH 522 0
DWIDTH 15 0
BBX 16 15 0 0
BITMAP
0018
071C
1F9C
33CC
23D8
43F0
43E0
43C0
83C0
87C0
05C3
0DE2
19FC
30FC
6070
ENDCHAR
STARTCHAR uni0446
ENCODING 1094
SWIDTH 535 0
DWIDTH 15 0
BBX 13 21 0 -7
BITMAP
3C78
3CF8
78F0
78F0
78F0
78F0
F9E0
F1E0
F1E0
F1E0
F3E0
FFF8
FDF8
78E8
0018
0018
0FF0
1FF0
1FE0
1FC0
2000
ENDCHAR
STARTCHAR uni0447
ENCODING 1095
SWIDTH 505 0
DWIDTH 14 0
BBX 14 14 1 0
BITMAP
78F0
79F0
F1E0
F1E0
F1E0
F1E0
F3C0
FFC0
FFC0
7BC4
03CC
03F8
03F0
01E0
ENDCHAR
STARTCHAR uni0448
ENCODING 1096
SWIDTH 752 0
DWIDTH 21 0
BBX 22 14 0 0
BITMAP
3C78F0
3CF9E0
78F1E0
78F1E0
78F1E0
78F1E0
F9E3C0
F1E3C0
F1E3C0
F1E3C4
F3E7CC
FFFFF8
FDFBF0
78F1E0
ENDCHAR
STARTCHAR uni0449
ENCODING 1097
SWIDTH 782 0
DWIDTH 22 0
BBX 20 21 0 -7
BITMAP
3C78F0
3CF9E0
78F1E0
78F1E0
78F1E0
78F1E0
F9E3C0
F1E3C0
F1E3C0
F1E3C0
F3E7C0
FFFFF0
FDFBF0
78F1D0
000030
000030
001FE0
003FE0
003FC0
007F80
004000
ENDCHAR
STARTCHAR uni044A
ENCODING 1098
SWIDTH 448 0
DWIDTH 13 0
BBX 11 14 0 0
BITMAP
7F00
FE00
EC00
EC00
1BC0
3FE0
78E0
70E0
F0E0
F1E0
F1E0
F3C0
FF80
3E00
ENDCHAR
STARTCHAR uni044B
ENCODING 1099
SWIDTH 655 0
DWIDTH 18 0
BBX 20 14 0 0
BITMAP
3C0380
380780
781F80
787700
7BEF00
7FCF00
70CF00
F0CE00
F0DE10
F1DE20
F19E60
F39FC0
FF1FC0
7C0F00
ENDCHAR
STARTCHAR uni044C
ENCODING 1100
SWIDTH 448 0
DWIDTH 13 0
BBX 11 14 0 0
BITMAP
3C00
3C00
7800
7800
7FC0
7FE0
79E0
F0E0
F0E0
F1E0
F1E0
FBC0
FF80
3E00
ENDCHAR
STARTCHAR uni044D
ENCODING 1101
SWIDTH 413 0
DWIDTH 12 0
BBX 11 14 -1 0
BITMAP
0F80
1FE0
33E0
61E0
01E0
0FE0
0FE0
01E0
01E0
C3C0
C380
C780
FF00
7C00
ENDCHAR
STARTCHAR uni044E
ENCODING 1102
SWIDTH 675 0
DWIDTH 19 0
BBX 23 14 -1 0
BITMAP
1E0F80
1E1FC0
3C3CC0
3C78C2
3C79CC
3CF1F0
3FF0C0
7FF0C0
79E0C0
79E1C0
79E180
F9F300
F0FF00
F07C00
ENDCHAR
STARTCHAR uni044F
ENCODING 1103
SWIDTH 527 0
DWIDTH 15 0
BBX 17 14 -1 0
BITMAP
03FC00
0FFC00
0E3C00
1E3C00
1C3800
1C7800
1E7800
0FF800
07F800
667080
E6F100
CCFF00
FC7E00
783C00
ENDCHAR
STARTCHAR uni0450
ENCODING 1104
SWIDTH 384 0
DWIDTH 11 0
BBX 12 20 0 0
BITMAP
0E00
0600
0700
0300
0300
0000
0780
1FC0
3CC0
78C0
78C0
F1C0
F380
FF00
F800
F010
F060
F8C0
FF80
3E00
ENDCHAR
STARTCHAR uni0451
ENCODING 1105
SWIDTH 384 0
DWIDTH 11 0
BBX 12 19 0 0
BITMAP
0C60
1EF0
0C60
0000
0000
0780
1FC0
3CC0
78C0
78C0
F1C0
F380
FF00
F800
F010
F060
F8C0
FF80
3E00
ENDCHAR
STARTCHAR uni0452
ENCODING 1106
SWIDTH 491 0
DWIDTH 14 0
BBX 16 26 -1 -7
BITMAP
0F00
0F00
0F00
1E00
3FE0
7FC0
1E00
3EE0
3FF0
3FF8
3C78
3C70
78F0
78F0
78F1
78F2
F8E6
F1EC
F1F8
03E0
0FC0
1BC0
33C0
33C0
1F80
0F00
ENDCHAR
STARTCHAR uni0453
ENCODING 1107
SWIDTH 375 0
DWIDTH 11 0
BBX 12 20 -1 0
BITMAP
0070
0060
00C0
00C0
0180
0000
0F80
1FC0
3FE0
23E0
63C0
43C0
0780
1F00
3C00
7810
F820
F8E0
7F80
3F00
ENDCHAR
STARTCHAR uni0454
ENCODING 1108
SWIDTH 384 0
DWIDTH 11 0
BBX 12 14 0 0
BITMAP
0780
1FC0
3CC0
78C0
7800
FF00
FF00
F000
F000
F030
F060
F8C0
FF00
3E00
ENDCHAR
STARTCHAR uni0455
ENCODING 1109
SWIDTH 382 0
DWIDTH 11 0
BBX 13 15 -1 0
BITMAP
0080
0780
0F80
0F80
0F80
1F80
17C0
37C0
23C0
63C0
F3D8
C3E0
C7C0
7F00
3E00
ENDCHAR
STARTCHAR uni0456
ENCODING 1110
SWIDTH 267 0
DWIDTH 7 0
BBX 9 19 0 0
BITMAP
1C00
1E00
3E00
1C00
0000
3C00
3C00
7800
7800
7800
7800
F800
F000
F000
F180
F100
FE00
FE00
7800
ENDCHAR
STARTCHAR uni0457
ENCODING 1111
SWIDTH 267 0
DWIDTH 7 0
BBX 9 19 0 0
BITMAP
6300
F780
6300
0000
0000
3C00
3C00
7800
7800
7800
7800
F800
F000
F000
F180
F100
FE00
FE00
7800
ENDCHAR
STARTCHAR uni0458
ENCODING 1112
SWIDTH 240 0
DWIDTH 7 0
BBX 14 26 -6 -7
BITMAP
0070
00F8
00F8
0070
0000
00F0
00F0
01E0
01E0
01E0
01E0
01E0
03C0
03C0
03C4
03C8
07C8
0790
07E0
0F80
3F80
6700
CF00
CF00
7E00
3C00
ENDCHAR
STARTCHAR uni0459
ENCODING 1113
SWIDTH 745 0
DWIDTH 21 0
BBX 21 14 -1 0
BITMAP
007E00
00FE00
019E00
019E00
031FE0
033FF0
033C78
033C78
063C78
E67870
E678F0
CC79E0
FC3FC0
781F80
ENDCHAR
STARTCHAR uni045A
ENCODING 1114
SWIDTH 694 0
DWIDTH 19 0
BBX 19 14 -1 0
BITMAP
1E3C00
1E3C00
3C3800
3C7800
3C7B80
3C7FE0
3FFFE0
7FF0E0
78F0E0
78F1E0
78F1E0
F8F3C0
F0FF80
F03E00
ENDCHAR
STARTCHAR uni045B
ENCODING 1115
SWIDTH 505 0
DWIDTH 14 0
BBX 16 19 -1 0
BITMAP
0F00
0F00
0F00
1E00
3FE0
7FC0
1E00
3EE0
3FF0
3FF8
3CF8
3C70
78F0
78F0
78F1
78F3
F8FE
F0FC
F078
ENDCHAR
STARTCHAR uni045C
ENCODING 1116
SWIDTH 501 0
DWIDTH 14 0
BBX 16 20 -1 0
BITMAP
003C
0030
0070
0060
00C0
0000
1E1C
1E3C
3C7C
3CDC
3D80
3FC0
3FF0
7CF0
78F0
78F1
78F3
F8FE
F0FC
F078
ENDCHAR
STARTCHAR uni045D
ENCODING 1117
SWIDTH 505 0
DWIDTH 14 0
BBX 15 20 0 0
BITMAP
0700
0700
0300
0300
0180
0000
3C78
3CF8
78F0
78F0
78F0
78F0
F9E0
F1E0
F1E0
F1E2
F3E6
FFFC
FDF8
78F0
ENDCHAR
STARTCHAR uni045E
ENCODING 1118
SWIDTH 486 0
DWIDTH 14 0
BBX 15 26 0 -7
BITMAP
0E18
1E10
0C60
0FC0
0000
3C78
3CF8
78F0
78F0
78F0
78F0
F9E0
F1E0
F1E0
F1E6
F3E4
FFCC
FFD8
7BE0
0FC0
1BC0
3780
6780
6F80
7F00
3E00
ENDCHAR
STARTCHAR uni045F
ENCODING 1119
SWIDTH 505 0
DWIDTH 14 0
BBX 15 21 0 -7
BITMAP
3C78
3CF8
78F0
78F0
78F0
78F0
F9E0
F1E0
F1E0
F1E2
F3E6
FFFC
FDF8
78F0
0200
0600
0F00
0F00
0700
0600
0400
ENDCHAR
STARTCHAR uni0462
ENCODING 1122
SWIDTH 659 0
DWIDTH 18 0
BBX 17 21 0 0
BITMAP
01E000
01E000
01C000
03C000
0FFF80
3FFF80
73FF00
E78000
E79800
67FE00
078F00
0F0F00
0F0780
0F0780
0F0780
0F0F00
1E0F00
1E9F00
1EFE00
1EFC00
3E7800
ENDCHAR
STARTCHAR uni0463
ENCODING 1123
SWIDTH 692 0
DWIDTH 19 0
BBX 19 14 -1 0
BITMAP
1EF000
1FF800
3E7800
3C7800
3C7FC0
3C7FE0
3C71E0
78F0E0
78F1E0
78F1E0
78F1C0
F8F3C0
F0FF80
F07E00
ENDCHAR
STARTCHAR uni046A
ENCODING 1130
SWIDTH 834 0
DWIDTH 23 0
BBX 21 21 1 0
BITMAP
01FFF8
07FFF0
1DF030
38F860
70F840
7078C0
607D80
607F00
603F00
17FFF0
0FBCF8
1E3C78
1E3C78
1E3C78
1C7870
3C78F0
3C78F0
3C78F0
3C78E0
78F1E0
F8F0F0
ENDCHAR
STARTCHAR uni046B
ENCODING 1131
SWIDTH 750 0
DWIDTH 21 0
BBX 17 14 1 0
BITMAP
0FFF80
1BC300
31E600
71E400
71EC00
30F800
0FFF00
1EF780
3CF380
3CE780
39E780
39E780
79E700
F1E780
ENDCHAR
STARTCHAR uni0472
ENCODING 1138
SWIDTH 665 0
DWIDTH 19 0
BBX 18 21 0 0
BITMAP
00FE00
07FF00
0E0380
1CF3C0
31E3C0
73C1C0
6781C0
E781C0
6F81C0
6F23C0
0FFFC0
0F1BC0
1E03C0
1E0780
1E0780
1E0F00
1E0F00
1E1E00
0F3C00
0FF800
07E000
ENDCHAR
STARTCHAR uni0473
ENCODING 1139
SWIDTH 439 0
DWIDTH 12 0
BBX 16 14 0 0
BITMAP
0780
1FC0
3CE0
78E3
78FE
F8F0
F6E0
FFE0
F3C0
F1C0
F180
FF80
FF00
3C00
ENDCHAR
STARTCHAR uni0474
ENCODING 1140
SWIDTH 668 0
DWIDTH 19 0
BBX 21 21 0 0
BITMAP
01E078
07E0F0
1DE1E0
31E1C0
71E3C0
61E380
E1E380
E1E700
E1E700
61E600
01E600
01E600
01EC00
01EC00
01EC00
01E800
01E800
01F800
01F000
01F000
01F000
ENDCHAR
STARTCHAR uni0475
ENCODING 1141
SWIDTH 414 0
DWIDTH 12 0
BBX 11 14 0 0
BITMAP
3CE0
3CE0
78E0
7860
7860
7860
F860
F0C0
F0C0
F180
F180
FF00
FE00
7C00
ENDCHAR
STARTCHAR uni0490
ENCODING 1168
SWIDTH 431 0
DWIDTH 12 0
BBX 18 24 0 0
BITMAP
000040
0000C0
0000C0
03FFC0
1FFF80
3BDF00
73C000
63C000
63C000
E3C000
E78000
678000
278000
078000
078000
0F0000
0F0000
0F0000
0F0000
1F0000
1E0000
1E0000
1E0000
1E0000
ENDCHAR
STARTCHAR uni0491
ENCODING 1169
SWIDTH 342 0
DWIDTH 10 0
BBX 12 16 -1 0
BITMAP
0060
0070
1FE0
1FC0
3C00
3C00
3C00
3C00
3C00
7800
7800
7800
7800
F000
F000
F000
ENDCHAR
STARTCHAR uni0492
ENCODING 1170
SWIDTH 400 0
DWIDTH 11 0
BBX 18 21 0 0
BITMAP
03FFC0
0FFF80
39FF80
71E000
73C000
E3C000
E3C000
E3C000
678000
378000
078000
3FF000
078000
0F0000
0F0000
0F0000
0F0000
0F0000
1E0000
1E0000
1E0000
ENDCHAR
STARTCHAR uni0493
ENCODING 1171
SWIDTH 375 0
DWIDTH 11 0
BBX 12 14 -1 0
BITMAP
0F80
1FC0
3FE0
63E0
43C0
07C0
7FE0
FFE0
7C00
7810
F820
F8C0
7F80
3E00
ENDCHAR
STARTCHAR uni0494
ENCODING 1172
SWIDTH 665 0
DWIDTH 19 0
BBX 18 22 0 -1
BITMAP
03FFC0
0FFF80
39FF80
71E000
73C000
E3C000
E3C000
E3C000
67FC00
77FF00
078700
078780
078780
0F0780
0F0780
0F0780
0F0780
0F0780
1E0F00
1EFE00
1EFC00
007800
ENDCHAR
STARTCHAR uni0495
ENCODING 1173
SWIDTH 486 0
DWIDTH 14 0
BBX 16 21 -1 -7
BITMAP
1FF8
1FF8
3DF0
3C00
3C00
3DE0
3FF0
7DF0
78F0
78F3
78F2
F9E6
F1EC
F1F8
03E0
0FC0
1BC0
33C0
3380
3F80
1F00
ENDCHAR
STARTCHAR uni0496
ENCODING 1174
SWIDTH 777 0
DWIDTH 22 0
BBX 24 29 -1 -8
BITMAP
0F010F
0F8F1F
0F8F3F
0DCF77
00DF60
00DEC0
00DEC0
00DEC0
00DF80
00FF80
07FFE0
0FFFF0
1E3C78
1E3C78
1C7870
3C78F0
3C78F0
3C78E0
3CF9E0
78F1E0
F0F0F0
0000C0
0001C0
0001C0
0001E0
0000F0
0000F0
000060
0000C0
ENDCHAR
STARTCHAR uni0497
ENCODING 1175
SWIDTH 882 0
DWIDTH 25 0
BBX 27 21 -1 -7
BITMAP
1F0F0F00
3F8F1F80
638F3980
63CF7980
03CE7000
03FFF000
03FFF000
039EF000
039CF020
C7BCE040
C73CF040
C73CF180
FE3C7F00
7C383C00
00001800
00001800
00003C00
00003C00
00001C00
00000800
00001000
ENDCHAR
STARTCHAR uni0498
ENCODING 1176
SWIDTH 525 0
DWIDTH 15 0
BBX 14 29 0 -8
BITMAP
03F0
0FF8
087C
103C
203C
007C
0078
00F0
07E0
0FE0
01F0
00F8
0078
0078
0078
F0F8
E0F8
E0F0
E1E0
FFC0
3F00
0C00
0E00
0E00
0F00
0F00
0700
0300
0600
ENDCHAR
STARTCHAR uni0499
ENCODING 1177
SWIDTH 498 0
DWIDTH 14 0
BBX 15 28 0 -14
BITMAP
07C0
1FE0
1FF0
31F0
60F0
60F0
40F0
C1E0
81E0
03C2
1F02
1F84
078C
03F8
03E0
0FC0
33C0
27C0
2780
3F00
1E00
0800
1800
3C00
3C00
1C00
0800
1000
ENDCHAR
STARTCHAR uni049A
ENCODING 1178
SWIDTH 635 0
DWIDTH 18 0
BBX 19 29 0 -8
BITMAP
01E1C0
07E3E0
1DE7E0
39EEE0
73DC00
63D800
E3F000
E3F000
67E000
27FC00
079E00
078E00
078E00
0F0E00
0F1E00
0F1E00
0F1E00
0F1C00
1E3C00
1E3C00
1E3E00
001800
003800
003C00
003E00
001E00
000E00
000E00
000C00
ENDCHAR
STARTCHAR uni049B
ENCODING 1179
SWIDTH 501 0
DWIDTH 14 0
BBX 16 21 -1 -7
BITMAP
1E1C
1E3C
3C7C
3CDC
3D80
3FE0
3FF0
7CF0
78F0
78F1
78F3
F8FE
F0FC
F078
0020
0070
0070
0078
0030
0030
0020
ENDCHAR
STARTCHAR uni049C
ENCODING 1180
SWIDTH 721 0
DWIDTH 20 0
BBX 21 21 0 0
BITMAP
01E078
07E0F8
1DE1F8
39E3B8
73C300
63C600
E3D600
E3DC00
67F800
27FF00
07A780
07A780
07E780
0F0780
0F0F00
0F0F00
0F0F00
0F0F00
1E1E00
1E0E00
1E0F00
ENDCHAR
STARTCHAR uni049D
ENCODING 1181
SWIDTH 551 0
DWIDTH 15 0
BBX 18 14 -1 0
BITMAP
1E0F00
1E1F00
3C3700
3D4000
3D8000
3FF800
3FF800
7A7800
7E7800
7E78C0
7E7880
F87F80
F07F00
F03C00
ENDCHAR
STARTCHAR uni04A0
ENCODING 1184
SWIDTH 691 0
DWIDTH 19 0
BBX 21 21 0 0
BITMAP
03F870
1FF9F8
3CF3F8
70F330
60F600
E0FC00
E1FC00
E1F800
E1F800
21FF00
01E780
03C780
03C780
03C780
03C780
03C700
078F00
078F00
078F00
078F00
0F8F80
ENDCHAR
STARTCHAR uni04A1
ENCODING 1185
SWIDTH 676 0
DWIDTH 19 0
BBX 20 14 0 0
BITMAP
0FE1C0
7FE3C0
F3C7C0
E3CDC0
E3D800
E3F400
E7FE00
07DF00
078F00
078F10
078F30
0F0FE0
0F0FC0
0F0780
ENDCHAR
STARTCHAR uni04A2
ENCODING 1186
SWIDTH 665 0
DWIDTH 19 0
BBX 20 26 0 -5
BITMAP
01E1E0
07E1E0
1DE1E0
39E1E0
73C3C0
63C3C0
E3C3C0
E3C3C0
67FFC0
37FF80
078780
078780
078780
0F0F80
0F0F00
0F0F00
0F0F00
0F0F00
1E1F00
1E1E00
1E1E00
000780
0003F0
0003F0
0001E0
0001C0
ENDCHAR
STARTCHAR uni04A3
ENCODING 1187
SWIDTH 507 0
DWIDTH 14 0
BBX 16 21 -1 -7
BITMAP
1E3C
1E3C
3C38
3C78
3C78
3FF8
3FF0
78F0
78F0
78F1
78F3
F0FE
F0FC
F078
0020
0070
0078
0078
0030
0030
0020
ENDCHAR
STARTCHAR uni04A4
ENCODING 1188
SWIDTH 689 0
DWIDTH 19 0
BBX 26 21 0 0
BITMAP
01E1FFC0
07E1FFC0
19E1EF80
33E1E000
73C3C000
63C3C000
E3C3C000
E3C3C000
E7C3C000
67FF8000
17FF8000
07878000
07878000
0F878000
0F0F0000
0F0F0000
0F0F0000
0F0F0000
1E1F0000
1E1E0000
1E1E0000
ENDCHAR
STARTCHAR uni04A5
ENCODING 1189
SWIDTH 681 0
DWIDTH 19 0
BBX 21 14 -1 0
BITMAP
1E3FF8
1E3FF0
3C3BF0
3C7800
3C7800
3FF800
3FF000
78F000
78F000
78F100
78F300
F0FE00
F0FC00
F07800
ENDCHAR
STARTCHAR uni04AA
ENCODING 1194
SWIDTH 497 0
DWIDTH 14 0
BBX 14 29 1 -8
BITMAP
01F0
07F8
0F0C
1E0C
3E1C
3C3C
7C10
7800
F800
F800
F800
F000
F000
F000
F000
F000
F004
F818
FE70
7FE0
3F80
0E00
0E00
0F00
0F00
0780
0700
0300
0600
ENDCHAR
STARTCHAR uni04AB
ENCODING 1195
SWIDTH 384 0
DWIDTH 11 0
BBX 12 21 0 -7
BITMAP
0780
1FC0
3CC0
78C0
7880
F800
F000
F000
F000
F030
F060
F8C0
FF80
7E00
1800
3800
3C00
3C00
1C00
0800
1000
ENDCHAR
STARTCHAR uni04AE
ENCODING 1198
SWIDTH 620 0
DWIDTH 17 0
BBX 20 21 0 0
BITMAP
01E070
07E060
1DF040
31F0C0
70F0C0
60F180
E0F980
E0F900
E07B00
607A00
007E00
007C00
003C00
007C00
007C00
007800
007800
007800
00F800
00F800
00F000
ENDCHAR
STARTCHAR uni04AF
ENCODING 1199
SWIDTH 480 0
DWIDTH 13 0
BBX 12 21 1 -7
BITMAP
F8E0
78F0
78F0
7830
7820
7820
7860
7840
78C0
7880
7900
3F00
3E00
3C00
3C00
3C00
7800
7800
7800
7800
E000
ENDCHAR
STARTCHAR uni04B0
ENCODING 1200
SWIDTH 620 0
DWIDTH 17 0
BBX 20 21 0 0
BITMAP
01E070
07E060
1DF040
31F0C0
70F0C0
60F180
E0F980
E0F900
E07B00
607A00
007E00
007C00
01FF00
01FF00
007C00
007800
007800
007800
00F800
00F800
00F000
ENDCHAR
STARTCHAR uni04B1
ENCODING 1201
SWIDTH 480 0
DWIDTH 13 0
BBX 13 21 0 -7
BITMAP
7C70
3C78
3C78
3C18
3C10
3C10
3C30
3C20
3C60
3C40
3C80
1F80
1F00
FFC0
FF80
1E00
3C00
3C00
3C00
3C00
7000
ENDCHAR
STARTCHAR uni04B6
ENCODING 1206
SWIDTH 695 0
DWIDTH 19 0
BBX 21 26 0 -5
BITMAP
01E0F0
07E0F0
1DE0F0
39E0F0
73C1E0
63C1E0
E3C1E0
E3C1E0
E3C3C0
63C3C0
03C3C0
03FFC0
01FBC0
000780
000780
000780
000780
000780
000F00
000F00
000F00
0003C0
0001F8
0001F0
0000F0
0000E0
ENDCHAR
STARTCHAR uni04B7
ENCODING 1207
SWIDTH 505 0
DWIDTH 14 0
BBX 14 21 1 -7
BITMAP
78F0
79F0
F1E0
F1E0
F1E0
F1E0
F3C0
FFC0
FFC0
7BC4
03CC
03F8
03F0
01E0
0080
01C0
01C0
01E0
00C0
00C0
0080
ENDCHAR
STARTCHAR uni04B8
ENCODING 1208
SWIDTH 715 0
DWIDTH 20 0
BBX 21 21 0 0
BITMAP
01E078
07E0F8
1DE0F0
39E0F0
73C0F0
63C0F0
E3C1E0
E3C1E0
E3C9E0
63C9E0
03FFE0
03FFC0
00FBC0
0013C0
0013C0
0023C0
000780
000780
000780
000780
000F00
ENDCHAR
STARTCHAR uni04B9
ENCODING 1209
SWIDTH 545 0
DWIDTH 15 0
BBX 15 14 1 0
BITMAP
7878
7878
F0F0
F0F0
F6F0
F6F0
F5F0
FFE0
FFE0
7DE2
09E2
09FC
01F8
00F0
ENDCHAR
STARTCHAR uni04BA
ENCODING 1210
SWIDTH 679 0
DWIDTH 19 0
BBX 17 21 0 0
BITMAP
01E000
07E000
1DE000
3BE000
73C000
63C000
E3C000
E3C000
67BF00
17FF80
07C780
078780
078780
0F0780
0F0780
0F0780
0F0780
0F0780
1E0F00
1E0F00
1E0F00
ENDCHAR
STARTCHAR uni04BB
ENCODING 1211
SWIDTH 505 0
DWIDTH 14 0
BBX 16 19 -1 0
BITMAP
0F00
0F00
1F00
1E00
1E00
1EF0
1FF8
3FF8
3E78
3C78
3C78
3C70
78F0
78F0
78F1
78F3
F8FE
F0FC
F078
ENDCHAR
STARTCHAR uni04C0
ENCODING 1216
SWIDTH 375 0
DWIDTH 11 0
BBX 11 21 0 0
BITMAP
01E0
07E0
1DE0
33C0
73C0
63C0
E3C0
E3C0
E780
6780
0780
0780
0F00
0F00
0F00
0F00
0F00
1E00
1E00
1E00
1E00
ENDCHAR
STARTCHAR uni04C1
ENCODING 1217
SWIDTH 777 0
DWIDTH 22 0
BBX 24 26 -1 0
BITMAP
001C30
003C20
0038C0
001F80
000000
0F010F
0F8F1F
0F8F3F
0DCF77
00DF60
00DEC0
00DEC0
00DEC0
00DF80
00FF80
07FFE0
0FFFF0
1E3C78
1E3C78
1C7870
3C78F0
3C78F0
3C78E0
3CF9E0
78F1E0
F0F0F0
ENDCHAR
STARTCHAR uni04C2
ENCODING 1218
SWIDTH 882 0
DWIDTH 25 0
BBX 26 19 -1 0
BITMAP
001C3000
003C6000
0039C000
001F8000
00000000
1F0F0F00
3F8F1F80
638F3980
63CF7980
03CE7000
03FFF000
03FFF000
039EF000
039CF000
E7BCE040
C73CF040
C73CF080
FE3C7F00
7C383C00
ENDCHAR
STARTCHAR uni04CB
ENCODING 1227
SWIDTH 695 0
DWIDTH 19 0
BBX 20 24 0 -3
BITMAP
01E0F0
07E0F0
1DE0F0
39E0F0
73C1E0
63C1E0
E3C1E0
E3C1E0
E3C3C0
63C3C0
03E7C0
03FFC0
01FBC0
000780
000780
000780
000780
000780
000F00
000F00
043F00
07F000
07E000
03C000
ENDCHAR
STARTCHAR uni04CC
ENCODING 1228
SWIDTH 516 0
DWIDTH 14 0
BBX 15 21 1 -7
BITMAP
78F0
78F0
78F0
F9E0
F1E0
F1E0
F3E0
FFE0
FFC0
7BC6
03C4
03CC
03F8
01F0
00C0
0080
3F80
7F80
FF00
FE00
8000
ENDCHAR
STARTCHAR uni04CF
ENCODING 1231
SWIDTH 267 0
DWIDTH 7 0
BBX 9 19 0 0
BITMAP
1E00
1E00
3E00
3C00
3C00
3C00
3C00
7800
7800
7800
7800
7800
F000
F000
F180
F100
FE00
FE00
7800
ENDCHAR
STARTCHAR uni04D0
ENCODING 1232
SWIDTH 668 0
DWIDTH 19 0
BBX 23 29 0 -3
BITMAP
000386
00078C
000738
0003F0
000000
0001E0
0007E0
000DE0
0019E0
0033E0
0073C0
0063C0
00E3C0
07C3C0
3FFF80
738F80
E38780
F70780
070780
0F0F00
0E0F00
1E0F00
1E0F00
1C1F00
1C1E00
3C1E00
3C0000
1C0000
1C0000
ENDCHAR
STARTCHAR uni04D1
ENCODING 1233
SWIDTH 526 0
DWIDTH 15 0
BBX 16 19 0 0
BITMAP
0704
070C
0738
03F0
0000
0FF8
1FF8
3C78
7878
78F0
F0F0
F0F0
F0F0
F0F0
F1E1
F1E2
FFFE
FEFC
7870
ENDCHAR
STARTCHAR uni04D2
ENCODING 1234
SWIDTH 668 0
DWIDTH 19 0
BBX 22 29 0 -3
BITMAP
00039C
00039C
00039C
000000
000000
0001E0
0007E0
000DE0
0019E0
0033E0
0073C0
0063C0
00E3C0
07C3C0
3FFF80
738F80
E38780
F70780
070780
0F0F00
0E0F00
1E0F00
1E0F00
1C1F00
1C1E00
3C1E00
3C0000
1C0000
1C0000
ENDCHAR
STARTCHAR uni04D3
ENCODING 1235
SWIDTH 526 0
DWIDTH 15 0
BBX 16 19 0 0
BITMAP
0318
07BC
0318
0000
0000
0FF8
1FF8
3C78
7878
78F0
F0F0
F0F0
F0F0
F0F0
F1E1
F1E2
FFFE
FEFC
7870
ENDCHAR
STARTCHAR uni04D4
ENCODING 1236
SWIDTH 764 0
DWIDTH 21 0
BBX 25 24 0 -3
BITMAP
0001E080
0007F080
000DFF80
0019FF80
0033E700
0073E000
0063C000
00C3C000
07C3C000
7FFFFC00
F38FF800
F3878000
67078000
07078000
0E0F0000
0E0F0000
1E0F0000
1E0F0000
1C1FFC00
3C1FFC00
3C1FF800
3C000000
1C000000
1C000000
ENDCHAR
STARTCHAR uni04D5
ENCODING 1237
SWIDTH 650 0
DWIDTH 18 0
BBX 19 14 0 0
BITMAP
0FCF80
1FFF80
30FCC0
00F9C0
00F180
00F380
1FF700
7FFE00
F1F800
F1E020
F3E040
FFF080
FEFF00
787C00
ENDCHAR
STARTCHAR uni04D6
ENCODING 1238
SWIDTH 459 0
DWIDTH 13 0
BBX 16 26 0 0
BITMAP
0383
03C6
039C
01F8
0000
01F0
03F8
070C
0F0C
0E1C
0E38
0E00
0F00
0780
0FC0
1E00
3E00
7C00
7800
F800
F80C
F808
FC30
7FF0
7FC0
1F00
ENDCHAR
STARTCHAR uni04D7
ENCODING 1239
SWIDTH 384 0
DWIDTH 11 0
BBX 12 19 0 0
BITMAP
1C10
1E30
1CE0
0FC0
0000
0780
1FC0
3CC0
78C0
78C0
F1C0
F380
FF00
F800
F010
F060
F8C0
FF80
3E00
ENDCHAR
STARTCHAR uni04D8
ENCODING 1240
SWIDTH 544 0
DWIDTH 15 0
BBX 14 21 1 0
BITMAP
0FC0
1FF0
3FF8
30F8
207C
007C
003C
003C
007C
03FC
0FFC
1C7C
3878
70F8
F0F0
E0F0
E1E0
E1C0
E380
FF00
3C00
ENDCHAR
STARTCHAR uni04D9
ENCODING 1241
SWIDTH 404 0
DWIDTH 11 0
BBX 11 14 0 0
BITMAP
1F00
3FC0
63C0
41E0
01E0
07E0
1FE0
3BC0
63C0
E3C0
C780
CF00
FE00
7C00
ENDCHAR
STARTCHAR uni04DC
ENCODING 1244
SWIDTH 777 0
DWIDTH 22 0
BBX 24 26 -1 0
BITMAP
001CE0
001CE0
001CE0
000000
000000
0F010F
0F8F1F
0F8F3F
0DCF77
00DF60
00DEC0
00DEC0
00DEC0
00DF80
00FF80
07FFE0
0FFFF0
1E3C78
1E3C78
1C7870
3C78F0
3C78F0
3C78E0
3CF9E0
78F1E0
F0F0F0
ENDCHAR
STARTCHAR uni04DD
ENCODING 1245
SWIDTH 882 0
DWIDTH 25 0
BBX 26 19 -1 0
BITMAP
001CE000
001CE000
001CE000
00000000
00000000
1F0F0F00
3F8F1F80
638F3980
63CF7980
03CE7000
03FFF000
03FFF000
039EF000
039CF000
E7BCE040
C73CF040
C73CF080
FE3C7F00
7C383C00
ENDCHAR
STARTCHAR uni04DE
ENCODING 1246
SWIDTH 525 0
DWIDTH 15 0
BBX 15 26 0 0
BITMAP
038C
039E
038C
0000
0000
03F0
0FF8
087C
103C
203C
007C
0078
00F0
07E0
0FE0
01F0
00F8
0078
0078
0078
F0F8
E0F8
E0F0
E1E0
FFC0
3F00
ENDCHAR
STARTCHAR uni04DF
ENCODING 1247
SWIDTH 498 0
DWIDTH 14 0
BBX 15 26 0 -7
BITMAP
0630
0F78
0630
0000
0000
07C0
1FE0
1FF0
31F0
60F0
60F0
40F0
C1E0
81E0
03C2
1F02
1F84
078C
03F8
03E0
0FC0
3BC0
23C0
2780
3F00
1E00
ENDCHAR
STARTCHAR uni04E2
ENCODING 1250
SWIDTH 705 0
DWIDTH 20 0
BBX 21 25 0 0
BITMAP
003FE0
003FE0
000000
000000
01E0F8
07E0F0
1DE1F0
39E1F0
73C3F0
63C7E0
E3C7E0
E3CFE0
67CDE0
679BE0
079BC0
07B3C0
07F3C0
0F63C0
0FE780
0FC780
0F8780
0F8780
1F0780
1F0F00
1E0F00
ENDCHAR
STARTCHAR uni04E3
ENCODING 1251
SWIDTH 505 0
DWIDTH 14 0
BBX 15 18 0 0
BITMAP
0FF8
0FF8
1000
0000
3C78
3CF8
78F0
78F0
78F0
78F0
F9E0
F1E0
F1E0
F1E2
F3E6
FFFC
FDF8
78F0
ENDCHAR
STARTCHAR uni04E4
ENCODING 1252
SWIDTH 705 0
DWIDTH 20 0
BBX 21 26 0 0
BITMAP
0018C0
003DE0
0018C0
000000
000000
01E0F8
07E0F0
1DE1F0
39E1F0
73C3F0
63C7E0
E3C7E0
E3CFE0
67CDE0
679BE0
079BC0
07B3C0
07F3C0
0F63C0
0FE780
0FC780
0F8780
0F8780
1F0780
1F0F00
1E0F00
ENDCHAR
STARTCHAR uni04E5
ENCODING 1253
SWIDTH 505 0
DWIDTH 14 0
BBX 15 19 0 0
BITMAP
0E70
0E70
0E70
0000
0000
3C78
3CF8
78F0
78F0
78F0
78F0
F9E0
F1E0
F1E0
F1E2
F3E6
FFFC
FDF8
78F0
ENDCHAR
STARTCHAR uni04E6
ENCODING 1254
SWIDTH 665 0
DWIDTH 19 0
BBX 18 26 0 0
BITMAP
0039C0
0039C0
0039C0
000000
000000
00FE00
07FF00
0E0380
1CF3C0
31E3C0
73C1C0
6781C0
E781C0
6F83C0
6F03C0
0F03C0
0F03C0
1F03C0
1E0780
1E0780
1E0F00
1E0F00
1E1E00
0F3C00
0FF800
03E000
ENDCHAR
STARTCHAR uni04E7
ENCODING 1255
SWIDTH 439 0
DWIDTH 12 0
BBX 16 19 0 0
BITMAP
0630
0F78
0630
0000
0000
0780
1FC0
3CE0
78E3
78FE
F8F0
F0E0
F0E0
F0C0
F1C0
F180
F380
FF00
3C00
ENDCHAR
STARTCHAR uni04E8
ENCODING 1256
SWIDTH 665 0
DWIDTH 19 0
BBX 18 21 0 0
BITMAP
00FE00
07FF00
0E0380
38F3C0
31E1C0
73C1C0
6781C0
E781C0
6F83C0
6F03C0
0FFFC0
0F03C0
1F03C0
1E0780
1E0780
1E0F00
1E0F00
1E1E00
0F3C00
0FF800
03E000
ENDCHAR
STARTCHAR uni04E9
ENCODING 1257
SWIDTH 439 0
DWIDTH 12 0
BBX 16 14 0 0
BITMAP
0780
1FC0
3CE0
78E3
78FE
FFF0
FFE0
F0E0
F0C0
F1C0
F180
F380
FF00
3C00
ENDCHAR
STARTCHAR uni04EE
ENCODING 1262
SWIDTH 644 0
DWIDTH 18 0
BBX 20 25 0 0
BITMAP
001FF0
003FE0
000000
000000
01E030
07F020
1DF060
38F060
70F0C0
60F8C0
E0F980
E07980
607900
207B00
007F00
003E00
003E00
003C00
001C00
001800
001800
039800
03B000
03E000
01C000
ENDCHAR
STARTCHAR uni04EF
ENCODING 1263
SWIDTH 486 0
DWIDTH 14 0
BBX 15 25 0 -7
BITMAP
0FF8
1FF8
0000
0000
3C78
3CF8
78F0
78F0
78F0
78F0
F9E0
F1E0
F1E0
F1E6
F3E4
FFCC
FFD8
7BE0
0FC0
1BC0
3780
6780
6F80
7F00
3E00
ENDCHAR
STARTCHAR uni04F0
ENCODING 1264
SWIDTH 644 0
DWIDTH 18 0
BBX 20 26 0 0
BITMAP
001CE0
001CE0
001CE0
000000
000000
01E030
07F020
1DF060
38F060
70F0C0
60F8C0
E0F980
E07980
607900
207B00
007F00
003E00
003E00
003C00
001C00
001800
001800
039800
03B000
03E000
01C000
ENDCHAR
STARTCHAR uni04F1
ENCODING 1265
SWIDTH 486 0
DWIDTH 14 0
BBX 15 26 0 -7
BITMAP
0E70
0E70
0E70
0000
0000
3C78
3CF8
78F0
78F0
78F0
78F0
F9E0
F1E0
F1E0
F1E6
F3E4
FFCC
FFD8
7BE0
0FC0
1BC0
3780
6780
6F80
7F00
3E00
ENDCHAR
STARTCHAR uni04F2
ENCODING 1266
SWIDTH 644 0
DWIDTH 18 0
BBX 21 28 0 0
BITMAP
000738
000670
000C60
000CC0
001980
000000
000000
01E030
07F020
1DF060
38F060
70F0C0
60F8C0
E0F980
E07980
607900
207B00
007F00
003E00
003E00
003C00
001C00
001800
001800
039800
03B000
03E000
01C000
ENDCHAR
STARTCHAR uni04F3
ENCODING 1267
SWIDTH 486 0
DWIDTH 14 0
BBX 15 28 0 -7
BITMAP
03DC
0338
0730
0660
0C60
0000
0000
3C78
3CF8
78F0
78F0
78F0
78F0
F9E0
F1E0
F1E0
F1E6
F3E4
FFCC
FFD8
7BE0
0FC0
1BC0
3780
6780
6F80
7F00
3E00
ENDCHAR
STARTCHAR uni04F4
ENCODING 1268
SWIDTH 695 0
DWIDTH 19 0
BBX 20 26 0 0
BITMAP
0018C0
003DE0
0018C0
000000
000000
01E0F0
07E0F0
1DE0F0
39E0F0
73C1E0
63C1E0
E3C1E0
E3C1E0
E3C3C0
63C3C0
03C3C0
03FFC0
01FBC0
000780
000780
000780
000780
000780
000F00
000F00
000F00
ENDCHAR
STARTCHAR uni04F5
ENCODING 1269
SWIDTH 505 0
DWIDTH 14 0
BBX 14 19 1 0
BITMAP
1CE0
1CE0
1CE0
0000
0000
78F0
79F0
F1E0
F1E0
F1E0
F1E0
F3C0
FFC0
FFC0
7BC4
03CC
03F8
03F0
01E0
ENDCHAR
STARTCHAR uni04F6
ENCODING 1270
SWIDTH 442 0
DWIDTH 12 0
BBX 18 26 0 -5
BITMAP
03FFC0
0FFF80
39FF80
71E000
73C000
E3C000
E3C000
E3C000
678000
378000
078000
078000
078000
0F0000
0F0000
0F0000
0F0000
0F0000
1E0000
1E0000
1F0000
078000
03F000
03F000
01E000
01C000
ENDCHAR
STARTCHAR uni04F7
ENCODING 1271
SWIDTH 375 0
DWIDTH 11 0
BBX 12 21 -1 -7
BITMAP
0F80
1FC0
3FE0
23E0
63C0
43C0
0780
1F00
3C00
7810
F820
F8E0
7F80
3F00
0800
1C00
1C00
1E00
1C00
0C00
0800
ENDCHAR
STARTCHAR uni04F8
ENCODING 1272
SWIDTH 909 0
DWIDTH 25 0
BBX 26 26 0 0
BITMAP
00031800
0007BC00
00031800
00000000
00000000
01E003C0
07E003C0
1DE003C0
31E007C0
73C00780
63C00780
E3C00780
E3C00780
67980F00
17FE0F00
078F0F00
07878F00
07878F00
0F079E00
0F079E00
0F079E00
0F0F1E00
0F8F1E00
1EFE3C00
1EFE3C00
1E783C00
ENDCHAR
STARTCHAR uni04F9
ENCODING 1273
SWIDTH 642 0
DWIDTH 18 0
BBX 19 19 0 0
BITMAP
010800
039C00
039C00
000000
000000
3C0180
380700
781F00
783F00
7BEF00
7F8F00
70CE00
F0DE00
F0DE00
F1DE20
F19E60
F39FC0
FF1F80
7C0F00
ENDCHAR
STARTCHAR uni051A
ENCODING 1306
SWIDTH 665 0
DWIDTH 19 0
BBX 18 24 0 -3
BITMAP
00FE00
07FF00
0E0380
38F3C0
31C1C0
73C1C0
6781C0
E781C0
6F03C0
2F03C0
0F03C0
0F03C0
1E07C0
1E0780
1E0780
1E0F00
1FFF00
1E7E00
0F3C00
0FF800
07FC00
001F00
001F80
000F00
ENDCHAR
STARTCHAR uni051B
ENCODING 1307
SWIDTH 486 0
DWIDTH 14 0
BBX 13 21 0 -7
BITMAP
0FF8
1FF8
3C78
7878
78F0
F0F0
F0F0
F0F0
F0F0
F1E0
F1E0
FFE0
FFE0
7BE0
03C0
03C0
03C0
03C0
0780
0780
0400
ENDCHAR
STARTCHAR uni051C
ENCODING 1308
SWIDTH 962 0
DWIDTH 27 0
BBX 29 21 0 0
BITMAP
01E07818
07E07830
1DE0F830
31E0F830
71E0F860
61E1F860
E1E1F840
E1E178C0
E1E378C0
61E37880
01E27980
01E67980
01E67900
01E47B00
01EC7B00
01E87A00
01E87E00
01F87C00
01F07C00
01F07C00
01F07800
ENDCHAR
STARTCHAR uni051D
ENCODING 1309
SWIDTH 661 0
DWIDTH 19 0
BBX 18 14 0 0
BITMAP
3C79C0
3CF9C0
78F1C0
78F0C0
78F0C0
78F0C0
F9E080
F1E180
F1E180
F1E300
F3E700
FFFE00
FDFC00
78F800
ENDCHAR
STARTCHAR uni0524
ENCODING 1316
SWIDTH 742 0
DWIDTH 21 0
BBX 22 26 0 -5
BITMAP
03FC04
0FFFFC
3FFFF8
79E3F0
73C1E0
63C3C0
E3C3C0
E3C3C0
E3C3C0
6787C0
078780
078780
078780
0F0780
0F0F00
0F0F00
0F0F00
0F0F00
1E1F00
1E1E00
1E1E00
000780
0003F0
0003F0
0001E0
0001C0
ENDCHAR
STARTCHAR uni0525
ENCODING 1317
SWIDTH 505 0
DWIDTH 14 0
BBX 16 21 -1 -7
BITMAP
1EF0
1FF8
3E78
3C78
3C78
3C78
3C70
78F0
78F0
78F1
78F3
F8FE
F0FC
F078
0020
0070
0078
0078
0038
0030
0020
ENDCHAR
STARTCHAR uni1E0C
ENCODING 7692
SWIDTH 663 0
DWIDTH 19 0
BBX 18 27 0 -6
BITMAP
01FC00
07FE00
1C0700
39E780
73C380
63C3C0
E3C3C0
E3C3C0
E783C0
6783C0
0783C0
0783C0
0F8380
0F0780
0F0780
0F0F00
0F0F00
1E1E00
1F3E00
1FFC00
1EF000
000000
000000
038000
07C000
07C000
038000
ENDCHAR
STARTCHAR uni1E0D
ENCODING 7693
SWIDTH 525 0
DWIDTH 15 0
BBX 16 25 0 -6
BITMAP
003E
003C
003C
003C
003C
0FF8
1FF8
3C78
7878
78F0
F0F0
F0F0
F0F0
F0F0
F1E3
F1E2
FEFE
FEFC
7870
0000
0000
1C00
1E00
3E00
1C00
ENDCHAR
STARTCHAR uni1E20
ENCODING 7712
SWIDTH 578 0
DWIDTH 16 0
BBX 15 32 1 -6
BITMAP
03FE
03FE
0000
0000
0000
01F8
0FFC
1F0E
3E0E
7C0E
781C
F800
F000
F000
F01C
F01C
F03C
F03C
F078
F8F8
7FF8
3F78
0078
00F0
08F0
3EF0
72E0
60E0
61E0
73C0
3F80
0E00
ENDCHAR
STARTCHAR uni1E21
ENCODING 7713
SWIDTH 507 0
DWIDTH 14 0
BBX 15 26 0 -7
BITMAP
0FF8
0FF8
0000
0000
0000
0FF8
1FF8
3C78
7878
78F0
F0F0
F0F0
F0F0
F0F0
F1E2
F1E6
FFE4
FFF8
7BF0
07C0
1FC0
33C0
33C0
2780
3F80
1E00
ENDCHAR
STARTCHAR uni1E24
ENCODING 7716
SWIDTH 665 0
DWIDTH 19 0
BBX 19 27 0 -6
BITMAP
01E1E0
07E1E0
1FE1E0
39E1E0
73C3C0
73C3C0
E3C3C0
E3C3C0
E3C3C0
67FF80
17FF80
078780
078780
0F8780
0F0F00
0F0F00
0F0F00
0F0F00
1E1F00
1E1E00
1E1E00
000000
000000
01C000
03C000
03C000
01C000
ENDCHAR
STARTCHAR uni1E25
ENCODING 7717
SWIDTH 505 0
DWIDTH 14 0
BBX 16 25 -1 -6
BITMAP
0F00
0F00
1F00
1E00
1E00
1EF0
1FF8
3FF8
3E78
3C78
3C78
3C70
78F0
78F0
78F1
78F3
F8FE
F0FC
F078
0000
0000
0E00
1F00
1F00
0E00
ENDCHAR
STARTCHAR uni1E2A
ENCODING 7722
SWIDTH 665 0
DWIDTH 19 0
BBX 19 26 0 -5
BITMAP
01E1E0
07E1E0
1FE1E0
39E1E0
73C3C0
73C3C0
E3C3C0
E3C3C0
E3C3C0
67FF80
17FF80
078780
078780
0F8780
0F0F00
0F0F00
0F0F00
0F0F00
1E1F00
1E1E00
1E1E00
000000
000000
0C1800
0E3000
07E000
ENDCHAR
STARTCHAR uni1E2B
ENCODING 7723
SWIDTH 505 0
DWIDTH 14 0
BBX 16 24 -1 -5
BITMAP
0F00
0F00
1F00
1E00
1E00
1EF0
1FF8
3FF8
3E78
3C78
3C78
3C70
78F0
78F0
78F1
78F3
F8FE
F0FC
F078
0000
0020
60C0
71C0
3F00
ENDCHAR
STARTCHAR uni1E36
ENCODING 7734
SWIDTH 379 0
DWIDTH 11 0
BBX 19 28 0 -7
BITMAP
01E000
0FE000
1DE000
33C000
73C000
E3C000
E3C000
E7C000
E78000
678000
078000
078000
0F0000
0F0000
0F0000
0F0000
1F0000
1E0000
1E0000
1E0000
1F0000
07C000
01F000
1C7C20
3C3FC0
3C1FC0
1C0FC0
000380
ENDCHAR
STARTCHAR uni1E37
ENCODING 7735
SWIDTH 293 0
DWIDTH 8 0
BBX 9 25 0 -6
BITMAP
0F00
1F00
1E00
1E00
1E00
1E00
3C00
3C00
3C00
3C00
7C00
7800
7800
7800
7880
F980
7F00
7E00
3C00
0000
0000
6000
F000
F000
6000
ENDCHAR
STARTCHAR uni1E42
ENCODING 7746
SWIDTH 787 0
DWIDTH 22 0
BBX 21 27 2 -6
BITMAP
03E0F8
0FE0F0
19E1F0
33E1F0
63E1F0
E3E3F0
E7E3F0
E7E7E0
EFE7E0
6DE7E0
0DEDE0
1DCDE0
19DDE0
19D9E0
33DBE0
33F3C0
33F3C0
63F3C0
63E3C0
E3E3C0
C3C3C0
000000
000000
038000
07C000
07C000
038000
ENDCHAR
STARTCHAR uni1E43
ENCODING 7747
SWIDTH 752 0
DWIDTH 21 0
BBX 23 20 -1 -6
BITMAP
1EF1E0
1FFFF0
3E7CF0
3C78F0
3C78F0
3C78F0
3CF1E0
78F1E0
78F1E0
78F1E2
78F1E6
F9E1FC
F1E1F8
F1E0F0
000000
000000
01C000
03C000
03E000
01C000
ENDCHAR
STARTCHAR uni1E44
ENCODING 7748
SWIDTH 668 0
DWIDTH 19 0
BBX 20 27 0 0
BITMAP
000700
000780
000780
000700
000000
000000
03E070
0FE070
3DE070
73F060
73F0E0
E3F0E0
E3F0E0
E3F0C0
E778C0
6779C0
1779C0
0679C0
0E3D80
0E3D80
0E3F80
0E3F80
0C1F80
1C1F00
1C1F00
1C1F00
180F00
ENDCHAR
STARTCHAR uni1E45
ENCODING 7749
SWIDTH 505 0
DWIDTH 14 0
BBX 16 21 -1 0
BITMAP
00E0
01F0
01F0
00E0
0000
0000
0000
1EF0
1FF8
3E78
3C78
3C78
3C78
3C70
78F0
78F0
78F1
78F3
F8FE
F0FC
F078
ENDCHAR
STARTCHAR uni1E46
ENCODING 7750
SWIDTH 668 0
DWIDTH 19 0
BBX 20 27 0 -6
BITMAP
03E070
0FE070
3DE070
73F060
73F0E0
E3F0E0
E3F0E0
E3F0C0
E778C0
6779C0
1779C0
0679C0
0E3D80
0E3D80
0E3F80
0E3F80
0C1F80
1C1F00
1C1F00
1C1F00
180F00
000000
000000
01C000
03E000
03E000
01C000
ENDCHAR
STARTCHAR uni1E47
ENCODING 7751
SWIDTH 505 0
DWIDTH 14 0
BBX 16 20 -1 -6
BITMAP
1EF0
1FF8
3E78
3C78
3C78
3C78
3C70
78F0
78F0
78F1
78F3
F8FE
F0FC
F078
0000
0000
0E00
0F00
1F00
0E00
ENDCHAR
STARTCHAR uni1E5A
ENCODING 7770
SWIDTH 601 0
DWIDTH 17 0
BBX 16 27 0 -6
BITMAP
01F8
0FFE
1C07
3BE7
73C7
E3C7
E3C7
E3CE
E79C
27FC
079E
079E
0F1E
0F1E
0F1E
0F1E
0F3C
1E3C
1E3C
1E3C
1E1E
0000
0000
0180
03C0
03C0
0380
ENDCHAR
STARTCHAR uni1E5B
ENCODING 7771
SWIDTH 376 0
DWIDTH 11 0
BBX 12 20 -1 -6
BITMAP
1EE0
1FF0
3E70
3C60
3C00
3C00
3C00
7800
7800
7800
7800
F800
F000
F000
0000
0000
E000
F000
F000
E000
ENDCHAR
STARTCHAR uni1E60
ENCODING 7776
SWIDTH 570 0
DWIDTH 16 0
BBX 14 27 1 0
BITMAP
0070
00F8
00F8
0070
0000
0000
01F0
07FC
0F1C
1E0C
1E0C
1E1C
1F08
0F80
07C0
07E0
03F0
01F0
38F8
7C78
F078
E078
E078
E078
F0F0
7FE0
1F80
ENDCHAR
STARTCHAR uni1E61
ENCODING 7777
SWIDTH 382 0
DWIDTH 11 0
BBX 13 21 -1 0
BITMAP
0180
03C0
03C0
01C0
0000
0000
0380
0780
0F80
0F80
0F80
1FC0
17C0
37C0
23C0
63C0
F3D8
E3F0
C7C0
7F80
3E00
ENDCHAR
STARTCHAR uni1E62
ENCODING 7778
SWIDTH 570 0
DWIDTH 16 0
BBX 14 27 1 -6
BITMAP
01F0
07FC
0F1C
1E0C
1E0C
1E1C
1F08
0F80
07C0
07E0
03F0
01F0
38F8
7C78
F078
E078
E078
E078
F0F0
7FE0
1F80
0000
0000
1C00
3E00
3E00
1C00
ENDCHAR
STARTCHAR uni1E63
ENCODING 7779
SWIDTH 382 0
DWIDTH 11 0
BBX 13 21 -1 -6
BITMAP
0080
0780
0F80
0F80
0F80
1F80
17C0
37C0
23C0
63C0
F3D8
C3E0
C7C0
7F00
3E00
0000
0000
3800
7800
7800
3800
ENDCHAR
STARTCHAR uni1E6C
ENCODING 7788
SWIDTH 481 0
DWIDTH 13 0
BBX 20 27 0 -6
BITMAP
03F010
0FFE10
3CFFF0
70FFE0
70F7C0
E0F000
E1F000
E1F000
E1E000
E1E000
61E000
03E000
03C000
03C000
03C000
03C000
078000
078000
078000
078000
0F8000
000000
000000
0E0000
0F0000
0F0000
0E0000
ENDCHAR
STARTCHAR uni1E6D
ENCODING 7789
SWIDTH 267 0
DWIDTH 7 0
BBX 9 24 -1 -6
BITMAP
0F00
1E00
1E00
1E00
3F80
3F00
3E00
3C00
3C00
3C00
3C00
7800
7800
7880
7880
7F00
7F00
3C00
0000
0000
E000
F000
F000
E000
ENDCHAR
STARTCHAR Wgrave
ENCODING 7808
SWIDTH 962 0
DWIDTH 27 0
BBX 29 27 0 0
BITMAP
0000E000
00006000
00007000
00007000
00003000
00000000
01E07818
07E07830
1DE0F830
31E0F830
71E0F860
61E1F860
E1E1F840
E1E178C0
E1E378C0
61E37880
01E27980
01E67980
01E67900
01E47B00
01EC7B00
01E87A00
01E87E00
01F87C00
01F07C00
01F07C00
01F07800
ENDCHAR
STARTCHAR wgrave
ENCODING 7809
SWIDTH 661 0
DWIDTH 19 0
BBX 18 21 0 0
BITMAP
01C000
00C000
00E000
00E000
006000
000000
000000
3C79C0
3CF9C0
78F1C0
78F0C0
78F0C0
78F0C0
F9E080
F1E180
F1E180
F1E300
F3E700
FFFE00
FDFC00
78F800
ENDCHAR
STARTCHAR Wacute
ENCODING 7810
SWIDTH 962 0
DWIDTH 27 0
BBX 29 28 0 0
BITMAP
00000700
00000E00
00000C00
00001C00
00001800
00003000
00000000
01E07818
07E07830
1DE0F830
31E0F830
71E0F860
61E1F860
E1E1F840
E1E178C0
E1E378C0
61E37880
01E27980
01E67980
01E67900
01E47B00
01EC7B00
01E87A00
01E87E00
01F87C00
01F07C00
01F07C00
01F07800
ENDCHAR
STARTCHAR wacute
ENCODING 7811
SWIDTH 661 0
DWIDTH 19 0
BBX 18 21 0 0
BITMAP
000E00
001C00
001800
003800
003000
007000
000000
3C79C0
3CF9C0
78F1C0
78F0C0
78F0C0
78F0C0
F9E080
F1E180
F1E180
F1E300
F3E700
FFFE00
FDFC00
78F800
ENDCHAR
STARTCHAR Wdieresis
ENCODING 7812
SWIDTH 962 0
DWIDTH 27 0
BBX 29 26 0 0
BITMAP
0001CE00
0001CE00
0001CE00
00000000
00000000
01E07818
07E07830
1DE0F830
31E0F830
71E0F860
61E1F860
E1E1F840
E1E178C0
E1E378C0
61E37880
01E27980
01E67980
01E67900
01E47B00
01EC7B00
01E87A00
01E87E00
01F87C00
01F07C00
01F07C00
01F07800
ENDCHAR
STARTCHAR wdieresis
ENCODING 7813
SWIDTH 661 0
DWIDTH 19 0
BBX 18 19 0 0
BITMAP
018C00
03DE00
018C00
000000
000000
3C79C0
3CF9C0
78F1C0
78F0C0
78F0C0
78F0C0
F9E080
F1E180
F1E180
F1E300
F3E700
FFFE00
FDFC00
78F800
ENDCHAR
STARTCHAR uni1E8E
ENCODING 7822
SWIDTH 620 0
DWIDTH 17 0
BBX 20 27 0 0
BITMAP
000700
000F80
000F80
000700
000000
000000
01E070
07E060
1DF040
31F0C0
70F0C0
60F180
E0F980
E0F900
E07B00
607A00
007E00
007C00
003C00
007C00
007C00
007800
007800
007800
00F800
00F800
00F000
ENDCHAR
STARTCHAR uni1E8F
ENCODING 7823
SWIDTH 505 0
DWIDTH 14 0
BBX 15 28 0 -7
BITMAP
01C0
03C0
03C0
01C0
0000
0000
0000
3C78
3CF8
78F0
78F0
78F0
78F0
F9E0
F1E0
F1E0
F1E6
F3E4
FFCC
FFD8
7BE0
0FC0
1BC0
3780
6780
6F80
7F00
3E00
ENDCHAR
STARTCHAR uni1E92
ENCODING 7826
SWIDTH 542 0
DWIDTH 15 0
BBX 16 34 0 -6
BITMAP
0007
000E
000C
001C
0018
0030
0000
0FFE
1FFE
383C
387C
1878
00F8
00F0
01F0
01E0
03E0
03C0
07C0
0780
0F80
0F00
1F00
1E08
3E1C
3C1C
7FF8
FFF0
0000
0000
0E00
0F00
0F00
0E00
ENDCHAR
STARTCHAR uni1E93
ENCODING 7827
SWIDTH 428 0
DWIDTH 12 0
BBX 12 20 0 -6
BITMAP
1FF0
3FE0
31E0
33C0
0380
0780
0F00
0F00
1E00
1E00
3CE0
7CE0
7FC0
FF80
0000
0000
3800
7800
7C00
3800
ENDCHAR
STARTCHAR uni1E97
ENCODING 7831
SWIDTH 267 0
DWIDTH 7 0
BBX 10 22 0 0
BITMAP
3980
3BC0
3980
0000
1E00
3E00
3C00
3C00
7F00
7E00
7C00
7800
7800
7800
7800
F000
F000
F100
F100
FE00
FE00
7800
ENDCHAR
STARTCHAR uni1E9E
ENCODING 7838
SWIDTH 559 0
DWIDTH 16 0
BBX 19 27 -2 -6
BITMAP
007FE0
01FFC0
03C7C0
03C780
078F80
078F00
079F00
079E00
0F3E00
0F3C00
0F3C00
0F1E00
1E0E00
1E0F00
1E0F00
1E0F00
1E0F00
3C0E00
3C1E00
3DFC00
3CF000
3C0000
780000
780000
780000
780000
F00000
ENDCHAR
STARTCHAR uni1EA0
ENCODING 7840
SWIDTH 668 0
DWIDTH 19 0
BBX 19 27 0 -6
BITMAP
0001E0
0007E0
000DE0
0019E0
0033E0
0073C0
0063C0
00E3C0
07C3C0
3FFF80
738F80
E38780
F70780
070780
0E0F00
0E0F00
1E0F00
1E0F00
1C1F00
1C1E00
3C1E00
3C0000
1C0000
1C7000
00F800
00F800
007000
ENDCHAR
STARTCHAR uni1EA1
ENCODING 7841
SWIDTH 526 0
DWIDTH 15 0
BBX 16 20 0 -6
BITMAP
0FF8
1FF8
3C78
7878
78F0
F0F0
F0F0
F0F0
F0F0
F1E1
F1E2
FFFE
FEFC
7870
0000
0000
1C00
1E00
3E00
1C00
ENDCHAR
STARTCHAR uni1EA2
ENCODING 7842
SWIDTH 668 0
DWIDTH 19 0
BBX 21 31 0 -3
BITMAP
000060
0001F0
000018
000018
0000F0
0000C0
000000
0001E0
0007E0
000DE0
0019E0
0033E0
0073C0
0063C0
00E3C0
07C3C0
3FFF80
738F80
E38780
F70780
070780
0F0F00
0E0F00
1E0F00
1E0F00
1C1F00
1C1E00
3C1E00
3C0000
1C0000
1C0000
ENDCHAR
STARTCHAR uni1EA3
ENCODING 7843
SWIDTH 526 0
DWIDTH 15 0
BBX 16 22 0 0
BITMAP
0060
01F0
0018
0018
00F0
00C0
0000
0000
0FF8
1FF8
3C78
7878
78F0
F0F0
F0F0
F0F0
F0F0
F1E1
F1E2
FFFE
FEFC
7870
ENDCHAR
STARTCHAR uni1EA4
ENCODING 7844
SWIDTH 668 0
DWIDTH 19 0
BBX 24 31 0 -3
BITMAP
000003
000002
000026
00007C
000190
000218
000000
0001E0
0007E0
000DE0
0019E0
0033E0
0073C0
0063C0
00E3C0
07C3C0
3FFF80
738F80
E38780
F70780
070780
0F0F00
0E0F00
1E0F00
1E0F00
1C1F00
1C1E00
3C1E00
3C0000
1C0000
1C0000
ENDCHAR
STARTCHAR uni1EA5
ENCODING 7845
SWIDTH 526 0
DWIDTH 15 0
BBX 17 25 0 0
BITMAP
000180
000300
000300
000600
002C00
006000
00E000
01B000
061000
000000
000000
0FF800
1FF800
3C7800
787800
78F000
F0F000
F0F000
F0F000
F0F000
F1E100
F1E200
FFFE00
FEFC00
787000
ENDCHAR
STARTCHAR uni1EA6
ENCODING 7846
SWIDTH 668 0
DWIDTH 19 0
BBX 23 31 0 -3
BITMAP
00000C
000024
000076
0000F6
000190
000208
000000
0001E0
0007E0
000DE0
0019E0
0033E0
0073C0
0063C0
00E3C0
07C3C0
3FFF80
738F80
E38780
F70780
070780
0F0F00
0E0F00
1E0F00
1E0F00
1C1F00
1C1E00
3C1E00
3C0000
1C0000
1C0000
ENDCHAR
STARTCHAR uni1EA7
ENCODING 7847
SWIDTH 526 0
DWIDTH 15 0
BBX 16 24 0 0
BITMAP
000C
000C
0006
0026
0066
00E0
01B0
0610
0000
0000
0FF8
1FF8
3C78
7878
78F0
F0F0
F0F0
F0F0
F0F0
F1E1
F1E2
FFFE
FEFC
7870
ENDCHAR
STARTCHAR uni1EA8
ENCODING 7848
SWIDTH 668 0
DWIDTH 19 0
BBX 24 31 0 -3
BITMAP
00000E
000001
000031
0000F6
0001D4
000318
000000
0001E0
0007E0
000DE0
0019E0
0033E0
0073C0
0063C0
00E3C0
07C3C0
3FFF80
738F80
E38780
F70780
070780
0F0F00
0E0F00
1E0F00
1E0F00
1C1F00
1C1E00
3C1E00
3C0000
1C0000
1C0000
ENDCHAR
STARTCHAR uni1EA9
ENCODING 7849
SWIDTH 526 0
DWIDTH 15 0
BBX 16 23 0 0
BITMAP
000E
0003
0026
0064
00E0
03B0
0610
0000
0000
0FF8
1FF8
3C78
7878
78F0
F0F0
F0F0
F0F0
F0F0
F1E1
F1E2
FFFE
FEFC
7870
ENDCHAR
STARTCHAR uni1EAA
ENCODING 7850
SWIDTH 668 0
DWIDTH 19 0
BBX 23 31 0 -3
BITMAP
000020
0001FE
000030
0000F0
000190
000218
000000
0001E0
0007E0
000DE0
0019E0
0033E0
0073C0
0063C0
00E3C0
07C3C0
3FFF80
738F80
E38780
F70780
070780
0F0F00
0E0F00
1E0F00
1E0F00
1C1F00
1C1E00
3C1E00
3C0000
1C0000
1C0000
ENDCHAR
STARTCHAR uni1EAB
ENCODING 7851
SWIDTH 526 0
DWIDTH 15 0
BBX 16 24 0 0
BITMAP
0062
01FC
0000
0020
0060
00E0
01B0
0610
0000
0000
0FF8
1FF8
3C78
7878
78F0
F0F0
F0F0
F0F0
F0F0
F1E1
F1E2
FFFE
FEFC
7870
ENDCHAR
STARTCHAR uni1EAC
ENCODING 7852
SWIDTH 668 0
DWIDTH 19 0
BBX 21 34 0 -6
BITMAP
000010
000030
000070
0000F8
000388
000408
000000
0001E0
0007E0
000DE0
0019E0
0033E0
0073C0
0063C0
00E3C0
07C3C0
3FFF80
738F80
E38780
F70780
070780
0E0F00
0E0F00
1E0F00
1E0F00
1C1F00
1C1E00
3C1E00
3C0000
1C0000
1C7000
00F800
00F800
007000
ENDCHAR
STARTCHAR uni1EAD
ENCODING 7853
SWIDTH 526 0
DWIDTH 15 0
BBX 16 27 0 -6
BITMAP
0020
0060
00F0
03B0
0610
0808
0000
0FF8
1FF8
3C78
7878
78F0
F0F0
F0F0
F0F0
F0F0
F1E1
F1E2
FFFE
FEFC
7870
0000
0000
1C00
1E00
3E00
1C00
ENDCHAR
STARTCHAR uni1EAE
ENCODING 7854
SWIDTH 668 0
DWIDTH 19 0
BBX 22 31 0 -3
BITMAP
000018
000030
000030
00036C
00030C
0001F8
000000
0001E0
0007E0
000DE0
0019E0
0033E0
0073C0
0063C0
00E3C0
07C3C0
3FFF80
738F80
E38780
F70780
070780
0F0F00
0E0F00
1E0F00
1E0F00
1C1F00
1C1E00
3C1E00
3C0000
1C0000
1C0000
ENDCHAR
STARTCHAR uni1EAF
ENCODING 7855
SWIDTH 526 0
DWIDTH 15 0
BBX 16 24 0 0
BITMAP
0038
0030
0060
0060
0040
069C
03F0
0000
0000
0000
0FF8
1FF8
3C78
7878
78F0
F0F0
F0F0
F0F0
F0F0
F1E1
F1E2
FFFE
FEFC
7870
ENDCHAR
STARTCHAR uni1EB0
ENCODING 7856
SWIDTH 668 0
DWIDTH 19 0
BBX 22 31 0 -3
BITMAP
0000C0
000060
000060
00036C
00031C
0001F0
000000
0001E0
0007E0
000DE0
0019E0
0033E0
0073C0
0063C0
00E3C0
07C3C0
3FFF80
738F80
E38780
F70780
070780
0F0F00
0E0F00
1E0F00
1E0F00
1C1F00
1C1E00
3C1E00
3C0000
1C0000
1C0000
ENDCHAR
STARTCHAR uni1EB1
ENCODING 7857
SWIDTH 526 0
DWIDTH 15 0
BBX 16 23 0 0
BITMAP
01C0
00C0
00C0
00C0
061C
03F0
0000
0000
0000
0FF8
1FF8
3C78
7878
78F0
F0F0
F0F0
F0F0
F0F0
F1E1
F1E2
FFFE
FEFC
7870
ENDCHAR
STARTCHAR uni1EB2
ENCODING 7858
SWIDTH 668 0
DWIDTH 19 0
BBX 22 31 0 -3
BITMAP
0000F0
000010
000010
000060
00034C
0003F8
0000E0
0001E0
0007E0
000DE0
0019E0
0033E0
0073C0
0063C0
00E3C0
07C3C0
3FFF80
738F80
E38780
F70780
070780
0F0F00
0E0F00
1E0F00
1E0F00
1C1F00
1C1E00
3C1E00
3C0000
1C0000
1C0000
ENDCHAR
STARTCHAR uni1EB3
ENCODING 7859
SWIDTH 526 0
DWIDTH 15 0
BBX 16 23 0 0
BITMAP
00E0
0030
0060
0040
061C
03F0
0000
0000
0000
0FF8
1FF8
3C78
7878
78F0
F0F0
F0F0
F0F0
F0F0
F1E1
F1E2
FFFE
FEFC
7870
ENDCHAR
STARTCHAR uni1EB4
ENCODING 7860
SWIDTH 668 0
DWIDTH 19 0
BBX 22 31 0 -3
BITMAP
000040
0001FC
000210
00030C
00030C
0001F8
000000
0001E0
0007E0
000DE0
0019E0
0033E0
0073C0
0063C0
00E3C0
07C3C0
3FFF80
738F80
E38780
F70780
070780
0F0F00
0E0F00
1E0F00
1E0F00
1C1F00
1C1E00
3C1E00
3C0000
1C0000
1C0000
ENDCHAR
STARTCHAR uni1EB5
ENCODING 7861
SWIDTH 526 0
DWIDTH 15 0
BBX 16 24 0 0
BITMAP
0062
03FC
0000
0000
0000
061C
03F0
0000
0000
0000
0FF8
1FF8
3C78
7878
78F0
F0F0
F0F0
F0F0
F0F0
F1E1
F1E2
FFFE
FEFC
7870
ENDCHAR
STARTCHAR uni1EB6
ENCODING 7862
SWIDTH 668 0
DWIDTH 19 0
BBX 23 33 0 -6
BITMAP
000606
00070E
00071C
0003F8
000040
000000
0001E0
0007E0
000DE0
0019E0
0033E0
0073C0
0063C0
00E3C0
07C3C0
3FFF80
738F80
E38780
F70780
070780
0E0F00
0E0F00
1E0F00
1E0F00
1C1F00
1C1E00
3C1E00
3C0000
1C0000
1C7000
00F800
00F800
007000
ENDCHAR
STARTCHAR uni1EB7
ENCODING 7863
SWIDTH 526 0
DWIDTH 15 0
BBX 16 26 0 -6
BITMAP
0E0C
0E1C
07F8
01C0
0000
0000
0FF8
1FF8
3C78
7878
78F0
F0F0
F0F0
F0F0
F0F0
F1E1
F1E2
FFFE
FEFC
7870
0000
0000
1C00
1E00
3E00
1C00
ENDCHAR
STARTCHAR uni1EB8
ENCODING 7864
SWIDTH 459 0
DWIDTH 13 0
BBX 14 27 0 -6
BITMAP
01F0
03F8
070C
0F0C
0E1C
0E38
0E00
0F00
0780
0FC0
1E00
3E00
7C00
7800
F800
F80C
F808
FC30
7FF0
7FC0
1F00
0000
0000
1C00
3C00
3E00
1C00
ENDCHAR
STARTCHAR uni1EB9
ENCODING 7865
SWIDTH 384 0
DWIDTH 11 0
BBX 12 20 0 -6
BITMAP
0780
1FC0
3CC0
78C0
78C0
F1C0
F380
FF00
F800
F010
F060
F8C0
FF80
3E00
0000
0000
7000
7800
7800
7000
ENDCHAR
STARTCHAR uni1EBA
ENCODING 7866
SWIDTH 459 0
DWIDTH 13 0
BBX 14 28 0 0
BITMAP
00F8
007C
000C
000C
0070
0060
0000
01F0
03F8
070C
0F0C
0E1C
0E38
0E00
0F00
0780
0FC0
1E00
3E00
7C00
7800
F800
F80C
F808
FC30
7FF0
7FC0
1F00
ENDCHAR
STARTCHAR uni1EBB
ENCODING 7867
SWIDTH 384 0
DWIDTH 11 0
BBX 12 22 0 0
BITMAP
0380
07C0
00E0
0040
0380
0300
0000
0000
0780
1FC0
3CC0
78C0
78C0
F1C0
F380
FF00
F800
F010
F060
F8C0
FF80
3E00
ENDCHAR
STARTCHAR uni1EBC
ENCODING 7868
SWIDTH 459 0
DWIDTH 13 0
BBX 17 26 0 0
BITMAP
00F880
01FF00
023E00
000000
000000
01F000
03F800
070C00
0F0C00
0E1C00
0E3800
0E0000
0F0000
078000
0FC000
1E0000
3E0000
7C0000
780000
F80000
F80C00
F80800
FC3000
7FF000
7FC000
1F0000
ENDCHAR
STARTCHAR uni1EBD
ENCODING 7869
SWIDTH 384 0
DWIDTH 11 0
BBX 13 19 0 0
BITMAP
0F88
3FF0
43C0
0000
0000
0780
1FC0
3CC0
78C0
78C0
F1C0
F380
FF00
F800
F010
F060
F8C0
FF80
3E00
ENDCHAR
STARTCHAR uni1EBE
ENCODING 7870
SWIDTH 459 0
DWIDTH 13 0
BBX 17 28 0 0
BITMAP
000180
001300
003A00
006E00
018C00
000000
000000
01F000
03F800
070C00
0F0C00
0E1C00
0E3800
0E0000
0F0000
078000
0FC000
1E0000
3E0000
7C0000
780000
F80000
F80C00
F80800
FC3000
7FF000
7FC000
1F0000
ENDCHAR
STARTCHAR uni1EBF
ENCODING 7871
SWIDTH 384 0
DWIDTH 11 0
BBX 16 25 0 0
BITMAP
0007
0006
000C
000C
00D8
01C0
03C0
0740
0C20
0000
0000
0780
1FC0
3CC0
78C0
78C0
F1C0
F380
FF00
F800
F010
F060
F8C0
FF80
3E00
ENDCHAR
STARTCHAR uni1EC0
ENCODING 7872
SWIDTH 459 0
DWIDTH 13 0
BBX 16 28 0 0
BITMAP
0006
0012
003B
0079
00C8
0104
0000
01F0
03F8
070C
0F0C
0E1C
0E38
0E00
0F00
0780
0FC0
1E00
3E00
7C00
7800
F800
F80C
F808
FC30
7FF0
7FC0
1F00
ENDCHAR
STARTCHAR uni1EC1
ENCODING 7873
SWIDTH 384 0
DWIDTH 11 0
BBX 14 24 0 0
BITMAP
0018
0018
0018
00C8
01CC
03C0
0740
0C20
0000
0000
0780
1FC0
3CC0
78C0
78C0
F1C0
F380
FF00
F800
F010
F060
F8C0
FF80
3E00
ENDCHAR
STARTCHAR uni1EC2
ENCODING 7874
SWIDTH 459 0
DWIDTH 13 0
BBX 18 28 0 0
BITMAP
000380
0010C0
003B80
006A00
018800
000400
000000
01F000
03F800
070C00
0F0C00
0E1C00
0E3800
0E0000
0F0000
078000
0FC000
1E0000
3E0000
7C0000
780000
F80000
F80C00
F80800
FC3000
7FF000
7FC000
1F0000
ENDCHAR
STARTCHAR uni1EC3
ENCODING 7875
SWIDTH 384 0
DWIDTH 11 0
BBX 14 23 0 0
BITMAP
003C
0004
00D8
01D0
03C0
0640
0C20
0000
0000
0780
1FC0
3CC0
78C0
78C0
F1C0
F380
FF00
F800
F010
F060
F8C0
FF80
3E00
ENDCHAR
STARTCHAR uni1EC4
ENCODING 7876
SWIDTH 459 0
DWIDTH 13 0
BBX 16 28 0 0
BITMAP
007F
00FE
0038
0068
018C
0000
0000
01F0
03F8
070C
0F0C
0E1C
0E38
0E00
0F00
0780
0FC0
1E00
3E00
7C00
7800
F800
F80C
F808
FC30
7FF0
7FC0
1F00
ENDCHAR
STARTCHAR uni1EC5
ENCODING 7877
SWIDTH 384 0
DWIDTH 11 0
BBX 13 24 0 0
BITMAP
00C8
07F0
0000
00C0
01C0
03C0
0740
0C20
0000
0000
0780
1FC0
3CC0
78C0
78C0
F1C0
F380
FF00
F800
F010
F060
F8C0
FF80
3E00
ENDCHAR
STARTCHAR uni1EC6
ENCODING 7878
SWIDTH 459 0
DWIDTH 13 0
BBX 14 34 0 -6
BITMAP
0010
0038
0078
01C8
0304
0000
0000
01F0
03F8
070C
0F0C
0E1C
0E38
0E00
0F00
0780
0FC0
1E00
3E00
7C00
7800
F800
F80C
F808
FC30
7FF0
7FC0
1F00
0000
0000
1C00
3C00
3E00
1C00
ENDCHAR
STARTCHAR uni1EC7
ENCODING 7879
SWIDTH 384 0
DWIDTH 11 0
BBX 12 27 0 -6
BITMAP
00C0
01C0
03C0
0760
0C20
1020
0000
0780
1FC0
3CC0
78C0
78C0
F1C0
F380
FF00
F800
F010
F060
F8C0
FF80
3E00
0000
0000
7000
7800
7800
7000
ENDCHAR
STARTCHAR uni1EC8
ENCODING 7880
SWIDTH 375 0
DWIDTH 11 0
BBX 13 28 0 0
BITMAP
0060
01F8
0018
0018
00F0
00C0
0000
01E0
07E0
1DE0
33C0
73C0
63C0
E3C0
E3C0
E780
6780
0780
0780
0F00
0F00
0F00
0F00
0F00
1E00
1E00
1E00
1E00
ENDCHAR
STARTCHAR uni1EC9
ENCODING 7881
SWIDTH 267 0
DWIDTH 7 0
BBX 9 22 0 0
BITMAP
0C00
3F00
0300
0300
1E00
1800
0000
0000
3C00
3C00
7800
7800
7800
7800
F800
F000
F000
F180
F100
FE00
FE00
7800
ENDCHAR
STARTCHAR uni1ECA
ENCODING 7882
SWIDTH 375 0
DWIDTH 11 0
BBX 11 27 0 -6
BITMAP
01E0
07E0
1DE0
33C0
73C0
63C0
E3C0
E3C0
E780
6780
0780
0780
0F00
0F00
0F00
0F00
0F00
1E00
1E00
1E00
1E00
0000
0000
3800
3C00
3C00
3800
ENDCHAR
STARTCHAR uni1ECB
ENCODING 7883
SWIDTH 267 0
DWIDTH 7 0
BBX 10 25 -1 -6
BITMAP
0E00
0F00
1F00
0E00
0000
1E00
1E00
3C00
3C00
3C00
3C00
7C00
7800
7800
78C0
7880
7F00
7F00
3C00
0000
0000
E000
F000
F000
E000
ENDCHAR
STARTCHAR uni1ECC
ENCODING 7884
SWIDTH 665 0
DWIDTH 19 0
BBX 18 27 0 -6
BITMAP
00FE00
07FF00
0E0380
1CF3C0
31E3C0
73C1C0
6781C0
E781C0
6F83C0
6F03C0
0F03C0
0F03C0
1F03C0
1E0780
1E0780
1E0F00
1E0F00
1E1E00
0F3C00
0FF800
03E000
000000
000000
038000
078000
07C000
038000
ENDCHAR
STARTCHAR uni1ECD
ENCODING 7885
SWIDTH 433 0
DWIDTH 12 0
BBX 17 20 -1 -6
BITMAP
03C000
0FE000
1E6000
3C7180
3C7E00
787800
787000
786000
F86000
F8E000
F8C000
79C000
7F8000
3E0000
000000
000000
380000
3C0000
3C0000
380000
ENDCHAR
STARTCHAR uni1ECE
ENCODING 7886
SWIDTH 665 0
DWIDTH 19 0
BBX 18 28 0 0
BITMAP
000E00
001F00
000300
000300
000E00
000800
000000
00FE00
07FF00
0E0380
1CF3C0
31E3C0
73C1C0
6781C0
E781C0
6F83C0
6F03C0
0F03C0
0F03C0
1F03C0
1E0780
1E0780
1E0F00
1E0F00
1E1E00
0F3C00
0FF800
03E000
ENDCHAR
STARTCHAR uni1ECF
ENCODING 7887
SWIDTH 433 0
DWIDTH 12 0
BBX 17 22 -1 0
BITMAP
00E000
01F000
003000
003000
00E000
008000
000000
000000
03C000
0FE000
1E6000
3C7180
3C7E00
787800
787000
786000
F86000
F8E000
F8C000
79C000
7F8000
3E0000
ENDCHAR
STARTCHAR uni1ED0
ENCODING 7888
SWIDTH 665 0
DWIDTH 19 0
BBX 19 28 0 0
BITMAP
000060
000260
0006C0
000E80
003300
006100
000000
00FE00
07FF00
0E0380
1CF3C0
31E3C0
73C1C0
6781C0
E781C0
6F83C0
6F03C0
0F03C0
0F03C0
1F03C0
1E0780
1E0780
1E0F00
1E0F00
1E1E00
0F3C00
0FF800
03E000
ENDCHAR
STARTCHAR uni1ED1
ENCODING 7889
SWIDTH 433 0
DWIDTH 12 0
BBX 17 25 -1 0
BITMAP
000380
000300
000600
000600
006C00
00E000
01E000
03A000
061000
000000
000000
03C000
0FE000
1E6000
3C7180
3C7E00
787800
787000
786000
F86000
F8E000
F8C000
79C000
7F8000
3E0000
ENDCHAR
STARTCHAR uni1ED2
ENCODING 7890
SWIDTH 665 0
DWIDTH 19 0
BBX 18 28 0 0
BITMAP
0000C0
0002C0
000640
001E40
003300
004000
000000
00FE00
07FF00
0E0380
1CF3C0
31E3C0
73C1C0
6781C0
E781C0
6F83C0
6F03C0
0F03C0
0F03C0
1F03C0
1E0780
1E0780
1E0F00
1E0F00
1E1E00
0F3C00
0FF800
03E000
ENDCHAR
STARTCHAR uni1ED3
ENCODING 7891
SWIDTH 433 0
DWIDTH 12 0
BBX 17 24 -1 0
BITMAP
000C00
000C00
000C00
006400
00E600
01E000
03A000
061000
000000
000000
03C000
0FE000
1E6000
3C7180
3C7E00
787800
787000
786000
F86000
F8E000
F8C000
79C000
7F8000
3E0000
ENDCHAR
STARTCHAR uni1ED4
ENCODING 7892
SWIDTH 665 0
DWIDTH 19 0
BBX 20 28 0 0
BITMAP
0000E0
000030
000630
000E60
003B40
006100
000000
00FE00
07FF00
0E0380
1CF3C0
31E3C0
73C1C0
6781C0
E781C0
6F83C0
6F03C0
0F03C0
0F03C0
1F03C0
1E0780
1E0780
1E0F00
1E0F00
1E1E00
0F3C00
0FF800
03E000
ENDCHAR
STARTCHAR uni1ED5
ENCODING 7893
SWIDTH 433 0
DWIDTH 12 0
BBX 17 23 -1 0
BITMAP
001E00
000200
006E00
00E800
01E000
03A000
061000
000000
000000
03C000
0FE000
1E6000
3C7180
3C7E00
787800
787000
786000
F86000
F8E000
F8C000
79C000
7F8000
3E0000
ENDCHAR
STARTCHAR uni1ED6
ENCODING 7894
SWIDTH 665 0
DWIDTH 19 0
BBX 18 28 0 0
BITMAP
000400
001FC0
002600
000E00
003300
006100
000000
00FE00
07FF00
0E0380
1CF3C0
31E3C0
73C1C0
6781C0
E781C0
6F83C0
6F03C0
0F03C0
0F03C0
1F03C0
1E0780
1E0780
1E0F00
1E0F00
1E1E00
0F3C00
0FF800
03E000
ENDCHAR
STARTCHAR uni1ED7
ENCODING 7895
SWIDTH 433 0
DWIDTH 12 0
BBX 17 24 -1 0
BITMAP
00E200
01F800
021000
006000
00E000
01E000
03A000
061000
000000
000000
03C000
0FE000
1E6000
3C7180
3C7E00
787800
787000
786000
F86000
F8E000
F8C000
79C000
7F8000
3E0000
ENDCHAR
STARTCHAR uni1ED8
ENCODING 7896
SWIDTH 665 0
DWIDTH 19 0
BBX 18 34 0 -6
BITMAP
000400
000C00
001E00
003E00
006200
008100
000000
00FE00
07FF00
0E0380
1CF3C0
31E3C0
73C1C0
6781C0
E781C0
6F83C0
6F03C0
0F03C0
0F03C0
1F03C0
1E0780
1E0780
1E0F00
1E0F00
1E1E00
0F3C00
0FF800
03E000
000000
000000
038000
078000
07C000
038000
ENDCHAR
STARTCHAR uni1ED9
ENCODING 7897
SWIDTH 433 0
DWIDTH 12 0
BBX 17 27 -1 -6
BITMAP
004000
00E000
01E000
03E000
063000
081000
000000
03C000
0FE000
1E6000
3C7180
3C7E00
787800
787000
786000
F86000
F8E000
F8C000
79C000
7F8000
3E0000
000000
000000
380000
3C0000
3C0000
380000
ENDCHAR
STARTCHAR uni1EDA
ENCODING 7898
SWIDTH 665 0
DWIDTH 19 0
BBX 20 28 0 0
BITMAP
000380
000700
000600
000E10
000C70
001830
000030
00FC70
07FF60
0E03C0
1CF3C0
31E3C0
73C1C0
6781C0
E781C0
6F83C0
6F03C0
0F03C0
0F03C0
1F03C0
1E0780
1E0780
1E0F00
1E0F00
1E1E00
0F3C00
0FF800
03E000
ENDCHAR
STARTCHAR uni1EDB
ENCODING 7899
SWIDTH 439 0
DWIDTH 12 0
BBX 14 21 0 0
BITMAP
00F0
00E0
01C0
0198
019C
021C
0018
0798
1FF0
3CE0
7860
7860
F060
F0E0
F0E0
F0C0
F1C0
F380
FF80
FF00
3C00
ENDCHAR
STARTCHAR uni1EDC
ENCODING 7900
SWIDTH 665 0
DWIDTH 19 0
BBX 20 28 0 0
BITMAP
00E000
007000
007000
003070
003030
000030
000030
00FC60
07FF60
0E03C0
1CF3C0
31E3C0
73C1C0
6781C0
E781C0
6F83C0
6F03C0
0F03C0
0F03C0
1F03C0
1E0780
1E0780
1E0F00
1E0F00
1E1E00
0F3C00
0FF800
03E000
ENDCHAR
STARTCHAR uni1EDD
ENCODING 7901
SWIDTH 439 0
DWIDTH 12 0
BBX 14 21 0 0
BITMAP
0700
0700
0300
039C
039C
001C
0018
0798
1FF0
3CE0
7860
7860
F060
F0E0
F0E0
F0C0
F1C0
F380
FF80
FF00
3C00
ENDCHAR
STARTCHAR uni1EDE
ENCODING 7902
SWIDTH 665 0
DWIDTH 19 0
BBX 20 28 0 0
BITMAP
000E00
001F00
000300
000300
000E70
000830
000030
00FC70
07FF60
0E03C0
1CF3C0
31E3C0
73C1C0
6781C0
E781C0
6F83C0
6F03C0
0F03C0
0F03C0
1F03C0
1E0780
1E0780
1E0F00
1E0F00
1E1E00
0F3C00
0FF800
03E000
ENDCHAR
STARTCHAR uni1EDF
ENCODING 7903
SWIDTH 439 0
DWIDTH 12 0
BBX 14 22 0 0
BITMAP
01C0
03E0
0060
0060
01DC
011C
001C
0018
0798
1FF0
3CE0
7860
7860
F060
F0E0
F0E0
F0C0
F1C0
F380
FF80
FF00
3C00
ENDCHAR
STARTCHAR uni1EE0
ENCODING 7904
SWIDTH 665 0
DWIDTH 19 0
BBX 20 26 0 0
BITMAP
007880
00FF10
01FE70
000830
000030
00FC70
07FF60
0E03C0
1CF3C0
31E3C0
73C1C0
6781C0
E781C0
6F83C0
6F03C0
0F03C0
0F03C0
1F03C0
1E0780
1E0780
1E0F00
1E0F00
1E1E00
0F3C00
0FF800
03E000
ENDCHAR
STARTCHAR uni1EE1
ENCODING 7905
SWIDTH 439 0
DWIDTH 12 0
BBX 14 19 0 0
BITMAP
0E20
1FCC
3F9C
011C
0018
0798
1FF0
3CE0
7860
7860
F860
F0E0
F0E0
F0C0
F1C0
F180
FF80
FF00
3C00
ENDCHAR
STARTCHAR uni1EE2
ENCODING 7906
SWIDTH 665 0
DWIDTH 19 0
BBX 20 31 0 -6
BITMAP
000010
000070
000030
000030
00FC70
07FF60
0E03C0
1CF3C0
31E3C0
73C1C0
6781C0
E781C0
6F83C0
6F03C0
0F03C0
0F03C0
1F03C0
1E0780
1E0780
1E0F00
1E0F00
1E1E00
0F3C00
0FF800
03E000
000000
000000
038000
078000
07C000
038000
ENDCHAR
STARTCHAR uni1EE3
ENCODING 7907
SWIDTH 439 0
DWIDTH 12 0
BBX 14 24 0 -6
BITMAP
0008
001C
001C
0018
0798
1FF0
3CE0
7860
7860
F060
F0E0
F0E0
F0C0
F1C0
F380
FF80
FF00
3C00
0000
0000
7000
7800
7800
7000
ENDCHAR
STARTCHAR uni1EE4
ENCODING 7908
SWIDTH 716 0
DWIDTH 20 0
BBX 21 27 0 -6
BITMAP
01F078
0FE078
19E078
31E0F0
61E0F0
E3C0F0
E3C0F0
C3C0F0
C3C1E0
6781E0
0781E0
0781E0
0783C0
0F03C0
0F03C0
0F0780
0F0780
0F0F80
0FFF00
07FE00
03F800
000000
000000
01C000
03E000
03E000
01C000
ENDCHAR
STARTCHAR uni1EE5
ENCODING 7909
SWIDTH 505 0
DWIDTH 14 0
BBX 15 20 0 -6
BITMAP
3C78
3CF8
78F0
78F0
78F0
78F0
F9E0
F1E0
F1E0
F1E2
F3E6
FFFC
FDF8
78F0
0000
0000
1C00
3E00
3E00
1C00
ENDCHAR
STARTCHAR uni1EE6
ENCODING 7910
SWIDTH 716 0
DWIDTH 20 0
BBX 21 28 0 0
BITMAP
000780
0007C0
0000C0
0000C0
000380
000200
000000
01F078
0FE078
19E078
31E0F0
61E0F0
E3C0F0
E3C0F0
C3C0F0
C3C1E0
6781E0
0781E0
0781E0
0783C0
0F03C0
0F03C0
0F0780
0F0780
0F0F80
0FFF00
07FE00
03F800
ENDCHAR
STARTCHAR uni1EE7
ENCODING 7911
SWIDTH 505 0
DWIDTH 14 0
BBX 15 22 0 0
BITMAP
0180
07E0
0060
0060
03C0
0300
0000
0000
3C78
3CF8
78F0
78F0
78F0
78F0
F9E0
F1E0
F1E0
F1E2
F3E6
FFFC
FDF8
78F0
ENDCHAR
STARTCHAR uni1EE8
ENCODING 7912
SWIDTH 716 0
DWIDTH 20 0
BBX 24 28 0 0
BITMAP
0000E0
0000E0
0001C3
000183
000383
000303
000006
01F07C
0FE078
19E078
31E0F0
61E0F0
E3C0F0
E3C0F0
C3C0F0
C3C1E0
6781E0
0781E0
0781E0
0783C0
0F03C0
0F03C0
0F0780
0F0780
0F0F80
0FFF00
07FE00
03F800
ENDCHAR
STARTCHAR uni1EE9
ENCODING 7913
SWIDTH 505 0
DWIDTH 14 0
BBX 15 21 0 0
BITMAP
0070
0060
00E2
00C6
0186
0006
000C
3C78
3CF8
78F0
78F0
78F0
78F0
F9E0
F1E0
F1E0
F1E2
F3E6
FFFC
FDF8
78F0
ENDCHAR
STARTCHAR uni1EEA
ENCODING 7914
SWIDTH 716 0
DWIDTH 20 0
BBX 24 28 0 0
BITMAP
001C00
000E00
000E03
000E03
000603
000003
000006
01F07C
0FE078
19E078
31E0F0
61E0F0
E3C0F0
E3C0F0
C3C0F0
C3C1E0
6781E0
0781E0
0781E0
0783C0
0F03C0
0F03C0
0F0780
0F0780
0F0F80
0FFF00
07FE00
03F800
ENDCHAR
STARTCHAR uni1EEB
ENCODING 7915
SWIDTH 505 0
DWIDTH 14 0
BBX 15 21 0 0
BITMAP
0700
0300
0386
0386
0186
0006
000C
3C78
3CF8
78F0
78F0
78F0
78F0
F9E0
F1E0
F1E0
F1E2
F3E6
FFFC
FDF8
78F0
ENDCHAR
STARTCHAR uni1EEC
ENCODING 7916
SWIDTH 716 0
DWIDTH 20 0
BBX 24 28 0 0
BITMAP
000780
0007C0
0000C3
0000C3
000383
000203
000006
01F07E
0FE078
19E078
31E0F0
61E0F0
E3C0F0
E3C0F0
C3C0F0
C3C1E0
6781E0
0781E0
0781E0
0783C0
0F03C0
0F03C0
0F0780
0F0780
0F0F80
0FFF00
07FE00
03F800
ENDCHAR
STARTCHAR uni1EED
ENCODING 7917
SWIDTH 505 0
DWIDTH 14 0
BBX 15 22 0 0
BITMAP
0180
07E0
0060
0062
03C6
0306
0006
000C
3C7C
3CF8
78F0
78F0
78F0
78F0
F9E0
F1E0
F1E0
F1E2
F3E6
FFFC
FDF8
78F0
ENDCHAR
STARTCHAR uni1EEE
ENCODING 7918
SWIDTH 716 0
DWIDTH 20 0
BBX 24 26 0 0
BITMAP
000F8B
003FF3
0047E3
000083
000006
01F07C
0FE078
19E078
31E0F0
61E0F0
E3C0F0
E3C0F0
C3C0F0
C3C1E0
6781E0
0781E0
0781E0
0783C0
0F03C0
0F03C0
0F0780
0F0780
0F0F80
0FFF00
07FE00
03F800
ENDCHAR
STARTCHAR uni1EEF
ENCODING 7919
SWIDTH 505 0
DWIDTH 14 0
BBX 15 19 0 0
BITMAP
0792
0FE6
11C6
0006
000C
3C7C
3CF8
78F0
78F0
78F0
78F0
F9E0
F1E0
F1E0
F1E2
F3E6
FFFC
FDF8
78F0
ENDCHAR
STARTCHAR uni1EF0
ENCODING 7920
SWIDTH 716 0
DWIDTH 20 0
BBX 24 32 0 -6
BITMAP
000003
000003
000003
000003
000006
01F07C
0FE078
19E078
31E0F0
61E0F0
E3C0F0
E3C0F0
C3C0F0
C3C1E0
6781E0
0781E0
0781E0
0783C0
0F03C0
0F03C0
0F0780
0F0780
0F0F80
0FFF00
07FE00
03F800
000000
000000
01C000
03E000
03E000
01C000
ENDCHAR
STARTCHAR uni1EF1
ENCODING 7921
SWIDTH 505 0
DWIDTH 14 0
BBX 15 25 0 -6
BITMAP
0002
0006
0006
0006
000C
3C7C
3CF8
78F0
78F0
78F0
78F0
F9E0
F1E0
F1E0
F1E2
F3E6
FFFC
FDF8
78F0
0000
0000
1C00
3E00
3E00
1C00
ENDCHAR
STARTCHAR Ygrave
ENCODING 7922
SWIDTH 620 0
DWIDTH 17 0
BBX 20 27 0 0
BITMAP
000E00
000E00
000600
000600
000700
000000
01E070
07E060
1DF040
31F0C0
70F0C0
60F180
E0F980
E0F900
E07B00
607A00
007E00
007C00
003C00
007C00
007C00
007800
007800
007800
00F800
00F800
00F000
ENDCHAR
STARTCHAR ygrave
ENCODING 7923
SWIDTH 505 0
DWIDTH 14 0
BBX 15 28 0 -7
BITMAP
0700
0300
0300
0380
0180
0000
0000
3C78
3CF8
78F0
78F0
78F0
78F0
F9E0
F1E0
F1E0
F1E6
F3E4
FFCC
FFD8
7BE0
0FC0
1BC0
3780
6780
6F80
7F00
3E00
ENDCHAR
STARTCHAR uni1EF4
ENCODING 7924
SWIDTH 620 0
DWIDTH 17 0
BBX 20 27 0 -6
BITMAP
01E070
07E060
1DF040
31F0C0
70F0C0
60F180
E0F980
E0F900
E07B00
607A00
007E00
007C00
003C00
007C00
007C00
007800
007800
007800
00F800
00F800
00F000
000000
000000
00E000
01E000
01E000
00E000
ENDCHAR
STARTCHAR uni1EF5
ENCODING 7925
SWIDTH 505 0
DWIDTH 14 0
BBX 15 21 0 -7
BITMAP
3C78
3CF8
78F0
78F0
78F0
78F0
F9E0
F1E0
F1E0
F1E6
F3E4
FFCC
FFD8
7BE0
0FC0
1FC0
2780
67B8
6FB8
7F38
3E38
ENDCHAR
STARTCHAR uni1EF6
ENCODING 7926
SWIDTH 620 0
DWIDTH 17 0
BBX 20 28 0 0
BITMAP
000380
0007C0
0000C0
0000C0
000380
000200
000000
01E070
07E060
1DF040
31F0C0
70F0C0
60F180
E0F980
E0F900
E07B00
607A00
007E00
007C00
003C00
007C00
007C00
007800
007800
007800
00F800
00F800
00F000
ENDCHAR
STARTCHAR uni1EF7
ENCODING 7927
SWIDTH 505 0
DWIDTH 14 0
BBX 15 28 0 -7
BITMAP
07C0
03E0
0060
03C0
0300
0000
0000
3C78
3CF8
78F0
78F0
78F0
78F0
F9E0
F1E0
F1E0
F1E6
F3E4
FFCC
FFD8
7BE0
0FC0
1BC0
3780
6780
6F80
7F00
3E00
ENDCHAR
STARTCHAR uni1EF8
ENCODING 7928
SWIDTH 620 0
DWIDTH 17 0
BBX 20 26 0 0
BITMAP
000400
003FF0
007FE0
000100
000000
01E070
07E060
1DF040
31F0C0
70F0C0
60F180
E0F980
E0F900
E07B00
607A00
007E00
007C00
003C00
007C00
007C00
007800
007800
007800
00F800
00F800
00F000
ENDCHAR
STARTCHAR uni1EF9
ENCODING 7929
SWIDTH 505 0
DWIDTH 14 0
BBX 15 26 0 -7
BITMAP
0100
0FFC
1FF0
2040
0000
3C78
3CF8
78F0
78F0
78F0
78F0
F9E0
F1E0
F1E0
F1E6
F3E4
FFCC
FFD8
7BE0
0FC0
1BC0
3780
6780
6F80
7F00
3E00
ENDCHAR
STARTCHAR uni2010
ENCODING 8208
SWIDTH 290 0
DWIDTH 8 0
BBX 6 2 1 6
BITMAP
FC
F8
ENDCHAR
STARTCHAR endash
ENCODING 8211
SWIDTH 352 0
DWIDTH 10 0
BBX 7 2 1 6
BITMAP
FE
FE
ENDCHAR
STARTCHAR emdash
ENCODING 8212
SWIDTH 444 0
DWIDTH 12 0
BBX 10 2 1 6
BITMAP
FFC0
FFC0
ENDCHAR
STARTCHAR quoteleft
ENCODING 8216
SWIDTH 209 0
DWIDTH 6 0
BBX 3 7 3 14
BITMAP
20
20
40
E0
E0
E0
E0
ENDCHAR
STARTCHAR quoteright
ENCODING 8217
SWIDTH 238 0
DWIDTH 7 0
BBX 3 7 3 14
BITMAP
E0
E0
E0
E0
40
80
80
ENDCHAR
STARTCHAR quotesinglbase
ENCODING 8218
SWIDTH 220 0
DWIDTH 6 0
BBX 4 7 0 -3
BITMAP
E0
F0
F0
60
40
C0
80
ENDCHAR
STARTCHAR quotedblleft
ENCODING 8220
SWIDTH 429 0
DWIDTH 12 0
BBX 9 7 3 14
BITMAP
2080
2100
4300
E700
E780
E780
E300
ENDCHAR
STARTCHAR quotedblright
ENCODING 8221
SWIDTH 426 0
DWIDTH 12 0
BBX 9 7 3 14
BITMAP
6380
F780
F380
6380
6100
4200
8400
ENDCHAR
STARTCHAR quotedblbase
ENCODING 8222
SWIDTH 440 0
DWIDTH 12 0
BBX 9 7 0 -3
BITMAP
E300
F780
F780
6380
4300
C200
8400
ENDCHAR
STARTCHAR dagger
ENCODING 8224
SWIDTH 495 0
DWIDTH 14 0
BBX 11 28 2 -7
BITMAP
0380
0300
0300
0300
0300
0600
0600
0600
0600
FFE0
FFE0
FFC0
0C00
0C00
1800
1800
1800
1800
1800
3000
3000
3000
3000
3000
6000
6000
6000
6000
ENDCHAR
STARTCHAR daggerdbl
ENCODING 8225
SWIDTH 495 0
DWIDTH 14 0
BBX 12 28 1 -7
BITMAP
01C0
0180
0180
0180
0180
0300
0300
0300
0300
7FF0
7FF0
7FE0
0600
0600
0E00
FFE0
FFC0
FFC0
0C00
1800
1800
1800
1800
1800
3000
3000
3000
3000
ENDCHAR
STARTCHAR bullet
ENCODING 8226
SWIDTH 434 0
DWIDTH 12 0
BBX 6 5 3 5
BITMAP
78
7C
FC
7C
78
ENDCHAR
STARTCHAR ellipsis
ENCODING 8230
SWIDTH 702 0
DWIDTH 20 0
BBX 18 4 1 0
BITMAP
71C380
F1E7C0
F3E7C0
71C380
ENDCHAR
STARTCHAR perthousand
ENCODING 8240
SWIDTH 1175 0
DWIDTH 33 0
BBX 32 21 1 0
BITMAP
0F018000
19818000
31830000
71860000
61860000
618C0000
E38C0000
E3980000
63180000
66300000
3C30F03C
0063B866
00C738E6
00C639C7
018E39C7
018E3986
030E3986
030E318E
060E718C
060661D8
0C0780F0
ENDCHAR
STARTCHAR minute
ENCODING 8242
SWIDTH 196 0
DWIDTH 5 0
BBX 5 7 2 14
BITMAP
38
30
70
60
60
C0
C0
ENDCHAR
STARTCHAR second
ENCODING 8243
SWIDTH 341 0
DWIDTH 10 0
BBX 9 7 2 14
BITMAP
3B80
3300
7700
6600
6600
CC00
CC00
ENDCHAR
STARTCHAR guilsinglleft
ENCODING 8249
SWIDTH 359 0
DWIDTH 10 0
BBX 8 11 1 2
BITMAP
01
03
06
18
70
C0
C0
70
1C
06
02
ENDCHAR
STARTCHAR guilsinglright
ENCODING 8250
SWIDTH 344 0
DWIDTH 10 0
BBX 9 11 0 2
BITMAP
2000
3000
1800
0E00
0300
0180
0380
0E00
3800
6000
8000
ENDCHAR
STARTCHAR fraction
ENCODING 8260
SWIDTH 248 0
DWIDTH 7 0
BBX 14 21 -3 0
BITMAP
000C
0018
0030
0030
0060
0060
00C0
00C0
0180
0180
0300
0600
0600
0C00
0C00
1800
1800
3000
3000
6000
E000
ENDCHAR
STARTCHAR uni2052
ENCODING 8274
SWIDTH 796 0
DWIDTH 22 0
BBX 14 21 4 0
BITMAP
700C
F00C
F818
7030
0030
0060
0060
00C0
00C0
0180
0180
0300
0600
0600
0C00
0C00
1800
1818
303C
303C
6018
ENDCHAR
STARTCHAR uni2070
ENCODING 8304
SWIDTH 379 0
DWIDTH 11 0
BBX 9 11 1 10
BITMAP
0F00
1980
3180
7180
6180
6180
E380
E380
6300
6600
3C00
ENDCHAR
STARTCHAR uni2074
ENCODING 8308
SWIDTH 352 0
DWIDTH 10 0
BBX 9 11 1 10
BITMAP
3380
1B00
3B00
3700
3700
6600
7F00
8E00
0E00
0E00
0C00
ENDCHAR
STARTCHAR uni2075
ENCODING 8309
SWIDTH 335 0
DWIDTH 9 0
BBX 8 12 1 9
BITMAP
1F
3E
20
20
3E
3F
47
67
47
C6
4E
38
ENDCHAR
STARTCHAR uni2076
ENCODING 8310
SWIDTH 351 0
DWIDTH 10 0
BBX 9 12 1 9
BITMAP
0F00
1980
3300
7000
7600
6F00
EB00
EB00
E300
6300
6600
3C00
ENDCHAR
STARTCHAR uni2077
ENCODING 8311
SWIDTH 329 0
DWIDTH 9 0
BBX 8 11 1 10
BITMAP
7F
FE
86
0C
18
38
30
70
60
60
70
ENDCHAR
STARTCHAR uni2078
ENCODING 8312
SWIDTH 354 0
DWIDTH 10 0
BBX 9 12 1 9
BITMAP
0E00
3900
3980
3B00
1E00
1E00
3E00
6700
E300
E300
6600
3C00
ENDCHAR
STARTCHAR uni2079
ENCODING 8313
SWIDTH 345 0
DWIDTH 10 0
BBX 8 12 1 9
BITMAP
1E
37
63
63
63
6B
3B
07
06
46
CC
70
ENDCHAR
STARTCHAR uni2080
ENCODING 8320
SWIDTH 379 0
DWIDTH 11 0
BBX 9 11 1 0
BITMAP
0F00
1980
3180
7180
6180
6180
E380
E380
6300
6600
3C00
ENDCHAR
STARTCHAR uni2081
ENCODING 8321
SWIDTH 229 0
DWIDTH 6 0
BBX 5 12 1 0
BITMAP
08
F8
78
30
30
30
70
70
60
60
60
E0
ENDCHAR
STARTCHAR uni2082
ENCODING 8322
SWIDTH 328 0
DWIDTH 9 0
BBX 8 11 1 0
BITMAP
1E
27
67
37
06
0C
18
30
60
7E
FE
ENDCHAR
STARTCHAR uni2083
ENCODING 8323
SWIDTH 336 0
DWIDTH 9 0
BBX 8 11 1 0
BITMAP
1E
33
33
33
06
1E
67
67
C7
66
3C
ENDCHAR
STARTCHAR uni2084
ENCODING 8324
SWIDTH 352 0
DWIDTH 10 0
BBX 9 11 1 0
BITMAP
3380
1B00
3B00
3700
3700
6600
7F00
8E00
0E00
0C00
0C00
ENDCHAR
STARTCHAR uni2085
ENCODING 8325
SWIDTH 335 0
DWIDTH 9 0
BBX 8 11 1 0
BITMAP
1F
3E
20
2C
3E
47
67
47
C6
4E
38
ENDCHAR
STARTCHAR uni2086
ENCODING 8326
SWIDTH 351 0
DWIDTH 10 0
BBX 9 11 1 0
BITMAP
0F00
1980
3300
7000
6E00
6F00
EB00
E300
6300
6600
3C00
ENDCHAR
STARTCHAR uni2087
ENCODING 8327
SWIDTH 329 0
DWIDTH 9 0
BBX 8 11 1 0
BITMAP
7F
FE
84
0C
18
30
30
70
60
60
70
ENDCHAR
STARTCHAR uni2088
ENCODING 8328
SWIDTH 354 0
DWIDTH 10 0
BBX 9 11 1 0
BITMAP
0E00
3900
3980
3B00
1E00
1E00
6700
6700
E300
6700
3C00
ENDCHAR
STARTCHAR uni2089
ENCODING 8329
SWIDTH 345 0
DWIDTH 10 0
BBX 8 11 1 0
BITMAP
1E
37
63
63
6B
7B
37
07
46
CC
78
ENDCHAR
STARTCHAR colonmonetary
ENCODING 8353
SWIDTH 384 0
DWIDTH 11 0
BBX 12 20 0 -1
BITMAP
0360
0260
0240
03E0
0E70
1C70
3870
7060
7000
F000
F000
F000
F000
F000
78C0
7F80
1F80
3600
2600
2400
ENDCHAR
STARTCHAR franc
ENCODING 8355
SWIDTH 529 0
DWIDTH 15 0
BBX 16 21 0 0
BITMAP
03FF
03FE
03C0
03C0
03C0
03C0
03C0
07C0
0780
07F8
07F8
0780
0F00
0F00
0F00
7FF0
FFE0
1E00
1E00
1E00
1E00
ENDCHAR
STARTCHAR lira
ENCODING 8356
SWIDTH 455 0
DWIDTH 13 0
BBX 14 21 0 0
BITMAP
0078
01FC
03CC
078C
079C
0780
0700
0F00
3FF0
7FF0
0E00
7FE0
7FE0
1E00
1E00
1C00
3C00
3F0C
7FFC
FFF8
81F0
ENDCHAR
STARTCHAR uni20A6
ENCODING 8358
SWIDTH 723 0
DWIDTH 20 0
BBX 22 21 0 0
BITMAP
01E070
01E070
01E070
03F060
03F0E0
03F0E0
03F0E0
07F0C0
0778C0
7FFFFC
0679C0
0679C0
7FFFF8
FFFFF8
0E3F80
0C3F80
0C3F00
1C1F00
1C1F00
181F00
381F00
ENDCHAR
STARTCHAR uni20A9
ENCODING 8361
SWIDTH 841 0
DWIDTH 24 0
BBX 26 21 0 0
BITMAP
0F03C0C0
0F03C180
0F07C180
0F07C100
0F07C300
0F0FC300
0F0FC200
0F0BC600
0F1BC600
0F1BC400
7FFFFFC0
0F33CC00
0F23D800
7FFFFF80
FFFFFF80
0F43D000
0FC3F000
0FC3E000
0F83E000
0F83C000
0F03C000
ENDCHAR
STARTCHAR Euro
ENCODING 8364
SWIDTH 507 0
DWIDTH 14 0
BBX 16 21 1 0
BITMAP
007C
01FE
03C7
0787
0F0F
0F0E
1E04
1E00
7FF8
FFF0
3C00
FFF0
FFF0
3C00
3C00
3C00
3E04
3F18
1FF8
0FF0
07C0
ENDCHAR
STARTCHAR uni20AE
ENCODING 8366
SWIDTH 481 0
DWIDTH 13 0
BBX 20 21 0 0
BITMAP
03F010
0FFE10
3CFFF0
70FFE0
70F1C0
E0F000
E0F000
E1E000
E1E000
E1E000
61FF00
0FF800
3FC000
63DE00
07F800
7FC000
478000
078000
078000
078000
0F8000
ENDCHAR
STARTCHAR uni20B3
ENCODING 8371
SWIDTH 573 0
DWIDTH 16 0
BBX 17 21 0 0
BITMAP
01F800
0FFE00
1C0F00
3BE700
73C780
E3C780
E3C780
E7C700
E78700
678E00
079E00
1FF800
3FE000
0F0000
0F0000
3FF000
7FF000
1F0000
1E0000
1E0000
1E0000
ENDCHAR
STARTCHAR uni20B4
ENCODING 8372
SWIDTH 570 0
DWIDTH 16 0
BBX 14 21 1 0
BITMAP
03F0
0FF8
183C
303C
303C
3878
0070
7FFC
7FFC
0700
FFFC
FFF8
3C00
7830
70F8
F078
F038
F038
7870
7FE0
1F80
ENDCHAR
STARTCHAR uni20B8
ENCODING 8376
SWIDTH 522 0
DWIDTH 15 0
BBX 21 21 0 0
BITMAP
1FFFF8
3FFFF8
000000
03FC08
0FFFF0
1E7FF0
387BE0
70F800
F0F000
E0F000
E0F000
E1F000
71E000
01E000
01E000
01E000
03C000
03C000
03C000
03C000
07C000
ENDCHAR
STARTCHAR uni20B9
ENCODING 8377
SWIDTH 544 0
DWIDTH 15 0
BBX 15 22 1 0
BITMAP
3FFE
03C0
01E0
00E0
7FFE
00F0
00E0
00E0
01C0
0780
7F00
8FC0
03C0
03C0
03C0
03C0
03C0
0780
0780
0780
0780
07C0
ENDCHAR
STARTCHAR uni20BA
ENCODING 8378
SWIDTH 455 0
DWIDTH 13 0
BBX 14 21 1 0
BITMAP
0780
0780
0780
0780
0F10
0FE0
0FC0
1F00
FE30
9FE0
1F00
7E20
FE18
3C1C
3C1C
3C1C
3C38
7C70
79E0
7FC0
7E00
ENDCHAR
STARTCHAR uni20BD
ENCODING 8381
SWIDTH 573 0
DWIDTH 16 0
BBX 17 21 0 0
BITMAP
01F800
0FFE00
1C0F00
3BE700
73C780
E3C780
E3C780
E7C700
E78700
678E00
079E00
3FF800
7FE000
0F0000
0F0000
7FE000
7FE000
1E0000
1E0000
1E0000
1E0000
ENDCHAR
STARTCHAR uni2116
ENCODING 8470
SWIDTH 996 0
DWIDTH 28 0
BBX 27 21 0 0
BITMAP
03E07000
0FE07000
3DE07000
33F061E0
73F06320
E3F0E720
E3F0E620
E378EE60
E778CE60
6778CE40
1779C7C0
0779C300
0E3D8000
0E3D9FE0
0E3F9FC0
0E3F8000
0C1F8000
1C1F0000
1C1F0000
1C1F0000
180F0000
ENDCHAR
STARTCHAR uni2120
ENCODING 8480
SWIDTH 585 0
DWIDTH 16 0
BBX 12 8 3 12
BITMAP
3800
69B0
69B0
31B0
1BF0
DBF0
9DA0
75A0
ENDCHAR
STARTCHAR trademark
ENCODING 8482
SWIDTH 379 0
DWIDTH 11 0
BBX 11 6 -1 12
BITMAP
7D20
9160
B360
23A0
23E0
2540
ENDCHAR
STARTCHAR uni2126
ENCODING 8486
SWIDTH 745 0
DWIDTH 21 0
BBX 19 21 1 0
BITMAP
007E00
01FF80
0383C0
0701C0
0E00C0
1C00E0
1800E0
3800E0
3000E0
3000C0
3000C0
3001C0
300180
300180
300300
380700
180600
1C0C00
0C3800
FE3F80
FE7F80
ENDCHAR
STARTCHAR uni212A
ENCODING 8490
SWIDTH 601 0
DWIDTH 17 0
BBX 19 21 0 0
BITMAP
01E1E0
0FE180
1DE300
33C700
73CE00
E3CC00
E3D800
E7F000
E7E000
67FC00
079E00
079E00
0F1E00
0F1E00
0F1E00
0F1E00
0F1C00
1E3C00
1E3C00
1E3C00
1E1E00
ENDCHAR
STARTCHAR uni212B
ENCODING 8491
SWIDTH 668 0
DWIDTH 19 0
BBX 20 28 0 -3
BITMAP
000060
000090
000090
0000F0
0000E0
0007E0
000DE0
0019E0
0033E0
0073C0
0063C0
00E3C0
0FC3C0
7FFFC0
738F80
E38780
F70780
070780
0F0F00
0E0F00
1E0F00
1E0F00
1C0F00
1C1E00
3C1E00
3C0000
3C0000
1C0000
ENDCHAR
STARTCHAR estimated
ENCODING 8494
SWIDTH 786 0
DWIDTH 22 0
BBX 20 20 1 0
BITMAP
01F800
07FE00
1E0780
3C01C0
3C01C0
7C01E0
7C01E0
FC01F0
FFFFF0
FFFFF0
FC0000
FC0000
FC0000
7C0000
7C0000
3C0000
3C0180
1E0780
07FE00
01F800
ENDCHAR
STARTCHAR uni2153
ENCODING 8531
SWIDTH 733 0
DWIDTH 21 0
BBX 19 21 1 0
BITMAP
000700
180600
F80C00
780C00
301800
301800
303000
703000
706000
60C000
60C3C0
E18660
E18660
030660
0300C0
0603C0
060CE0
0C0EE0
1808E0
180CC0
300780
ENDCHAR
STARTCHAR uni2154
ENCODING 8532
SWIDTH 852 0
DWIDTH 24 0
BBX 23 21 1 0
BITMAP
1E0060
2700C0
6700C0
370180
060180
0C0300
180600
300600
600C00
710C00
FE1838
8418CC
0030CE
00304C
006018
00C038
00C0CC
01818C
01818C
03019C
0700F0
ENDCHAR
STARTCHAR oneeighth
ENCODING 8539
SWIDTH 741 0
DWIDTH 21 0
BBX 19 21 1 0
BITMAP
000700
180600
F80C00
780C00
301800
301800
303000
703000
706000
60C000
60C3C0
E18720
E18620
030760
0303C0
0603C0
060CE0
0C1CE0
1818E0
180CC0
300780
ENDCHAR
STARTCHAR threeeighths
ENCODING 8540
SWIDTH 828 0
DWIDTH 23 0
BBX 22 21 1 0
BITMAP
1E00C0
330180
330180
330300
060300
1C0600
060600
670C00
E71800
C71800
463078
3C30CC
0061CC
0061C8
00C0F0
00C0F0
0181B8
03031C
030318
060338
0E01F0
ENDCHAR
STARTCHAR fiveeighths
ENCODING 8541
SWIDTH 827 0
DWIDTH 23 0
BBX 22 21 1 0
BITMAP
1F00C0
3E0180
200180
200300
3E0300
3F0600
470E00
670C00
471800
C61800
4E3078
3830CC
0061CC
0061C8
00C0F0
00C0F0
0183B8
030318
030318
060338
0E01F0
ENDCHAR
STARTCHAR seveneighths
ENCODING 8542
SWIDTH 761 0
DWIDTH 21 0
BBX 20 21 1 0
BITMAP
7F0300
FE0600
860600
0C0C00
180C00
381800
301800
703000
603000
606000
70C1E0
00C330
018730
018320
0303C0
0303C0
0606E0
060C70
0C0C70
180C60
1807C0
ENDCHAR
STARTCHAR partialdiff
ENCODING 8706
SWIDTH 597 0
DWIDTH 17 0
BBX 16 21 1 0
BITMAP
01F8
07FC
030E
0206
0007
0007
0007
0007
0007
07F6
1FFE
3C1E
700E
600C
E01C
C018
E030
E070
71E0
7F80
1F00
ENDCHAR
STARTCHAR uni2206
ENCODING 8710
SWIDTH 619 0
DWIDTH 17 0
BBX 17 21 0 0
BITMAP
001C00
003C00
003E00
007E00
006E00
00EE00
00CE00
018E00
038600
030700
070700
060700
0E0700
1C0700
180700
380380
300380
700380
600380
FFFF80
FFFF80
ENDCHAR
STARTCHAR product
ENCODING 8719
SWIDTH 661 0
DWIDTH 19 0
BBX 18 21 0 0
BITMAP
7FFFC0
7FFFC0
0E0C00
0C0C00
0C0C00
0C1C00
0C1800
1C1800
181800
183800
183000
383000
303000
303000
307000
306000
706000
606000
606000
60E000
E0C000
ENDCHAR
STARTCHAR summation
ENCODING 8721
SWIDTH 605 0
DWIDTH 17 0
BBX 16 21 1 0
BITMAP
0FFF
1FFF
0C00
0E00
0600
0700
0380
0380
01C0
01C0
00E0
01C0
0380
0700
0E00
1C00
3800
7000
E000
FFF8
FFF0
ENDCHAR
STARTCHAR minus
ENCODING 8722
SWIDTH 471 0
DWIDTH 13 0
BBX 10 2 1 8
BITMAP
FFC0
FFC0
ENDCHAR
STARTCHAR uni2215
ENCODING 8725
SWIDTH 488 0
DWIDTH 14 0
BBX 14 21 0 0
BITMAP
001C
0018
0030
0030
0060
0060
00C0
01C0
0180
0300
0300
0600
0600
0C00
0C00
1800
3800
3000
6000
6000
C000
ENDCHAR
STARTCHAR uni2219
ENCODING 8729
SWIDTH 434 0
DWIDTH 12 0
BBX 6 5 3 5
BITMAP
78
7C
FC
7C
78
ENDCHAR
STARTCHAR radical
ENCODING 8730
SWIDTH 660 0
DWIDTH 18 0
BBX 17 21 1 0
BITMAP
003F80
003F80
003000
007000
006000
006000
00E000
00C000
00C000
018000
018000
018000
030000
E30000
F70000
760000
360000
3C0000
3C0000
3C0000
180000
ENDCHAR
STARTCHAR infinity
ENCODING 8734
SWIDTH 833 0
DWIDTH 23 0
BBX 19 9 1 3
BITMAP
1F03C0
3F8FE0
71DC60
60F060
C06060
C1F060
E3B9C0
7F1FC0
3C0F00
ENDCHAR
STARTCHAR integral
ENCODING 8747
SWIDTH 305 0
DWIDTH 9 0
BBX 14 28 -3 -5
BITMAP
0038
007C
00E4
00C0
00C0
01C0
01C0
0180
0180
0180
0380
0380
0300
0300
0300
0700
0700
0600
0600
0E00
0E00
0E00
0C00
0C00
1C00
1C00
F800
F000
ENDCHAR
STARTCHAR approxequal
ENCODING 8776
SWIDTH 441 0
DWIDTH 12 0
BBX 12 9 1 3
BITMAP
3E10
7FF0
43E0
0000
0000
0000
7C20
FFC0
87C0
ENDCHAR
STARTCHAR notequal
ENCODING 8800
SWIDTH 500 0
DWIDTH 14 0
BBX 12 15 1 1
BITMAP
0100
0300
0300
0200
3FF0
7FF0
7FF0
0600
0400
0400
FFE0
FFE0
FFC0
0800
1800
ENDCHAR
STARTCHAR lessequal
ENCODING 8804
SWIDTH 405 0
DWIDTH 11 0
BBX 11 14 0 3
BITMAP
0020
00E0
03E0
0F80
3E00
3800
7C00
0F00
03C0
00C0
0000
0000
FFC0
FFC0
ENDCHAR
STARTCHAR greaterequal
ENCODING 8805
SWIDTH 405 0
DWIDTH 11 0
BBX 11 14 0 3
BITMAP
1000
1C00
1F00
07C0
01E0
01E0
0780
1E00
3C00
3000
0000
0000
FFC0
FFC0
ENDCHAR
STARTCHAR lozenge
ENCODING 9674
SWIDTH 619 0
DWIDTH 17 0
BBX 15 21 1 0
BITMAP
00E0
01F0
01B0
0330
0738
0E18
1C1C
181C
300C
700E
E006
600E
601C
7038
3030
3860
38C0
19C0
1F80
0F00
0E00
ENDCHAR
STARTCHAR uni27E8
ENCODING 10216
SWIDTH 456 0
DWIDTH 13 0
BBX 11 28 2 -4
BITMAP
0060
00C0
00C0
0180
0300
0600
0600
0C00
1800
3000
3000
6000
C000
8000
8000
C000
6000
6000
3000
1800
1800
0C00
0400
0600
0300
0100
0180
0080
ENDCHAR
STARTCHAR uni27E9
ENCODING 10217
SWIDTH 456 0
DWIDTH 13 0
BBX 11 28 0 -3
BITMAP
2000
7000
3000
1800
0800
0C00
0600
0200
0300
0180
0080
00C0
0060
0020
0060
0060
00C0
0180
0300
0300
0600
0C00
1800
1800
3000
6000
4000
C000
ENDCHAR
STARTCHAR ff
ENCODING 64256
SWIDTH 508 0
DWIDTH 14 0
BBX 24 28 -6 -7
BITMAP
001E3C
003FFE
0079F3
0079F3
00F1E0
00F1E0
00F1E0
00FFFC
00FFF8
01F3C0
01E3C0
01E3C0
01E3C0
01E7C0
03C780
03C780
03C780
03C780
07CF00
078F00
07FF00
1F8F00
778F00
C79E00
CF1E00
CF3E00
7FFC00
3CF800
ENDCHAR
STARTCHAR fi
ENCODING 64257
SWIDTH 534 0
DWIDTH 15 0
BBX 22 28 -6 -7
BITMAP
000FC0
003FE0
003C70
0078F0
0078E0
00F040
00F000
00FDE0
00FDE0
01F1E0
01E1E0
01E3C0
01E3C0
01E3C0
03E3C0
03C3C0
03C784
03C78C
03C7F8
0783F0
0783E0
1F8000
678000
CF8000
CF0000
CF0000
7E0000
3C0000
ENDCHAR
STARTCHAR fl
ENCODING 64258
SWIDTH 548 0
DWIDTH 15 0
BBX 23 28 -6 -7
BITMAP
001F80
003FF0
007878
0078F8
00F0F0
00F0F0
00F0F0
00FEF0
00FDE0
01F1E0
01E1E0
01E1E0
01E1E0
01E3C0
03C3C0
03C3C0
03C3C6
03C3C4
07C3F8
0783F0
0781E0
1F8000
678000
CF8000
CF0000
CF0000
7E0000
3C0000
ENDCHAR
STARTCHAR ffi
ENCODING 64259
SWIDTH 764 0
DWIDTH 21 0
BBX 29 28 -6 -7
BITMAP
001F1F00
003FFFC0
0078F1C0
0079E3C0
00F1E3C0
00F1E000
00F3E000
00FFFFC0
00FFFFC0
01F3C780
01E3C780
01E7C780
01E78780
01E78F00
03C78F00
03C78F00
03CF8F18
03CF0F10
07CF0FE0
078F0FE0
07FF0780
1F9E0000
679E0000
C79E0000
CF1E0000
CF3C0000
7FFC0000
3CF00000
ENDCHAR
STARTCHAR ffl
ENCODING 64260
SWIDTH 780 0
DWIDTH 22 0
BBX 29 28 -6 -7
BITMAP
001F3F00
003FFFE0
0079F1E0
0079E1E0
00F1E1E0
00F1E1E0
00F3E3C0
00FFFBC0
00FFFBC0
01F3C3C0
01E3C7C0
01E7C780
01E78780
01E78780
03C78780
03C78F00
03CF8F08
03CF0F10
07CF0FF0
078F0FE0
07FF0780
1F9E0000
679E0000
C79E0000
CF1E0000
CF3C0000
7FFC0000
3CF00000
ENDCHAR
STARTCHAR .notdef
ENCODING -1
SWIDTH 810 0
DWIDTH 23 0
BBX 23 35 0 -7
BITMAP
01FFFE
010004
010004
010004
010004
02000C
020008
020008
020008
060018
041C10
046610
046710
046610
0C2630
080C20
081820
083020
082020
102060
100040
100040
106040
306040
200080
200080
200080
200080
600180
400100
400100
400100
C00100
800200
FFFE00
ENDCHAR
STARTCHAR A.salt
ENCODING -1
SWIDTH 590 0
DWIDTH 17 0
BBX 17 24 0 -3
BITMAP
000780
001F80
003780
006780
00CF00
01CF00
038F00
030F00
070F00
0E1E00
0FFE00
1C1E00
1C1E00
3C3C00
383C00
383C00
783C00
703C00
707800
F07800
F07800
F00000
F00000
700000
ENDCHAR
STARTCHAR B.salt
ENCODING -1
SWIDTH 633 0
DWIDTH 18 0
BBX 17 21 0 0
BITMAP
01F800
0FFE00
1C0700
33E700
73C700
E3C700
E3CE00
E39C00
67FE00
078F00
078F00
070780
0F0780
0F0F80
0F0F00
0F0F00
0E1F00
1E3E00
1FFC00
1FFC00
1EF000
ENDCHAR
STARTCHAR E.salt
ENCODING -1
SWIDTH 554 0
DWIDTH 16 0
BBX 17 21 0 0
BITMAP
03FF80
1FFF00
3BDF00
73C000
63C000
E3C000
E3C000
E78000
678000
27F800
07F800
0F0000
0F0000
0F0000
0F0000
0F0000
1E0000
1E0000
1FF800
1FF800
3FF800
ENDCHAR
STARTCHAR N.salt
ENCODING -1
SWIDTH 669 0
DWIDTH 19 0
BBX 20 21 0 0
BITMAP
01EF00
07FF80
1FFFC0
3BE3C0
73C3C0
63C3C0
E7C3C0
E7C380
E78780
678780
078780
0F8700
0F8F00
0F0F00
0F0F00
1F0F00
1F0E30
1E1E20
1E1FE0
1E0FC0
3E0780
ENDCHAR
STARTCHAR i.loclTRK
ENCODING -1
SWIDTH 267 0
DWIDTH 7 0
BBX 9 19 0 0
BITMAP
1C00
1E00
3E00
1C00
0000
3C00
3C00
7800
7800
7800
7800
F800
F000
F000
F180
F100
FE00
FE00
7800
ENDCHAR
STARTCHAR a.end
ENCODING -1
SWIDTH 467 0
DWIDTH 13 0
BBX 13 14 0 0
BITMAP
0FF8
1FF8
3C78
7878
78F0
F0F0
F0F0
F0F0
F0F0
F1E0
F1E0
FEF8
FEF0
7870
ENDCHAR
STARTCHAR aacute.end
ENCODING -1
SWIDTH 461 0
DWIDTH 13 0
BBX 14 21 -1 0
BITMAP
0038
0038
0070
0060
00E0
0000
0000
07BC
0FFC
1E3C
3C3C
3C78
7878
7878
7878
78F0
F8F0
79F0
7FFC
7E78
3C78
ENDCHAR
STARTCHAR c.end
ENCODING -1
SWIDTH 341 0
DWIDTH 10 0
BBX 11 14 -1 0
BITMAP
07C0
0FE0
1E60
3C60
3C40
7800
7800
7800
F800
F800
F8C0
7F80
7F00
3E00
ENDCHAR
STARTCHAR d.end
ENCODING -1
SWIDTH 476 0
DWIDTH 13 0
BBX 15 19 0 0
BITMAP
003E
003C
003C
003C
003C
0FF8
1FF8
3C78
7878
78F0
F0F0
F0F0
F0F0
F0F0
F1E0
F1E0
FFF8
FEF8
78F0
ENDCHAR
STARTCHAR e.end
ENCODING -1
SWIDTH 366 0
DWIDTH 10 0
BBX 10 14 0 0
BITMAP
0780
1FC0
3CC0
78C0
78C0
F180
F380
FF00
F800
F000
F080
FF00
FF00
3C00
ENDCHAR
STARTCHAR eacute.end
ENCODING -1
SWIDTH 367 0
DWIDTH 10 0
BBX 11 21 0 0
BITMAP
00E0
00C0
01C0
0180
0380
0300
0000
0780
1FC0
3CC0
78C0
78C0
F1C0
F380
FF00
F800
F000
F080
FF00
FF00
3C00
ENDCHAR
STARTCHAR uni0292.end
ENCODING -1
SWIDTH 391 0
DWIDTH 11 0
BBX 11 21 0 -7
BITMAP
3FE0
7FC0
E380
E780
0F00
0F00
1E00
3C00
3C00
3E00
0F00
0F00
0F00
0F80
1F80
6F80
CF00
CF00
DF00
FE00
7C00
ENDCHAR
STARTCHAR g.end
ENCODING -1
SWIDTH 480 0
DWIDTH 13 0
BBX 13 21 0 -7
BITMAP
0FF8
1FF8
3C78
7878
78F8
F0F0
F0F0
F0F0
F0F0
F1E0
F1E0
FFE0
FFE0
7BE0
0FC0
13C0
33C0
23C0
2780
3F80
1E00
ENDCHAR
STARTCHAR uni01E5.end
ENCODING -1
SWIDTH 507 0
DWIDTH 14 0
BBX 13 21 0 -7
BITMAP
0FF8
1FF8
3C78
7878
78F0
F0F0
F0F0
F0F0
F0F0
F1E0
F1E0
FFE0
FFE0
7BE0
0FC0
33C0
7FF0
A7C0
3780
3F00
1E00
ENDCHAR
STARTCHAR h.end
ENCODING -1
SWIDTH 453 0
DWIDTH 13 0
BBX 14 19 -1 0
BITMAP
0F00
0F00
1F00
1E00
1E00
1EF0
1FF8
3FF8
3E78
3C78
3C78
3C70
78F0
78F0
78F0
78F0
F8FC
F0F8
F070
ENDCHAR
STARTCHAR i.end
ENCODING -1
SWIDTH 209 0
DWIDTH 6 0
BBX 7 20 0 0
BITMAP
1C
1E
3E
1C
00
00
3C
3C
78
78
78
78
F8
F0
F0
F0
F0
FC
F8
78
ENDCHAR
STARTCHAR iacute.end
ENCODING -1
SWIDTH 209 0
DWIDTH 6 0
BBX 9 21 0 0
BITMAP
0780
0700
0E00
0C00
1C00
0000
0000
3C00
3C00
7800
7800
7800
7800
F800
F000
F000
F000
F000
FC00
F800
7800
ENDCHAR
STARTCHAR ij.end
ENCODING -1
SWIDTH 480 0
DWIDTH 13 0
BBX 14 26 0 -7
BITMAP
1C1C
1E3C
3E3C
1C1C
0000
3C78
3C78
7878
7878
78F8
78F0
F8F0
F0F0
F0F0
F1E0
F1E0
FDE0
F9E0
79E0
0FC0
13C0
23C0
23C0
3F80
3F80
1E00
ENDCHAR
STARTCHAR j.end
ENCODING -1
SWIDTH 213 0
DWIDTH 6 0
BBX 13 26 -6 -7
BITMAP
0070
00F8
00F8
0070
0000
00F0
00F0
01E0
01E0
01E0
01E0
01E0
03C0
03C0
03C0
03C0
07C0
0780
0780
1F80
7780
CF00
CF00
CF00
7E00
3C00
ENDCHAR
STARTCHAR k.end
ENCODING -1
SWIDTH 472 0
DWIDTH 13 0
BBX 14 20 -1 0
BITMAP
0080
0F00
0F00
1F00
1E00
1E00
1E1C
1E30
3CE0
3D80
3FE0
3FF0
3CF8
78F8
78F0
78F0
78F0
F8FC
F0FC
F078
ENDCHAR
STARTCHAR l.end
ENCODING -1
SWIDTH 207 0
DWIDTH 6 0
BBX 7 20 0 0
BITMAP
02
1E
1E
3C
3C
3C
3C
3C
78
78
78
78
F0
F0
F0
F0
F0
FC
F8
70
ENDCHAR
STARTCHAR m.end
ENCODING -1
SWIDTH 701 0
DWIDTH 20 0
BBX 21 14 -1 0
BITMAP
1EF1E0
1FFFF0
3E7CF0
3C78F0
3C78F0
3C78F0
3CF1E0
78F1E0
78F1E0
78F1E0
78F1E0
F9E1F8
F1E1F0
F1E0E0
ENDCHAR
STARTCHAR n.end
ENCODING -1
SWIDTH 454 0
DWIDTH 13 0
BBX 14 14 -1 0
BITMAP
1EF0
1FF8
3E78
3C78
3C78
3C78
3C70
78F0
78F0
78F0
78F0
F8FC
F0F8
F070
ENDCHAR
STARTCHAR o.end
ENCODING -1
SWIDTH 487 0
DWIDTH 14 0
BBX 14 14 0 0
BITMAP
0780
1FC4
3CE8
78F8
78F0
F8E0
F0E0
F0C0
F0C0
F1C0
F180
F380
FF00
3C00
ENDCHAR
STARTCHAR oacute.end
ENCODING -1
SWIDTH 487 0
DWIDTH 14 0
BBX 14 21 0 0
BITMAP
00F0
00E0
00C0
0180
0180
0300
0000
0780
1FC4
3CE8
78F8
78F0
F8E0
F0E0
F0E0
F0C0
F1C0
F180
F380
FF00
3C00
ENDCHAR
STARTCHAR s.end
ENCODING -1
SWIDTH 316 0
DWIDTH 9 0
BBX 10 15 -1 0
BITMAP
0080
0780
0F80
0F80
0F80
1F80
17C0
37C0
23C0
63C0
F3C0
C3C0
C780
7F80
3E00
ENDCHAR
STARTCHAR t.end
ENCODING -1
SWIDTH 276 0
DWIDTH 8 0
BBX 8 18 0 0
BITMAP
1E
1E
3C
3C
7F
7F
3C
78
78
78
78
F8
F0
F0
F0
FC
F8
70
ENDCHAR
STARTCHAR u.end
ENCODING -1
SWIDTH 459 0
DWIDTH 13 0
BBX 13 14 0 0
BITMAP
3C78
3CF8
78F0
78F0
78F0
78F0
F9E0
F1E0
F1E0
F1E0
F3E0
FFF8
FDF0
78E0
ENDCHAR
STARTCHAR uacute.end
ENCODING -1
SWIDTH 459 0
DWIDTH 13 0
BBX 13 21 0 0
BITMAP
00F0
00E0
01C0
0180
0380
0000
0000
3C78
3CF8
78F0
78F0
78F0
78F0
F9E0
F1E0
F1E0
F1E0
F3E0
FFF8
FDF0
78E0
ENDCHAR
STARTCHAR x.end
ENCODING -1
SWIDTH 500 0
DWIDTH 14 0
BBX 14 15 0 0
BITMAP
0018
071C
1F9C
33CC
23D8
43F0
43E0
43C0
83C0
87E0
05E0
0DE0
19F8
30F8
60F0
ENDCHAR
STARTCHAR y.end
ENCODING -1
SWIDTH 460 0
DWIDTH 13 0
BBX 13 21 0 -7
BITMAP
3C78
3CF8
78F0
78F0
78F0
78F0
F9F0
F1E0
F1E0
F1E0
F3E0
FFC0
FFC0
7BC0
0FC0
33C0
6780
6780
6F80
7F00
1E00
ENDCHAR
STARTCHAR k.salt
ENCODING -1
SWIDTH 518 0
DWIDTH 15 0
BBX 17 19 -1 0
BITMAP
0F0000
0F0000
1F0000
1E0000
1E0000
1E1800
1E7C00
3CF800
3D8000
3FF000
3FF000
3CF800
78F800
78F000
78F180
78F100
F8FF00
F0FE00
F07800
ENDCHAR
STARTCHAR p.salt
ENCODING -1
SWIDTH 482 0
DWIDTH 14 0
BBX 18 22 -3 -7
BITMAP
078000
07BC00
07FC00
0FFE00
0F8E00
0F0E00
0F0E00
1F0EC0
1E0FC0
1E3C00
1EFC00
1E9C00
3DB800
3DF000
3CE000
3C0000
3C0000
780000
780000
780000
780000
800000
ENDCHAR
STARTCHAR E_x
ENCODING -1
SWIDTH 797 0
DWIDTH 22 0
BBX 23 21 0 0
BITMAP
01F000
03F800
070C00
0F0C00
0E1C00
0E3818
0E003C
0F001C
07878C
0FC78C
1E0798
3E0790
7C03F0
7803E0
F803C0
F803C0
F807C2
FC1DE6
7FF9FC
7FF1F8
1F80F0
ENDCHAR
STARTCHAR F_i
ENCODING -1
SWIDTH 726 0
DWIDTH 20 0
BBX 22 21 0 0
BITMAP
03F810
0FFFF0
31FFF0
71E7E0
63E1C0
E3C000
E3C000
E3C1E0
E3C3C0
67FBC0
07FBC0
0783C0
0783C0
078780
0F8780
0F0780
0F078C
0F0788
0F07F0
1E07E0
1E03C0
ENDCHAR
STARTCHAR T_h
ENCODING -1
SWIDTH 971 0
DWIDTH 27 0
BBX 28 21 0 0
BITMAP
03FF1800
0FFFF000
3CF7F000
70F0F000
70F0F000
E0F0E000
E1F1E000
E1E1EF00
E1E1FF80
61E1FF80
01E3E780
03C3C780
03C3C780
03C3C700
03C3CF00
03C78F00
07878F10
07878F30
07878FE0
07878FC0
0F8F0780
ENDCHAR
STARTCHAR T_i
ENCODING -1
SWIDTH 744 0
DWIDTH 21 0
BBX 22 21 0 0
BITMAP
03FFF0
1FFFF0
38FFF0
70F1E0
60F000
E0F000
E1E000
E1E1E0
E1E1E0
61E1E0
01E3E0
03C3C0
03C3C0
03C3C0
03C3C0
03C7C0
078784
078788
0787F8
0787F0
0F83C0
ENDCHAR
STARTCHAR a_x
ENCODING -1
SWIDTH 899 0
DWIDTH 25 0
BBX 26 16 0 0
BITMAP
00000300
00000780
0FF9E380
1FF8F180
3C78F100
7878F300
78F0F200
F0F0F600
F0F07C00
F0F07800
F0F07800
F1E0F840
F1E1F8C0
FFFF3F80
FEFE3F00
78781E00
ENDCHAR
STARTCHAR a_z
ENCODING -1
SWIDTH 906 0
DWIDTH 25 0
BBX 25 14 0 0
BITMAP
0FF8FF80
1FF9FF80
3C79CF00
78799E00
78F01E00
F0F03C00
F0F03C00
F0F07800
F0F07800
F1E0F200
F1E1E700
FEF9E300
FEF3FF00
7877FE00
ENDCHAR
STARTCHAR b_s
ENCODING -1
SWIDTH 799 0
DWIDTH 22 0
BBX 24 19 0 0
BITMAP
1E0000
1E0000
3E0000
3C0000
3C0030
3FC1F0
3FE1F0
78E2F0
78E4F0
78F8F0
78E0F0
78E0F0
F0E0F0
F0EEF1
F1CEF6
F1C8FC
FF88F8
FF0FE0
7C07C0
ENDCHAR
STARTCHAR b_s_x
ENCODING -1
SWIDTH 1144 0
DWIDTH 32 0
BBX 33 20 0 0
BITMAP
0600000000
1E00000000
1E00000000
3C00000000
3C00000600
3C00F00E00
3FC1F3CF00
3FE3F1C300
78E2F1E200
78ECF1E600
78F8F1EC00
78E0F1E800
F8E0F1F800
F0E0F0F000
F0EEF0F000
F1CEF3F080
F1C8FEF180
FF88F87F00
FF0FE07E00
7E07C03C00
ENDCHAR
STARTCHAR b_s_z
ENCODING -1
SWIDTH 1158 0
DWIDTH 32 0
BBX 32 19 0 0
BITMAP
1E000000
1E000000
3E000000
3C000000
3C003000
3FC1F1FF
3FE1F3FF
7CE2F39E
78E4F39C
78F8F03C
78F0F078
78E0F078
F0E0F0F0
F0EEF0F0
F1CEF1E2
F1C8F3CE
FF88F3C6
FF0FE7FE
7C07CFFC
ENDCHAR
STARTCHAR c_x
ENCODING -1
SWIDTH 755 0
DWIDTH 21 0
BBX 23 15 -1 0
BITMAP
000038
07CF3C
0FE79C
1E678C
3C6788
3C4790
7807B0
7803E0
7803C0
F803C0
F807C2
F80FC6
7819FC
7FE1F8
1F80F0
ENDCHAR
STARTCHAR c_z
ENCODING -1
SWIDTH 769 0
DWIDTH 22 0
BBX 23 14 -1 0
BITMAP
07C3FE
0FE7FC
1E6678
3C6670
3C00F0
7801E0
7801E0
7803C0
F803C0
F80788
F8C718
7F8F18
7F1FF8
3E1FF0
ENDCHAR
STARTCHAR e_x
ENCODING -1
SWIDTH 762 0
DWIDTH 21 0
BBX 23 15 0 0
BITMAP
000030
078F78
1FCF38
3CCF18
78CF10
78CF30
F1C7E0
F387C0
FF0780
F80780
F00786
F00BC4
F033F8
7FE3F8
3F01E0
ENDCHAR
STARTCHAR e_z
ENCODING -1
SWIDTH 788 0
DWIDTH 22 0
BBX 23 14 -1 0
BITMAP
07C3FE
0FE7FC
1E663C
3C6678
3CE070
78C0F0
79C1E0
7F01E0
FC03C0
F803C0
F8479C
7F870C
7F8FF8
3E1FF0
ENDCHAR
STARTCHAR eacute_x
ENCODING -1
SWIDTH 760 0
DWIDTH 21 0
BBX 22 21 0 0
BITMAP
007000
00E000
00C000
01C000
018000
038000
000030
078F78
1FCF38
3CCF18
78CF10
78CF30
F18F60
F387C0
FF0780
F80780
F00784
F01F84
F033F8
FFC3F0
3F01E0
ENDCHAR
STARTCHAR f_f_t
ENCODING -1
SWIDTH 780 0
DWIDTH 22 0
BBX 29 28 -6 -7
BITMAP
001F3F00
003FFFE0
0079F1E0
0079E1E0
00F1E1E0
00F1E1E0
00F3E3C0
00FFFFF0
00FFFFF0
01F3C3C0
01E3C3C0
01E7C780
01E78780
01E78780
03C78780
03C78F80
03CF8F08
03CF0F10
07CF0FF0
078F0FE0
07FF0780
1F9E0000
679E0000
C79E0000
CF1E0000
CF3C0000
7FFC0000
3CF00000
ENDCHAR
STARTCHAR f_i_x
ENCODING -1
SWIDTH 898 0
DWIDTH 25 0
BBX 32 28 -6 -7
BITMAP
000FC000
003FE000
003C7000
0078F000
0078F000
00F0E000
00F0001C
00FDE79E
00FDE3CE
01F1E3C6
01E1E3C4
01E3C3CC
01E3C3D8
01E3C1F0
03E3C1E0
03C3C1E0
03C783E1
03C787E3
03C7FCFE
0783F8FC
0783E078
1F800000
67800000
CF800000
CF000000
CF000000
7E000000
3C000000
ENDCHAR
STARTCHAR f_i_z
ENCODING -1
SWIDTH 904 0
DWIDTH 25 0
BBX 31 28 -6 -7
BITMAP
000FC000
003FE000
003C7000
0078F000
0078E000
00F04000
00F00000
00FDE3FE
00FDE7FC
01F1E73C
01E1E778
01E3C078
01E3C0F0
01E3C0F0
03E3C1E0
03C3C1E0
03C783C0
03C7878C
03C7C79C
0783EFFC
0783DFF8
1F800000
67800000
CF800000
CF000000
CF000000
7E000000
3C000000
ENDCHAR
STARTCHAR f_l_x
ENCODING -1
SWIDTH 912 0
DWIDTH 26 0
BBX 33 28 -6 -7
BITMAP
001F800000
003FF00000
0078780000
0078F80000
00F0F00000
00F0F00000
00F0F00E00
00FEF3CE00
00FDE3C600
01F1E3C600
01E1E3C400
01E1E1EC00
01E1E1F800
01E3C1F000
03C3C1E000
03C3C1E000
03C3C1E180
03C3C6F100
07C3FCFF00
0783F8FE00
0781E07800
1F80000000
6780000000
CF80000000
CF00000000
DF00000000
7E00000000
3C00000000
ENDCHAR
STARTCHAR f_l_z
ENCODING -1
SWIDTH 938 0
DWIDTH 26 0
BBX 32 28 -6 -7
BITMAP
001F8000
003FF000
00787800
0078F800
00F0F000
00F0F000
00F0F000
00FEF1FF
00FDF3FE
01F1E39E
01E1E33C
01E1E03C
01E1E078
01E3C078
03C3C0F0
03C3C1E0
03C3C1E0
03C3C3C6
07C3C3CE
0783F7FE
0781EFFC
1F800000
67800000
CF800000
CF000000
CF000000
7E000000
3C000000
ENDCHAR
STARTCHAR f_t
ENCODING -1
SWIDTH 548 0
DWIDTH 15 0
BBX 23 28 -6 -7
BITMAP
001F80
003FF0
007878
0078F8
00F0F0
00F0F0
00F0F0
00FFF8
00FFF8
01F1E0
01E1E0
01E1E0
01E1E0
01E3C0
03C3C0
03C3C0
03C3C6
03C3C4
07C3F8
0783F0
0781E0
1F8000
678000
CF8000
CF0000
DF0000
7E0000
3C0000
ENDCHAR
STARTCHAR f_u
ENCODING -1
SWIDTH 772 0
DWIDTH 22 0
BBX 29 28 -6 -7
BITMAP
001E0000
003F0000
007D8000
00798000
00F00000
00F00000
00F00000
00FFE3C0
00FFE3C0
01F1E3C0
01E1E3C0
01E3C780
01E3C780
01E3C780
03C3C780
03C3CF80
03C78F18
03C78F10
07C7FFF0
0783F7E0
0783C780
1F800000
67800000
CF000000
CF000000
CF000000
7E000000
3C000000
ENDCHAR
STARTCHAR f_x
ENCODING -1
SWIDTH 663 0
DWIDTH 19 0
BBX 25 28 -6 -7
BITMAP
001E0000
003F0000
007D8000
00798000
00F00000
00F00000
00F00700
00FFE700
00FFE300
01F1E300
01E1E200
01E0F600
01E0FC00
01E0F800
03C0F000
03C3F000
03C67880
03C47880
07CE7F00
078E7F00
078E3C00
1F800000
6F800000
CF000000
CF000000
DF000000
7E000000
3C000000
ENDCHAR
STARTCHAR g_p
ENCODING -1
SWIDTH 975 0
DWIDTH 27 0
BBX 27 22 0 -7
BITMAP
0000F000
0FF8F780
1FF8FFC0
3C78F3C0
7879E1E0
78F1E1E0
F0F1E1E0
F0F1E1C0
F0F1E3C0
F0F3C3C0
F1E3C3C0
F1E3C780
FFE3CF80
FFEFFF00
7BFFFC00
07C78000
1FC78000
33C78000
33CF0000
278F0000
3F8F0000
1E0C0000
ENDCHAR
STARTCHAR g_x
ENCODING -1
SWIDTH 892 0
DWIDTH 25 0
BBX 26 22 0 -7
BITMAP
00000700
0FF9E700
1FF9E380
3C78F100
7878F300
78F0F200
F0F0F600
F0F0FC00
F0F07800
F0F07800
F1E0F840
F1E1F8C0
FFE77F80
FFFC3F00
7BF01E00
07C00000
1FC00000
33C00000
33C00000
27800000
3F800000
1E000000
ENDCHAR
STARTCHAR g_z
ENCODING -1
SWIDTH 907 0
DWIDTH 25 0
BBX 25 21 0 -7
BITMAP
0FF8FF80
1FF9FF80
3C79CF00
78799E00
78F01E00
F0F03C00
F0F03C00
F0F07800
F0F07800
F1E0F200
F1E1E700
FFE1E300
FFE3FF00
7DE7FE00
07C00000
1BC00000
33C00000
23C00000
27800000
3F800000
1E000000
ENDCHAR
STARTCHAR i_x
ENCODING -1
SWIDTH 631 0
DWIDTH 18 0
BBX 19 20 0 0
BITMAP
1C0000
1E0000
3E0000
1C0000
000300
000380
3CF380
3CF080
78F180
787900
787B00
787E00
F87C00
F07800
F07800
F07C60
F1FC40
FF3FC0
FE1F80
781E00
ENDCHAR
STARTCHAR i_z
ENCODING -1
SWIDTH 637 0
DWIDTH 18 0
BBX 18 20 0 0
BITMAP
1C0000
1E0000
3E0000
1C0000
000000
000000
3C7FC0
3CFF80
79C700
79CF00
781E00
781E00
F83C00
F03C00
F07800
F0F000
F0F380
F1E380
FDFF00
7BFE00
ENDCHAR
STARTCHAR iacute_x
ENCODING -1
SWIDTH 631 0
DWIDTH 18 0
BBX 19 21 0 0
BITMAP
078000
070000
0E0000
0C0000
1C0000
000300
000380
3CF380
3CF080
78F180
787900
787B00
787E00
F87C00
F07800
F07800
F07C60
F1FC40
FF3FC0
FE1F80
781E00
ENDCHAR
STARTCHAR iacute_z
ENCODING -1
SWIDTH 637 0
DWIDTH 18 0
BBX 18 21 0 0
BITMAP
078000
070000
0E0000
0C0000
1C0000
000000
000000
3C7FC0
3CFF80
79C700
78CF00
781E00
781E00
F83C00
F03C00
F07800
F0F000
F0F380
F1E380
FDFF00
7BFE00
ENDCHAR
STARTCHAR j_x
ENCODING -1
SWIDTH 624 0
DWIDTH 17 0
BBX 25 26 -6 -7
BITMAP
00700000
00F80000
00F80000
00700000
00000C00
00F3CE00
00F3CE00
01E3C600
01E3C400
01E1CC00
01E1F800
01E1F000
03C1E000
03C1E000
03C3E180
03C6F100
078CFE00
07B8FE00
07E07800
0F800000
3F800000
6F000000
CF000000
CF000000
7E000000
7C000000
ENDCHAR
STARTCHAR j_z
ENCODING -1
SWIDTH 618 0
DWIDTH 17 0
BBX 23 26 -6 -7
BITMAP
007000
00F800
00F800
007000
000000
00F3FE
00F7FC
01F73C
01E678
01E078
01E0F0
01E0F0
03C1E0
03C3C0
03C3C0
03C79C
03C78C
078FFC
079FF8
1F8000
678000
478000
CF0000
CF0000
7E0000
3C0000
ENDCHAR
STARTCHAR l_x
ENCODING -1
SWIDTH 631 0
DWIDTH 18 0
BBX 19 20 0 0
BITMAP
060000
1E0000
1E0000
3C0000
3C0300
3C0380
3CF380
3CF080
78F180
787900
787B00
787E00
787C00
F07800
F07800
F07C60
F1FC40
FFBFC0
FE1F80
781E00
ENDCHAR
STARTCHAR l_z
ENCODING -1
SWIDTH 635 0
DWIDTH 18 0
BBX 18 20 0 0
BITMAP
020000
1E0000
1E0000
3C0000
3C0000
3C0000
3C7FC0
3CFF80
79CF00
78CF00
781E00
781E00
F03C00
F03C00
F07800
F0F100
F0F380
FDE380
F9FF00
73FE00
ENDCHAR
STARTCHAR m_x
ENCODING -1
SWIDTH 1124 0
DWIDTH 31 0
BBX 34 15 -1 0
BITMAP
0000000600
1EF1E1E700
1FFFF1E700
3E7CF1E300
3C78F1E200
3C78F0E600
3C78F0FC00
3CF1E0F800
78F1E0F000
78F1E0F000
78F1E0F0C0
78F1E37880
F9E1FE7F00
F1E1FC7F00
F1E0F03C00
ENDCHAR
STARTCHAR m_z
ENCODING -1
SWIDTH 1125 0
DWIDTH 32 0
BBX 33 14 -1 0
BITMAP
1EF1E0FF80
1FFFF3FF00
3E7CF39E00
3C78F31E00
3C78F03C00
3C78F07800
3CF1E07800
78F1E0F000
78F1E0F000
78F1E1E000
78F1E1E600
F9E1EBC600
F1E1F7FE00
F1E0E7FC00
ENDCHAR
STARTCHAR n_z
ENCODING -1
SWIDTH 882 0
DWIDTH 25 0
BBX 26 14 -1 0
BITMAP
1EF07FC0
1FF8FF80
3E79CF00
3C78CF00
3C781E00
3C781E00
3C783C00
78F07800
78F07800
78F0F000
78F0F300
F8F5E380
F0F9FF00
F07BFE00
ENDCHAR
STARTCHAR o_ae
ENCODING -1
SWIDTH 1089 0
DWIDTH 30 0
BBX 31 14 0 0
BITMAP
07807C78
1FC1FFFC
3CE30FCC
78EC0F8C
78F80F9C
F8E00F18
F0E1FF30
F0E7FFE0
F0CF9F80
F0CF1F02
F18F3F04
F18FEF0C
FF0FEFF0
3C07C7E0
ENDCHAR
STARTCHAR o_s
ENCODING -1
SWIDTH 786 0
DWIDTH 22 0
BBX 23 15 0 0
BITMAP
000010
0781F0
1FC3F0
3CE3F0
78E4F0
78F8F0
F8E0F0
F0E0F0
F0E0F0
F0CEF0
F1DEF6
F198FC
F398F0
FF0FE0
3C07C0
ENDCHAR
STARTCHAR o_s_x
ENCODING -1
SWIDTH 1132 0
DWIDTH 32 0
BBX 33 15 0 0
BITMAP
0000100E00
0781F3CE00
1FC3F3C600
3CE3F3C200
78E4F1C600
78F8F1EC00
F0E0F1E800
F0E0F1F000
F0E0F1E000
F0CEF1E000
F1DEF3F180
F198FEF100
FF98F8FF00
FF0FE07E00
3C07C07800
ENDCHAR
STARTCHAR o_s_z
ENCODING -1
SWIDTH 1139 0
DWIDTH 32 0
BBX 32 15 0 0
BITMAP
00001000
0781F1FF
1FC3F3FE
3CE3F71C
78E4F33C
78F8F078
F8E0F078
F0E0F0F0
F0C0F0F0
F0CEF1E0
F1DEF1E4
F198F3CE
F398F78E
FF0FE7FC
3C07CFF8
ENDCHAR
STARTCHAR o_x
ENCODING -1
SWIDTH 851 0
DWIDTH 24 0
BBX 25 15 0 0
BITMAP
00000E00
0783CE00
1FC3CE00
3CE3C200
78E5E600
78F9EC00
F0F1F800
F0E1F000
F0E1E000
F0C3F000
F1C4F080
F388F100
FF9CFF00
FF1E7E00
3C0C3800
ENDCHAR
STARTCHAR oacute_s
ENCODING -1
SWIDTH 787 0
DWIDTH 22 0
BBX 23 21 0 0
BITMAP
00F000
00E000
00C000
018000
018000
030000
000020
0781F0
1FC3F0
3CE3F0
78E4F0
78F8F0
F8E0F0
F0E0F0
F0E0F0
F0CEF0
F1DEF6
F198FC
F398F0
FF0FE0
3C07C0
ENDCHAR
STARTCHAR oacute_s_x
ENCODING -1
SWIDTH 1141 0
DWIDTH 32 0
BBX 32 21 0 0
BITMAP
00F00000
00E00000
00C00000
01C00000
01800000
03000000
00003000
0781F1FF
1FC3F3FE
3CE2F71E
78E4F33C
78F8F078
F8E0F078
F0E0F0F0
F0E0F0F0
F0CEF1E0
F1DEF1E4
F198F3CE
F398F78E
FF0FE7FC
3C07CFF8
ENDCHAR
STARTCHAR oacute_s_z
ENCODING -1
SWIDTH 1140 0
DWIDTH 32 0
BBX 32 21 0 0
BITMAP
00F00000
00E00000
00C00000
01800000
01800000
03000000
00002000
0781F1FF
1FC3F3FE
3CE3F71E
78E4F33C
78F8F078
F8E0F078
F0E0F0F0
F0E0F0F0
F0CEF1E0
F1DEF1E4
F198F3CE
F398F78E
FF0FE7FC
3C07CFF8
ENDCHAR
STARTCHAR oacute_x
ENCODING -1
SWIDTH 852 0
DWIDTH 24 0
BBX 25 21 0 0
BITMAP
00F00000
00E00000
00C00000
01C00000
01800000
03000000
00000E00
0783CE00
1FC3C600
3CE3C200
78E5E600
78F9EC00
F0F1F800
F0E1F000
F0E1E000
F0C3F000
F1C4F080
F388F100
FF9CFF00
FF1E7E00
3C0C3800
ENDCHAR
STARTCHAR r_x
ENCODING -1
SWIDTH 784 0
DWIDTH 22 0
BBX 24 16 -1 0
BITMAP
00001C
00001C
1EE78E
1FF784
3E778C
3C63CC
3C03D8
3C03F0
3C03E0
7803C0
7807E0
7809E1
7811E2
F038FE
F03CFC
F01870
ENDCHAR
STARTCHAR r_z
ENCODING -1
SWIDTH 654 0
DWIDTH 18 0
BBX 19 14 -1 0
BITMAP
1EFFE0
1FFFC0
3FF3C0
3C6780
3C0780
3C0F00
3C0F00
781E00
783C00
783C00
7879C0
F878C0
F0FFC0
F1FF80
ENDCHAR
STARTCHAR s_x
ENCODING -1
SWIDTH 727 0
DWIDTH 20 0
BBX 23 16 -1 0
BITMAP
000030
078078
078F38
0F8F18
0F8F18
0F8F30
178F20
17C7E0
33C7C0
23C780
73C782
E3CF84
C3F3CC
C7C3F8
7F03F0
3E01E0
ENDCHAR
STARTCHAR s_z
ENCODING -1
SWIDTH 744 0
DWIDTH 21 0
BBX 22 15 -1 0
BITMAP
038000
0787FC
0F8FF8
0F9C70
0F9CF0
1F81E0
17C1E0
37C3C0
23C3C0
63C780
F3CF00
E3CF38
C79E38
7F1FF0
3E3FE0
ENDCHAR
STARTCHAR t_x
ENCODING -1
SWIDTH 631 0
DWIDTH 18 0
BBX 19 18 0 0
BITMAP
1E0000
1E0000
3C0000
3C0380
7FF380
7FF180
3CF180
78F180
787B00
787A00
787C00
F07800
F07800
F07C60
F1BC40
FF3FC0
FE1F80
781E00
ENDCHAR
STARTCHAR t_z
ENCODING -1
SWIDTH 704 0
DWIDTH 20 0
BBX 20 18 0 0
BITMAP
1E0000
1E0000
3C0000
3C0000
7F1FF0
7F3FE0
3C73C0
7873C0
780780
780780
780F00
F81E00
F01E00
F03C00
F03CC0
F478E0
F87FC0
70FF80
ENDCHAR
STARTCHAR u_v
ENCODING -1
SWIDTH 923 0
DWIDTH 26 0
BBX 25 14 0 0
BITMAP
3C79F380
3CF9F380
78F0F380
78F1E080
78F1E180
78F1E180
F9E1E180
F1E3C100
F1E3C300
F1E3C700
F3E3C600
FFC3FC00
FFC3F800
7BC1F000
ENDCHAR
STARTCHAR u_x
ENCODING -1
SWIDTH 878 0
DWIDTH 25 0
BBX 26 16 0 0
BITMAP
00000600
00000700
3C79E700
3CF9E300
78F1E300
78F1E200
78F0F600
78F0FC00
F9E0F800
F1E0F000
F1E0F000
F1E0F8C0
F3E3F880
FFFF7F00
FDFC3F00
78F83C00
ENDCHAR
STARTCHAR y_p
ENCODING -1
SWIDTH 954 0
DWIDTH 27 0
BBX 26 22 0 -7
BITMAP
0000F000
3C79EF00
3CF9FF80
78F1E3C0
78F1E3C0
78F1E3C0
78F3C3C0
F9E3C3C0
F1E3C3C0
F1E3C780
F1E7C780
F3E78F80
FFC79F00
FFDFFE00
7BFFFC00
0FCF0000
1BCF0000
378F0000
678F0000
6F8F0000
7F1E0000
3E180000
ENDCHAR
STARTCHAR y_x
ENCODING -1
SWIDTH 871 0
DWIDTH 24 0
BBX 26 22 0 -7
BITMAP
00000600
3C79EF00
3CF9E700
78F1E300
78F1E200
78F1E600
78F0FC00
79E0F800
F1E0F000
F1E0F000
F1E1F0C0
F3E37880
FFC67F00
FFDC7F00
7BF03C00
07C00000
1FC00000
37800000
67800000
6F800000
7F000000
3E000000
ENDCHAR
STARTCHAR y_z
ENCODING -1
SWIDTH 888 0
DWIDTH 25 0
BBX 25 21 0 -7
BITMAP
3C78FF80
3CF9FF00
78F38E00
78F19E00
78F03C00
78F03C00
F9F07800
F1E07800
F1E0F000
F1E1E000
F3E1E700
FFC3C700
FFC3FE00
7BC7FC00
0FC00000
33C00000
67800000
67800000
6F800000
7F000000
3E000000
ENDCHAR
STARTCHAR a_x.end
ENCODING -1
SWIDTH 884 0
DWIDTH 25 0
BBX 25 16 0 0
BITMAP
00000300
00000780
0FF8E380
1FF8F180
3C78F100
7878F300
78F0F200
F0F0F600
F0F07C00
F0F07800
F0F07800
F1E0F800
F1E1F800
FFFF3F00
FEFE3E00
78781C00
ENDCHAR
STARTCHAR b_s.end
ENCODING -1
SWIDTH 731 0
DWIDTH 20 0
BBX 20 19 0 0
BITMAP
1E0000
1E0000
3E0000
3C0000
3C0030
3FC1F0
3FE1F0
78E2F0
78E4F0
78F8F0
78E0F0
78E0F0
F0E0F0
F0EEF0
F1CEF0
F1C8F0
FF88F0
FF0FE0
7C07C0
ENDCHAR
STARTCHAR e_x.end
ENCODING -1
SWIDTH 747 0
DWIDTH 21 0
BBX 21 15 0 0
BITMAP
000030
078F78
1FCF38
3CCF18
78CF10
78CF30
F1C7E0
F387C0
FF0780
F80780
F00780
F00F80
F03BC0
7FE3F0
3F01E0
ENDCHAR
STARTCHAR f_u.end
ENCODING -1
SWIDTH 724 0
DWIDTH 20 0
BBX 26 28 -6 -7
BITMAP
001E0000
003F0000
007D8000
00798000
00F00000
00F00000
00F00000
00FFE3C0
00FFE3C0
01F1E3C0
01E1E3C0
01E3C780
01E3C780
01E3C780
03C3C780
03C3CF80
03C78F00
03C78F00
07C7FFC0
0783F7C0
0783C780
1F800000
67800000
CF000000
CF000000
CF000000
7E000000
3C000000
ENDCHAR
STARTCHAR fi.end
ENCODING -1
SWIDTH 479 0
DWIDTH 13 0
BBX 20 28 -6 -7
BITMAP
000FC0
003FE0
003C70
0078F0
0078E0
00F040
00F000
00FDE0
00FDE0
01F1E0
01E1E0
01E3C0
01E3C0
01E3C0
03E3C0
03C3C0
03C780
03C780
03C7E0
0783E0
0783C0
1F8000
678000
CF8000
CF0000
CF0000
7E0000
3C0000
ENDCHAR
STARTCHAR fl.end
ENCODING -1
SWIDTH 490 0
DWIDTH 14 0
BBX 21 28 -6 -7
BITMAP
001F80
003FF0
007878
0078F8
00F0F0
00F0F0
00F0F0
00FEF0
00FDE0
01F1E0
01E1E0
01E1E0
01E1E0
01E3C0
03C3C0
03C3C0
03C3C0
03C3C0
07C3F0
0783E0
0781C0
1F8000
678000
CF8000
CF0000
CF0000
7E0000
3C0000
ENDCHAR
STARTCHAR i_x.end
ENCODING -1
SWIDTH 616 0
DWIDTH 17 0
BBX 17 20 0 0
BITMAP
1C0000
1E0000
3E0000
1C0000
000300
000380
3CF380
3CF080
78F180
787900
787B00
787E00
F87C00
F07800
F07800
F07C00
F1FC00
FFBF00
FE1F00
781E00
ENDCHAR
STARTCHAR o_s.end
ENCODING -1
SWIDTH 718 0
DWIDTH 20 0
BBX 20 15 0 0
BITMAP
000010
0781F0
1FC3F0
3CE3F0
78E4F0
78F8F0
F8E0F0
F0E0F0
F0E0F0
F0CEF0
F1DEF0
F198F0
F398F0
FF0FE0
3C07C0
ENDCHAR
STARTCHAR oacute_s.end
ENCODING -1
SWIDTH 719 0
DWIDTH 20 0
BBX 20 21 0 0
BITMAP
00F000
00E000
00C000
018000
018000
030000
000020
0781F0
1FC3F0
3CE3F0
78E4F0
78F8F0
F8E0F0
F0E0F0
F0E0F0
F0CEF0
F1DEF0
F198F0
F398F0
FF0FE0
3C07C0
ENDCHAR
STARTCHAR u_x.end
ENCODING -1
SWIDTH 863 0
DWIDTH 24 0
BBX 24 15 0 0
BITMAP
000006
3C79E7
3CF9E7
78F1E3
78F1E3
78F0F6
78F0F4
F9E0F8
F1E0F8
F1E0F0
F1E0F0
F3E1F8
FFFF7E
FDFE7E
78F83C
ENDCHAR
STARTCHAR uni0424.loclBGR
ENCODING -1
SWIDTH 840 0
DWIDTH 24 0
BBX 23 24 0 -2
BITMAP
00FF80
078F00
060F00
060F00
020F00
00FFC0
03DEF0
0E1E3C
1C1E1C
383E1E
783C1E
783C0E
703C1E
F03C1E
F0781E
70783C
78783C
787878
3CF0F0
1FFFE0
0FFF80
00F000
00F000
01E000
ENDCHAR
STARTCHAR uni0492.loclBSH
ENCODING -1
SWIDTH 459 0
DWIDTH 13 0
BBX 17 21 0 0
BITMAP
03FF80
0FFF00
3BDF00
73C000
63C000
63C000
E3C000
E78000
E78000
67F800
17F800
0F8000
0F0000
0F0000
0F0000
0F0000
1F0000
1E0000
1E0000
1E0000
3E0000
ENDCHAR
STARTCHAR uni04AA.loclCHU
ENCODING -1
SWIDTH 497 0
DWIDTH 14 0
BBX 14 27 1 -6
BITMAP
01F0
07F8
0F0C
1E0C
3E1C
3C3C
7C00
7800
F800
F800
F800
F000
F000
F000
F000
F004
F808
F838
FFF0
7FC0
3F00
0400
0780
0980
0180
1980
1E00
ENDCHAR
STARTCHAR uni0418.loclSRB
ENCODING -1
SWIDTH 705 0
DWIDTH 20 0
BBX 21 21 0 0
BITMAP
01E0F8
07E0F0
1DE0F0
39E0F0
73C1F0
63C3E0
E3C7E0
E3CFE0
678FE0
679FE0
07BBC0
07F3C0
07E3C0
0FC3C0
0FC780
0F8780
0F0780
0F0780
1E0780
1E0F00
1E0F00
ENDCHAR
STARTCHAR uni0419.loclSRB
ENCODING -1
SWIDTH 705 0
DWIDTH 20 0
BBX 21 26 0 0
BITMAP
003820
003860
0039C0
003F80
000000
01E0F8
07E0F0
1DE0F0
39E0F0
73C1F0
63C3E0
E3C7E0
E3CFE0
678FE0
679FE0
07BBC0
07F3C0
07E3C0
0FC3C0
0FC780
0F8780
0F0780
0F0780
1E0780
1E0F00
1E0F00
ENDCHAR
STARTCHAR uni0430.end
ENCODING -1
SWIDTH 467 0
DWIDTH 13 0
BBX 13 14 0 0
BITMAP
0FF8
1FF8
3C78
7878
78F0
F0F0
F0F0
F0F0
F0F0
F1E0
F1E0
FEF8
FEF0
7870
ENDCHAR
STARTCHAR uni0432.end
ENCODING -1
SWIDTH 406 0
DWIDTH 11 0
BBX 11 21 0 0
BITMAP
03C0
07E0
0E20
0E20
1C60
1C60
3C60
3840
78C0
78C0
7B80
F3C0
F3E0
F0E0
F0E0
F0E0
F0C0
F0C0
F980
7F00
3E00
ENDCHAR
STARTCHAR uni0434.end
ENCODING -1
SWIDTH 480 0
DWIDTH 13 0
BBX 13 21 0 -7
BITMAP
0FF8
1FF8
3C78
7878
78F8
F0F0
F0F0
F0F0
F0F0
F1E0
F1E0
FFE0
FFE0
7BE0
0FC0
13C0
33C0
23C0
2780
3F80
1E00
ENDCHAR
STARTCHAR uni0435.end
ENCODING -1
SWIDTH 366 0
DWIDTH 10 0
BBX 10 14 0 0
BITMAP
0780
1FC0
3CC0
78C0
78C0
F180
F380
FF00
F800
F000
F080
FF00
FF00
3C00
ENDCHAR
STARTCHAR uni0451.end
ENCODING -1
SWIDTH 366 0
DWIDTH 10 0
BBX 12 19 0 0
BITMAP
0C60
1EF0
0C60
0000
0000
0780
1FC0
3CC0
78C0
78C0
F180
F380
FF00
F800
F000
F080
FF00
FF00
3C00
ENDCHAR
STARTCHAR uni0436.end
ENCODING -1
SWIDTH 848 0
DWIDTH 24 0
BBX 25 14 -1 0
BITMAP
1F0F0F00
3F8F1F80
638F3980
63CF7980
03CE7000
03FFF000
03FFF000
039EF000
039CF000
E7BCE000
C73CF000
C73CF080
FE3C7F00
7C383E00
ENDCHAR
STARTCHAR uni0437.end
ENCODING -1
SWIDTH 426 0
DWIDTH 12 0
BBX 12 21 0 -7
BITMAP
07C0
1FE0
1FF0
31F0
20F0
60F0
40F0
C1E0
81E0
03C0
1F00
1F80
07C0
03C0
07C0
1BC0
33C0
67C0
6780
3F00
1E00
ENDCHAR
STARTCHAR uni0438.end
ENCODING -1
SWIDTH 459 0
DWIDTH 13 0
BBX 13 14 0 0
BITMAP
3C78
3CF8
78F0
78F0
78F0
78F0
F9E0
F1E0
F1E0
F1E0
F3E0
FFF8
FDF0
78E0
ENDCHAR
STARTCHAR uni0439.end
ENCODING -1
SWIDTH 459 0
DWIDTH 13 0
BBX 13 20 0 0
BITMAP
0408
0E10
0E30
0FE0
0000
0000
3C78
3CF8
78F0
78F0
78F0
78F0
F9E0
F1E0
F1E0
F1E0
F3E0
FFF8
FDF0
78E0
ENDCHAR
STARTCHAR uni043A.end
ENCODING -1
SWIDTH 501 0
DWIDTH 14 0
BBX 15 14 -1 0
BITMAP
1E1C
1E3E
3C7E
3CCC
3D80
3FC0
3FF0
7CF0
78F0
78F0
78F0
F8FC
F0FC
F078
ENDCHAR
ENDFONT
